<svg id="Layer_1" data-name="Layer 1" xmlns="http://www.w3.org/2000/svg" viewBox="0 0 44.3 14.6"><defs><style>.cls-1{isolation:isolate;}.cls-2{fill:#1be0e6;stroke:#1be0e6;stroke-miterlimit:10;stroke-width:0.5px;}</style></defs><title>LITMUS_DOCS docs LOGO</title><g class="cls-1"><path class="cls-2" d="M.25,13.85V.25h2.8a15.51,15.51,0,0,1,4.3.4A5.76,5.76,0,0,1,9.65,2a5.13,5.13,0,0,1,1.5,2.3,7.49,7.49,0,0,1,.5,3.1,7.31,7.31,0,0,1-.8,3.3,7.28,7.28,0,0,1-2.2,2.4,8.73,8.73,0,0,1-4.1.8Zm1.3-1.3h1.6a29.26,29.26,0,0,0,3.6-.2,4.35,4.35,0,0,0,1.9-1A4.63,4.63,0,0,0,10,9.55a6.05,6.05,0,0,0,.4-2.4,7,7,0,0,0-.5-2.5,4.5,4.5,0,0,0-1.4-1.9,5.54,5.54,0,0,0-2.2-1,17,17,0,0,0-3.7-.3h-1v11.1Z"/><path class="cls-2" d="M13.65,9a5.37,5.37,0,0,1,1.5-3.8,4.85,4.85,0,0,1,3.7-1.6,4.71,4.71,0,0,1,3.7,1.6A5.37,5.37,0,0,1,24.05,9a5.37,5.37,0,0,1-1.5,3.8,5.23,5.23,0,0,1-3.7,1.6,4.85,4.85,0,0,1-3.7-1.6A5.54,5.54,0,0,1,13.65,9Zm9.2,0a4,4,0,0,0-1.2-2.9,3.87,3.87,0,0,0-5.6,0A4,4,0,0,0,14.85,9a4.36,4.36,0,0,0,1.1,2.9,3.63,3.63,0,0,0,2.8,1.2,3.78,3.78,0,0,0,2.8-1.2A3.74,3.74,0,0,0,22.85,9Z"/><path class="cls-2" d="M36.45,5.85l-1,.6a4.28,4.28,0,0,0-3.6-1.8,4.47,4.47,0,0,0-3.1,1.2,3.85,3.85,0,0,0-1.2,2.9,4.23,4.23,0,0,0,1.2,3,4.14,4.14,0,0,0,3.1,1.2,4.28,4.28,0,0,0,3.6-1.8l1,.7a5.51,5.51,0,0,1-2,1.7,6.39,6.39,0,0,1-2.8.6,5.3,5.3,0,0,1-5.5-5.3,4.92,4.92,0,0,1,1.6-3.8,5.83,5.83,0,0,1,4.1-1.6,6,6,0,0,1,2.7.6A4.72,4.72,0,0,1,36.45,5.85Z"/><path class="cls-2" d="M44,5l-.8.9a2.93,2.93,0,0,0-2-1,1.5,1.5,0,0,0-1.1.4,1.28,1.28,0,0,0-.4,1,1.39,1.39,0,0,0,.5,1,6.38,6.38,0,0,0,1.6,1,4.76,4.76,0,0,1,1.7,1.3,2.52,2.52,0,0,1,.6,1.7,2.72,2.72,0,0,1-.9,2.1,3.24,3.24,0,0,1-3.8.5,3.48,3.48,0,0,1-1.3-1.1l.8-.9A3.11,3.11,0,0,0,41,13a1.9,1.9,0,0,0,1.3-.5,1.48,1.48,0,0,0,.1-2.3,9.13,9.13,0,0,0-1.6-1A6.21,6.21,0,0,1,39.05,8a2.35,2.35,0,0,1-.6-1.7,2.5,2.5,0,0,1,.8-1.8,2.86,2.86,0,0,1,2.1-.8A3.12,3.12,0,0,1,44,5Z"/></g></svg>