<?xml version="1.0" encoding="utf-8"?>
<!-- Generator: Adobe Illustrator 22.1.0, SVG Export Plug-In . SVG Version: 6.00 Build 0)  -->
<svg version="1.1" id="Layer_1" xmlns="http://www.w3.org/2000/svg" xmlns:xlink="http://www.w3.org/1999/xlink" x="0px" y="0px"
	 viewBox="0 0 44.1 14.3" style="enable-background:new 0 0 44.1 14.3;" xml:space="preserve">
<style type="text/css">
	.st0{fill:#23232A;}
	.st1{fill:#FFFFFF;}
	.st2{fill:#14BBC4;}
	.st3{fill:#8AFFFF;}
	.st4{fill:#231F20;}
	.st5{fill:#1BE0E6;}
	.st6{fill:#262B3E;}
	.st7{fill:#F26D00;}
	.st8{fill:#744729;stroke:#FEFEFE;stroke-miterlimit:10;}
	.st9{fill:#2D1D0D;stroke:#FEFEFE;stroke-miterlimit:10;}
	.st10{fill:#060707;stroke:#FEFEFE;stroke-miterlimit:10;}
	.st11{fill:#FFFFFF;stroke:#FEFEFE;stroke-miterlimit:10;}
	.st12{fill:#4B3938;stroke:#FEFEFE;stroke-miterlimit:10;}
	.st13{fill:#C5875D;stroke:#FEFEFE;stroke-miterlimit:10;}
	.st14{fill:#663399;}
	.st15{fill:#F05A2B;}
	.st16{fill:#020202;}
	.st17{fill:#060707;}
	.st18{fill:#AF8070;}
	.st19{fill:#4B3938;}
	.st20{fill:#563A39;}
	.st21{opacity:0.27;fill:#F05A2B;enable-background:new    ;}
	.st22{fill:none;stroke:#262B3E;stroke-width:0.5;stroke-miterlimit:10;}
	.st23{fill:#6976F4;stroke:#6976F4;stroke-width:0.3;}
	.st24{fill:#6976F4;stroke:#6976F4;}
	.st25{fill:none;stroke:#FFFFFF;stroke-width:2;}
	.st26{fill:url(#Path_1_);}
	.st27{fill:#EFEDED;}
	.st28{fill:#6666FF;}
	.st29{clip-path:url(#Path_2_);}
	.st30{fill:#684FF1;}
	.st31{opacity:0.24;enable-background:new    ;}
	.st32{fill:#C48C62;}
	.st33{fill:#FEFEFE;}
	.st34{opacity:0.1;fill:#262B3E;}
	.st35{fill:#454745;}
	.st36{fill:#75451D;}
	.st37{fill:#684FF1;stroke:#21201F;stroke-width:0.75;}
	.st38{fill:#6466AD;}
	.st39{fill:#C5875D;}
	.st40{clip-path:url(#Path_3_);}
	.st41{fill:#6445FF;}
	.st42{fill:#744729;}
	.st43{fill:#7A5DFF;}
	.st44{fill:#F15A29;}
	.st45{fill:#348FC0;}
	.st46{fill:#51331A;}
	.st47{fill:#895F3D;}
	.st48{fill:#5333FF;}
	.st49{fill:#4C3520;}
	.st50{fill:#2D1D0D;}
	.st51{fill:#2B83FF;}
	.st52{fill:#212127;}
	.st53{fill:#579BFF;}
	.st54{fill:#626372;}
	.st55{fill:none;stroke:#F26D00;stroke-width:2;stroke-miterlimit:10;}
	.st56{opacity:0.4;fill:#F26D00;}
	.st57{fill:#744729;stroke:#FFFFFF;stroke-width:2;stroke-miterlimit:10;}
	.st58{fill:#C5875D;stroke:#FFFFFF;stroke-width:2;stroke-miterlimit:10;}
	.st59{fill:none;stroke:#5333FF;stroke-width:2;stroke-miterlimit:10;}
	.st60{fill:none;stroke:#262B3E;stroke-width:2;stroke-miterlimit:10;}
	.st61{fill:none;stroke:#FFFFFF;stroke-width:0.25;stroke-miterlimit:10;}
	.st62{fill:none;stroke:#262B3E;stroke-width:0.25;stroke-miterlimit:10;}
	.st63{stroke:#000000;}
	.st64{fill:#0063FF;stroke:#0063FF;stroke-miterlimit:10;}
	.st65{fill:#03A678;}
	.st66{fill:none;stroke:#000000;stroke-linecap:round;stroke-miterlimit:10;}
	.st67{fill:#0063FF;}
	.st68{fill:none;stroke:#23232A;stroke-width:1.3;stroke-linecap:round;stroke-miterlimit:10;}
	.st69{fill:none;stroke:#23232A;stroke-width:2;stroke-linecap:round;stroke-miterlimit:10;}
	.st70{fill:none;stroke:#FFFFFF;stroke-width:0.75;stroke-linecap:round;stroke-miterlimit:10;}
	.st71{fill:none;stroke:#FFFFFF;stroke-width:0.5;stroke-linecap:round;stroke-miterlimit:10;}
	.st72{fill:none;stroke:#23232A;stroke-width:0.5;stroke-linecap:round;stroke-miterlimit:10;}
	.st73{fill:#7D7E8D;}
	.st74{fill:#383842;}
	.st75{fill:#D1D2D9;}
	.st76{fill:url(#SVGID_1_);}
	.st77{fill:url(#SVGID_2_);}
	.st78{fill:url(#SVGID_4_);}
	.st79{fill:url(#SVGID_5_);}
	.st80{fill:url(#SVGID_6_);}
	.st81{fill:url(#SVGID_7_);}
	.st82{fill:url(#SVGID_8_);}
	.st83{fill:url(#SVGID_9_);}
	.st84{fill:url(#SVGID_10_);}
	.st85{fill:url(#SVGID_11_);}
	.st86{fill:url(#SVGID_12_);}
	.st87{fill:url(#SVGID_13_);}
	.st88{fill:url(#SVGID_14_);}
	.st89{fill:url(#SVGID_15_);}
	.st90{fill:url(#SVGID_16_);}
	.st91{fill:url(#SVGID_17_);}
	.st92{fill:url(#SVGID_18_);}
	.st93{fill:url(#SVGID_19_);}
	.st94{fill:url(#SVGID_20_);}
	.st95{fill:url(#SVGID_21_);}
	.st96{fill:url(#SVGID_22_);}
	.st97{fill:url(#SVGID_23_);}
	.st98{fill:url(#SVGID_24_);}
	.st99{fill:url(#SVGID_25_);}
	.st100{fill:url(#SVGID_26_);}
	.st101{fill:url(#SVGID_27_);}
	.st102{fill:url(#SVGID_28_);}
	.st103{fill:url(#SVGID_29_);}
	.st104{fill:url(#SVGID_30_);}
	.st105{fill:url(#SVGID_31_);}
	.st106{fill:url(#SVGID_32_);}
	.st107{fill:url(#SVGID_33_);}
	.st108{fill:url(#SVGID_34_);}
	.st109{fill:url(#SVGID_35_);}
	.st110{fill:url(#SVGID_36_);}
	.st111{fill:url(#SVGID_37_);}
	.st112{fill:url(#SVGID_38_);}
	.st113{enable-background:new    ;}
	.st114{stroke:#000000;stroke-miterlimit:10;}
	.st115{fill:#1BE0E6;stroke:#1BE0E6;stroke-width:0.5;stroke-miterlimit:10;}
	.st116{fill:#1BE0E6;stroke:#FFFFFF;stroke-linecap:round;stroke-linejoin:round;stroke-miterlimit:10;}
	.st117{fill:#1BE0E6;stroke:#23232A;stroke-linecap:round;stroke-linejoin:round;stroke-miterlimit:10;}
	.st118{fill:none;stroke:#23232A;stroke-width:2;stroke-miterlimit:10;}
	.st119{fill:none;stroke:#23232A;stroke-width:4;stroke-miterlimit:10;}
	.st120{fill:none;stroke:#FFFFFF;stroke-width:2;stroke-linecap:round;stroke-miterlimit:10;}
	.st121{fill:none;stroke:#FFFFFF;stroke-width:2;stroke-miterlimit:10;}
	.st122{fill:#FFFFFF;stroke:#FFFFFF;stroke-width:0.3;stroke-miterlimit:10;}
	.st123{fill:#23232A;stroke:#23232A;stroke-width:0.4;stroke-miterlimit:10;}
	.st124{fill:none;stroke:#FFFFFF;stroke-miterlimit:10;}
	.st125{fill:none;stroke:#23232A;stroke-miterlimit:10;}
	.st126{fill:none;stroke:#FFFFFF;stroke-width:0.75;stroke-miterlimit:10;}
</style>
<g class="st113">
	<path class="st122" d="M0.2,13.8V0.2H3c1.9,0,3.4,0.1,4.3,0.4c0.9,0.3,1.7,0.7,2.3,1.3c0.7,0.6,1.2,1.4,1.5,2.3
		c0.4,0.9,0.5,1.9,0.5,3.1s-0.3,2.3-0.8,3.3c-0.6,1-1.3,1.8-2.2,2.4c-0.9,0.5-2.3,0.8-4.1,0.8H0.2z M1.5,12.5H3
		c1.6,0,2.8-0.1,3.6-0.2c0.7-0.2,1.4-0.5,1.9-1c0.6-0.5,1-1.1,1.3-1.8c0.3-0.7,0.4-1.5,0.4-2.4s-0.2-1.7-0.5-2.5
		C9.4,3.9,9,3.2,8.3,2.7S7,1.9,6.1,1.7S4.1,1.5,2.4,1.5h-1V12.5z"/>
	<path class="st122" d="M13.6,8.8c0-1.5,0.5-2.7,1.5-3.8c1-1.1,2.3-1.6,3.7-1.6c1.5,0,2.7,0.5,3.7,1.6c1,1.1,1.5,2.3,1.5,3.8
		s-0.5,2.7-1.5,3.8c-1,1-2.3,1.6-3.7,1.6s-2.7-0.5-3.7-1.6C14.1,11.5,13.6,10.3,13.6,8.8z M22.8,8.8c0-1.1-0.4-2.1-1.2-2.9
		c-0.8-0.8-1.7-1.2-2.8-1.2c-1.1,0-2,0.4-2.8,1.2c-0.8,0.8-1.2,1.8-1.2,2.9c0,1.1,0.4,2.1,1.1,2.9c0.7,0.8,1.7,1.2,2.8,1.2
		c1.1,0,2-0.4,2.8-1.2C22.4,10.9,22.8,10,22.8,8.8z"/>
	<path class="st122" d="M36.4,5.8l-1,0.6c-0.9-1.2-2.1-1.8-3.6-1.8c-1.2,0-2.2,0.4-3.1,1.2c-0.8,0.8-1.2,1.7-1.2,2.9
		c0,1.2,0.4,2.1,1.2,3c0.8,0.8,1.8,1.2,3.1,1.2c1.5,0,2.7-0.6,3.6-1.8l1,0.7c-0.5,0.7-1.2,1.3-2,1.7s-1.8,0.6-2.8,0.6
		c-1.6,0-2.9-0.5-3.9-1.5c-1-1-1.6-2.3-1.6-3.8c0-1.5,0.5-2.8,1.6-3.8s2.4-1.6,4.1-1.6c1,0,1.9,0.2,2.7,0.6S35.9,5.1,36.4,5.8z"/>
	<path class="st122" d="M43.9,4.8l-0.8,0.9c-0.7-0.7-1.4-1-2-1c-0.4,0-0.8,0.1-1.1,0.4s-0.4,0.6-0.4,1c0,0.4,0.2,0.7,0.5,1
		c0.3,0.3,0.8,0.6,1.6,1c0.8,0.4,1.3,0.8,1.7,1.3c0.4,0.5,0.6,1,0.6,1.7c0,0.8-0.3,1.6-0.9,2.1c-0.6,0.6-1.3,0.9-2.2,0.9
		c-0.6,0-1.1-0.1-1.6-0.4c-0.5-0.3-1-0.6-1.3-1.1l0.8-0.9c0.7,0.7,1.4,1.1,2.1,1.1c0.5,0,1-0.2,1.3-0.5c0.4-0.3,0.6-0.7,0.6-1.2
		c0-0.5-0.2-0.8-0.5-1.1c-0.3-0.3-0.9-0.6-1.6-1c-0.8-0.4-1.3-0.8-1.7-1.2c-0.4-0.4-0.6-1-0.6-1.7s0.3-1.3,0.8-1.8
		c0.5-0.5,1.2-0.8,2.1-0.8C42.1,3.4,43,3.9,43.9,4.8z"/>
</g>
</svg>
