<?xml version="1.0" encoding="utf-8"?>
<!-- Generator: Adobe Illustrator 22.1.0, SVG Export Plug-In . SVG Version: 6.00 Build 0)  -->
<svg version="1.1" id="Layer_1" xmlns="http://www.w3.org/2000/svg" xmlns:xlink="http://www.w3.org/1999/xlink" x="0px" y="0px"
	 viewBox="0 0 37 39.6" style="enable-background:new 0 0 37 39.6;" xml:space="preserve">
<style type="text/css">
	.st0{fill:#23232A;}
	.st1{fill:#FFFFFF;}
	.st2{fill:#14BBC4;}
	.st3{fill:#8AFFFF;}
	.st4{fill:#231F20;}
	.st5{fill:#1BE0E6;}
	.st6{fill:#262B3E;}
	.st7{fill:#F26D00;}
	.st8{fill:#744729;stroke:#FEFEFE;stroke-miterlimit:10;}
	.st9{fill:#2D1D0D;stroke:#FEFEFE;stroke-miterlimit:10;}
	.st10{fill:#060707;stroke:#FEFEFE;stroke-miterlimit:10;}
	.st11{fill:#FFFFFF;stroke:#FEFEFE;stroke-miterlimit:10;}
	.st12{fill:#4B3938;stroke:#FEFEFE;stroke-miterlimit:10;}
	.st13{fill:#C5875D;stroke:#FEFEFE;stroke-miterlimit:10;}
	.st14{fill:#663399;}
	.st15{fill:#F05A2B;}
	.st16{fill:#020202;}
	.st17{fill:#060707;}
	.st18{fill:#AF8070;}
	.st19{fill:#4B3938;}
	.st20{fill:#563A39;}
	.st21{opacity:0.27;fill:#F05A2B;enable-background:new    ;}
	.st22{fill:none;stroke:#262B3E;stroke-width:0.5;stroke-miterlimit:10;}
	.st23{fill:#6976F4;stroke:#6976F4;stroke-width:0.3;}
	.st24{fill:#6976F4;stroke:#6976F4;}
	.st25{fill:none;stroke:#FFFFFF;stroke-width:2;}
	.st26{fill:url(#Path_1_);}
	.st27{fill:#EFEDED;}
	.st28{fill:#6666FF;}
	.st29{clip-path:url(#Path_2_);}
	.st30{fill:#684FF1;}
	.st31{opacity:0.24;enable-background:new    ;}
	.st32{fill:#C48C62;}
	.st33{fill:#FEFEFE;}
	.st34{opacity:0.1;fill:#262B3E;}
	.st35{fill:#454745;}
	.st36{fill:#75451D;}
	.st37{fill:#684FF1;stroke:#21201F;stroke-width:0.75;}
	.st38{fill:#6466AD;}
	.st39{fill:#C5875D;}
	.st40{clip-path:url(#Path_3_);}
	.st41{fill:#6445FF;}
	.st42{fill:#744729;}
	.st43{fill:#7A5DFF;}
	.st44{fill:#F15A29;}
	.st45{fill:#348FC0;}
	.st46{fill:#51331A;}
	.st47{fill:#895F3D;}
	.st48{fill:#5333FF;}
	.st49{fill:#4C3520;}
	.st50{fill:#2D1D0D;}
	.st51{fill:#2B83FF;}
	.st52{fill:#212127;}
	.st53{fill:#579BFF;}
	.st54{fill:#626372;}
	.st55{fill:none;stroke:#F26D00;stroke-width:2;stroke-miterlimit:10;}
	.st56{opacity:0.4;fill:#F26D00;}
	.st57{fill:#744729;stroke:#FFFFFF;stroke-width:2;stroke-miterlimit:10;}
	.st58{fill:#C5875D;stroke:#FFFFFF;stroke-width:2;stroke-miterlimit:10;}
	.st59{fill:none;stroke:#5333FF;stroke-width:2;stroke-miterlimit:10;}
	.st60{fill:none;stroke:#262B3E;stroke-width:2;stroke-miterlimit:10;}
	.st61{fill:none;stroke:#FFFFFF;stroke-width:0.25;stroke-miterlimit:10;}
	.st62{fill:none;stroke:#262B3E;stroke-width:0.25;stroke-miterlimit:10;}
	.st63{stroke:#000000;}
	.st64{fill:#0063FF;stroke:#0063FF;stroke-miterlimit:10;}
	.st65{fill:#03A678;}
	.st66{fill:none;stroke:#000000;stroke-linecap:round;stroke-miterlimit:10;}
	.st67{fill:#0063FF;}
	.st68{fill:none;stroke:#23232A;stroke-width:1.3;stroke-linecap:round;stroke-miterlimit:10;}
	.st69{fill:none;stroke:#23232A;stroke-width:2;stroke-linecap:round;stroke-miterlimit:10;}
	.st70{fill:none;stroke:#FFFFFF;stroke-width:0.75;stroke-linecap:round;stroke-miterlimit:10;}
	.st71{fill:none;stroke:#FFFFFF;stroke-width:0.5;stroke-linecap:round;stroke-miterlimit:10;}
	.st72{fill:none;stroke:#23232A;stroke-width:0.5;stroke-linecap:round;stroke-miterlimit:10;}
	.st73{fill:#7D7E8D;}
	.st74{fill:#383842;}
	.st75{fill:#D1D2D9;}
	.st76{fill:url(#SVGID_1_);}
	.st77{fill:url(#SVGID_2_);}
	.st78{fill:url(#SVGID_4_);}
	.st79{fill:url(#SVGID_5_);}
	.st80{fill:url(#SVGID_6_);}
	.st81{fill:url(#SVGID_7_);}
	.st82{fill:url(#SVGID_8_);}
	.st83{fill:url(#SVGID_9_);}
	.st84{fill:url(#SVGID_10_);}
	.st85{fill:url(#SVGID_11_);}
	.st86{fill:url(#SVGID_12_);}
	.st87{fill:url(#SVGID_13_);}
	.st88{fill:url(#SVGID_14_);}
	.st89{fill:url(#SVGID_15_);}
	.st90{fill:url(#SVGID_16_);}
	.st91{fill:url(#SVGID_17_);}
	.st92{fill:url(#SVGID_18_);}
	.st93{fill:url(#SVGID_19_);}
	.st94{fill:url(#SVGID_20_);}
	.st95{fill:url(#SVGID_21_);}
	.st96{fill:url(#SVGID_22_);}
	.st97{fill:url(#SVGID_23_);}
	.st98{fill:url(#SVGID_24_);}
	.st99{fill:url(#SVGID_25_);}
	.st100{fill:url(#SVGID_26_);}
	.st101{fill:url(#SVGID_27_);}
	.st102{fill:url(#SVGID_28_);}
	.st103{fill:url(#SVGID_29_);}
	.st104{fill:url(#SVGID_30_);}
	.st105{fill:url(#SVGID_31_);}
	.st106{fill:url(#SVGID_32_);}
	.st107{fill:url(#SVGID_33_);}
	.st108{fill:url(#SVGID_34_);}
	.st109{fill:url(#SVGID_35_);}
	.st110{fill:url(#SVGID_36_);}
	.st111{fill:url(#SVGID_37_);}
	.st112{fill:url(#SVGID_38_);}
	.st113{enable-background:new    ;}
	.st114{stroke:#000000;stroke-miterlimit:10;}
	.st115{fill:#1BE0E6;stroke:#1BE0E6;stroke-width:0.5;stroke-miterlimit:10;}
	.st116{fill:#1BE0E6;stroke:#FFFFFF;stroke-linecap:round;stroke-linejoin:round;stroke-miterlimit:10;}
	.st117{fill:#1BE0E6;stroke:#23232A;stroke-linecap:round;stroke-linejoin:round;stroke-miterlimit:10;}
	.st118{fill:none;stroke:#23232A;stroke-width:2;stroke-miterlimit:10;}
	.st119{fill:none;stroke:#23232A;stroke-width:4;stroke-miterlimit:10;}
	.st120{fill:none;stroke:#FFFFFF;stroke-width:2;stroke-linecap:round;stroke-miterlimit:10;}
	.st121{fill:none;stroke:#FFFFFF;stroke-width:2;stroke-miterlimit:10;}
	.st122{fill:#FFFFFF;stroke:#FFFFFF;stroke-width:0.3;stroke-miterlimit:10;}
	.st123{fill:#23232A;stroke:#23232A;stroke-width:0.4;stroke-miterlimit:10;}
	.st124{fill:none;stroke:#FFFFFF;stroke-miterlimit:10;}
	.st125{fill:none;stroke:#23232A;stroke-miterlimit:10;}
	.st126{fill:none;stroke:#FFFFFF;stroke-width:0.75;stroke-miterlimit:10;}
</style>
<g>
	<g>
		<rect x="18.5" y="4.8" class="st2" width="3.7" height="11.5"/>
		<rect x="18.5" y="11.9" class="st3" width="3.7" height="8.9"/>
		<g>
			<path class="st2" d="M11.8,17.9h13.8c0,0,0.3,13.9-7.6,15C18,32.9,9.4,29.4,11.8,17.9z"/>
			<g>
				<path class="st1" d="M8.7,12.2h4.2v11.1c0,0-0.6,7.8,4.5,7.5c0,0,5,0.5,6.4-5.7c0,0,0.2-1.5,0.2-2.8l0-10.2h4.2v22.2H24l0-2.4
					c0,0-2,2.5-5.1,2.7c0,0-5.2,1.2-8.3-3c0,0-1.9-1.9-1.9-7.7V12.2z"/>
			</g>
		</g>
		<path class="st3" d="M16.5,25.4L16.5,25.4c-0.2,0-0.3-0.1-0.3-0.3v0c0-0.2,0.1-0.3,0.3-0.3h0c0.2,0,0.3,0.1,0.3,0.3v0
			C16.8,25.3,16.6,25.4,16.5,25.4z"/>
		<path class="st3" d="M17.6,28.1L17.6,28.1c-0.2,0-0.3-0.1-0.3-0.3v0c0-0.2,0.1-0.3,0.3-0.3h0c0.2,0,0.3,0.1,0.3,0.3v0
			C17.9,28,17.8,28.1,17.6,28.1z"/>
		<path class="st3" d="M18.4,24.6L18.4,24.6c-0.2,0-0.3-0.1-0.3-0.3v0c0-0.2,0.1-0.3,0.3-0.3h0c0.2,0,0.3,0.1,0.3,0.3v0
			C18.7,24.4,18.6,24.6,18.4,24.6z"/>
		
			<rect x="16.9" y="24.2" transform="matrix(0.7083 -0.7059 0.7059 0.7083 -12.1792 19.0794)" class="st3" width="0.2" height="0.2"/>
		
			<rect x="15.8" y="26.7" transform="matrix(0.7071 -0.7071 0.7071 0.7071 -14.2925 19.118)" class="st3" width="0.2" height="0.2"/>
		
			<rect x="17.9" y="26.3" transform="matrix(0.7071 -0.7071 0.7071 0.7071 -13.4091 20.4623)" class="st3" width="0.1" height="0.1"/>
		
			<rect x="13.8" y="24.2" transform="matrix(0.7071 -0.7071 0.7071 0.7071 -13.0849 16.9533)" class="st3" width="0.2" height="0.2"/>
		
			<rect x="14.5" y="23.2" transform="matrix(0.7071 -0.7071 0.7071 0.7071 -12.1875 17.0792)" class="st3" width="0.1" height="0.1"/>
		<path class="st3" d="M20.7,26.9L20.7,26.9c-0.2,0-0.3-0.1-0.3-0.3v0c0-0.2,0.1-0.3,0.3-0.3h0c0.2,0,0.3,0.1,0.3,0.3v0
			C21,26.8,20.8,26.9,20.7,26.9z"/>
		
			<rect x="18.9" y="25.5" transform="matrix(0.7071 -0.7071 0.7071 0.7071 -12.5049 20.9265)" class="st3" width="0.2" height="0.2"/>
		<rect x="21" y="25.1" transform="matrix(0.7071 -0.7071 0.7071 0.7071 -11.6215 22.2708)" class="st3" width="0.1" height="0.1"/>
		
			<rect x="18.1" y="25.3" transform="matrix(0.7018 -0.7124 0.7124 0.7018 -12.6084 20.4852)" class="st3" width="0.1" height="0.1"/>
	</g>
	<g>
		<path class="st1" d="M32.2,0.8c2.2,0,4,1.8,4,4v30.1c0,2.2-1.8,4-4,4H4.7c-2.2,0-4-1.8-4-4V4.7c0-2.2,1.8-4,4-4H32.2 M32.2,0H4.7
			C2.1,0,0,2.1,0,4.7v30.1c0,2.6,2.1,4.7,4.7,4.7h27.5c2.6,0,4.7-2.1,4.7-4.7V4.7C37,2.1,34.8,0,32.2,0L32.2,0z"/>
	</g>
</g>
</svg>
