<?xml version="1.0" encoding="utf-8"?>
<!-- Generator: Adobe Illustrator 23.1.1, SVG Export Plug-In . SVG Version: 6.00 Build 0)  -->
<svg version="1.1" id="Layer_1" xmlns="http://www.w3.org/2000/svg" xmlns:xlink="http://www.w3.org/1999/xlink" x="0px" y="0px"
	 viewBox="0 0 108.8436737 17.7040977" style="enable-background:new 0 0 108.8436737 17.7040977;" xml:space="preserve">
<style type="text/css">
	.st0{fill:#FFFFFF;}
	.st1{fill:#D1D2D9;stroke:#000000;stroke-width:0.5;stroke-miterlimit:10;}
	.st2{fill:none;stroke:#FFFFFF;stroke-miterlimit:10;}
	.st3{fill:#EFEFF2;}
	.st4{fill:#0063FF;}
	.st5{opacity:0.6;clip-path:url(#SVGID_2_);}
	.st6{fill:none;stroke:#000000;stroke-width:13;stroke-miterlimit:10;}
	.st7{fill:#008CD6;}
	.st8{fill:#003659;}
	.st9{fill:#B8F3FF;}
	.st10{fill:none;stroke:#000000;stroke-width:3;stroke-miterlimit:10;}
	.st11{fill:#626372;}
	.st12{fill:#4D4E5A;}
	.st13{fill:#001959;}
	.st14{fill:#004ED6;}
	.st15{fill:#D1D2D9;}
	.st16{enable-background:new    ;}
	.st17{fill:#23232A;}
	.st18{fill:none;stroke:#96A3A2;stroke-width:0.3;stroke-miterlimit:10;}
	.st19{fill:#00EFE8;}
	.st20{clip-path:url(#SVGID_4_);}
	.st21{clip-path:url(#SVGID_6_);}
	.st22{opacity:0.6;clip-path:url(#SVGID_8_);}
	.st23{fill:#090A0A;}
	.st24{fill:#191B1B;}
	.st25{fill:#242021;}
	.st26{fill:#E0E1E2;}
	.st27{fill:#DEE0E1;}
	.st28{fill:none;stroke:#FFFFFF;stroke-width:2;stroke-linecap:round;stroke-miterlimit:10;}
	.st29{fill:#454345;}
	.st30{fill:#444243;}
	.st31{fill:#433F41;}
	.st32{fill:#484546;}
	.st33{fill:#434142;}
	.st34{fill:#413E3F;}
	.st35{fill:#413F40;}
	.st36{fill:#454142;}
	.st37{fill:#4A4748;}
	.st38{fill:#423F41;}
	.st39{fill:#494647;}
	.st40{fill:#3F3A3C;}
	.st41{fill:#464343;}
	.st42{fill:#474445;}
	.st43{fill:#201D1C;}
	.st44{fill:#4B4849;}
	.st45{fill:#443D3F;}
	.st46{fill:#413D3E;}
	.st47{fill:#4E494A;}
	.st48{fill:#423C3E;}
	.st49{fill:#413C3E;}
	.st50{fill:#444142;}
	.st51{fill:#4C4647;}
	.st52{fill:#433D41;}
	.st53{fill:#3E3B3B;}
	.st54{fill:#474242;}
	.st55{fill:#4A4747;}
	.st56{fill:#4C494A;}
	.st57{fill:#504C4C;}
	.st58{fill:#3F3938;}
	.st59{fill:#494547;}
	.st60{fill:#5F5857;}
	.st61{fill:#4D4341;}
	.st62{fill:#4B4748;}
	.st63{fill:#534D4D;}
	.st64{fill:#474343;}
	.st65{fill:#544E4D;}
	.st66{fill:#433F3F;}
	.st67{fill:#3D3A3C;}
	.st68{fill:#413E3E;}
	.st69{fill:#4B4646;}
	.st70{fill:#494443;}
	.st71{fill:#4F4B4C;}
	.st72{fill:#4F4C4C;}
	.st73{fill:#464142;}
	.st74{fill:#524945;}
	.st75{fill:#464040;}
	.st76{fill:#565353;}
	.st77{fill:#3C3230;}
	.st78{fill:#5C5653;}
	.st79{fill:#514E4E;}
	.st80{fill:#4F4A4C;}
	.st81{fill:#444040;}
	.st82{fill:#534F4F;}
	.st83{fill:#433D3D;}
	.st84{fill:#5C5452;}
	.st85{fill:#443A37;}
	.st86{fill:#3E393A;}
	.st87{fill:#413D3C;}
	.st88{fill:#61544D;}
	.st89{fill:#433F3E;}
	.st90{fill:#4C4949;}
	.st91{fill:#474446;}
	.st92{fill:#3A3533;}
	.st93{fill:#423C3D;}
	.st94{fill:#454242;}
	.st95{fill:#453F41;}
	.st96{fill:#464244;}
	.st97{fill:#212029;}
	.st98{fill:#3E3A3B;}
	.st99{fill:#423E3F;}
	.st100{fill:#504C4D;}
	.st101{fill:#413F41;}
	.st102{fill:#464141;}
	.st103{fill:#4E4B4C;}
	.st104{fill:#424041;}
	.st105{fill:#423E40;}
	.st106{fill:#423F3F;}
	.st107{fill:#423D3E;}
	.st108{fill:#474141;}
	.st109{fill:#3F3C3E;}
	.st110{fill:#443D3C;}
	.st111{fill:#4F4C4D;}
	.st112{fill:#393434;}
	.st113{fill:#515050;}
	.st114{fill:#403C3C;}
	.st115{fill:#3F3837;}
	.st116{fill:#393232;}
	.st117{fill:#4A4746;}
	.st118{fill:#474547;}
	.st119{fill:#575454;}
	.st120{fill:#474647;}
	.st121{fill:#3F3D3E;}
	.st122{fill:#4C494B;}
	.st123{fill:#464445;}
	.st124{fill:#3E3C3D;}
	.st125{fill:#4A4849;}
	.st126{fill:#3D3B3C;}
	.st127{fill:#4D4B4C;}
	.st128{fill:#525152;}
	.st129{fill:#3C3B3C;}
	.st130{fill:#4E4D4D;}
	.st131{fill:#403D3F;}
	.st132{fill:#4F4D4E;}
	.st133{fill:#4C4A4B;}
	.st134{fill:#3C3A3B;}
	.st135{fill:#3F3D3F;}
	.st136{fill:#3B393A;}
	.st137{fill:#4F4E4E;}
	.st138{fill:#535051;}
	.st139{fill:#3D3B3D;}
	.st140{fill:#504E4E;}
	.st141{fill:#514E4F;}
	.st142{fill:#545152;}
	.st143{fill:#393839;}
	.st144{fill:#3C393A;}
	.st145{fill:#403E3F;}
	.st146{fill:#383537;}
	.st147{fill:#545153;}
	.st148{fill:#4C4C4D;}
	.st149{fill:#4D4C4D;}
	.st150{fill:#514D4F;}
	.st151{fill:#525052;}
	.st152{fill:#565455;}
	.st153{fill:#3B3839;}
	.st154{fill:#524F50;}
	.st155{fill:#353234;}
	.st156{fill:#373435;}
	.st157{fill:#504B4C;}
	.st158{fill:#524D4E;}
	.st159{fill:#3A363A;}
	.st160{fill:#565152;}
	.st161{fill:#525151;}
	.st162{fill:#393738;}
	.st163{fill:#393737;}
	.st164{fill:#393637;}
	.st165{fill:#494648;}
	.st166{fill:#464345;}
	.st167{fill:#3D393B;}
	.st168{fill:#4D494A;}
	.st169{fill:#4F4C4E;}
	.st170{fill:#4E4B4D;}
	.st171{fill:#4D4A4B;}
	.st172{fill:#3B3739;}
	.st173{fill:#4D4A4C;}
	.st174{fill:#3A3638;}
	.st175{fill:#525051;}
	.st176{fill:#5A5658;}
	.st177{fill:#585455;}
	.st178{fill:#424142;}
	.st179{fill:#4B494A;}
	.st180{fill:#4E4A4B;}
	.st181{fill:#423F40;}
	.st182{fill:#403F40;}
	.st183{fill:#403E40;}
	.st184{fill:#3D3A3B;}
	.st185{fill:#3C3939;}
	.st186{fill:#504D50;}
	.st187{fill:#3C393B;}
	.st188{fill:#3A383B;}
	.st189{fill:#383536;}
	.st190{fill:#545252;}
	.st191{fill:#575355;}
	.st192{fill:#494749;}
	.st193{fill:#4F4D4F;}
	.st194{fill:#52504F;}
	.st195{fill:#393537;}
	.st196{fill:#4A4749;}
	.st197{fill:#4A494B;}
	.st198{fill:#3A383A;}
	.st199{fill:#4D4849;}
	.st200{fill:#504D4E;}
	.st201{fill:#3F3C3C;}
	.st202{fill:#4E4A4C;}
	.st203{fill:#504D4D;}
	.st204{fill:#514F4F;}
	.st205{fill:#3F3C3D;}
	.st206{fill:#545050;}
	.st207{fill:#2D2A2B;}
	.st208{fill:#434041;}
	.st209{fill:#535151;}
	.st210{fill:#595656;}
	.st211{fill:#524E4F;}
	.st212{fill:#3B383A;}
	.st213{fill:#2E2A2B;}
	.st214{fill:#494548;}
	.st215{fill:#5A5757;}
	.st216{fill:#514E4D;}
	.st217{fill:#565252;}
	.st218{fill:#3B3939;}
	.st219{fill:#5C5656;}
	.st220{fill:#585656;}
	.st221{fill:#434042;}
	.st222{fill:#1D1B1C;}
	.st223{fill:#2B2929;}
	.st224{fill:#4C494C;}
	.st225{fill:#555354;}
	.st226{fill:#4D484B;}
	.st227{fill:#5A585A;}
	.st228{fill:#4B484A;}
	.st229{fill:#504E50;}
	.st230{fill:#373236;}
	.st231{fill:#474143;}
	.st232{fill:#2B2D3A;}
	.st233{fill:#524C4E;}
	.st234{fill:#3D383C;}
	.st235{fill:#211E21;}
	.st236{fill:#3E3A3C;}
	.st237{fill:#373234;}
	.st238{fill:#464344;}
	.st239{fill:#575353;}
	.st240{fill:#575352;}
	.st241{fill:#605D5F;}
	.st242{fill:#393638;}
	.st243{fill:#3A3536;}
	.st244{fill:#5F5B5C;}
	.st245{fill:#484647;}
	.st246{fill:#454244;}
	.st247{fill:#514D4D;}
	.st248{fill:#595556;}
	.st249{fill:#555150;}
	.st250{fill:#675D5A;}
	.st251{fill:#474243;}
	.st252{fill:#514D4E;}
	.st253{fill:#5B5757;}
	.st254{fill:#524F4F;}
	.st255{fill:#474344;}
	.st256{fill:#454141;}
	.st257{fill:#494345;}
	.st258{fill:#555151;}
	.st259{fill:#3C3738;}
	.st260{fill:#4C4849;}
	.st261{fill:#4B4647;}
	.st262{fill:#E3E2E3;}
	.st263{fill:#434143;}
	.st264{fill:#292B36;}
	.st265{fill:#3E3B3E;}
	.st266{fill:#413E40;}
	.st267{fill:#373436;}
	.st268{fill:#3C383B;}
	.st269{fill:#535050;}
	.st270{fill:#3B3A3C;}
	.st271{fill:#3A393A;}
	.st272{fill:#514E50;}
	.st273{fill:#504D4F;}
	.st274{fill:#4E4C4E;}
	.st275{fill:#585355;}
	.st276{fill:#3D3A3D;}
	.st277{fill:#3B373A;}
	.st278{fill:#403D3E;}
	.st279{fill:#454040;}
	.st280{fill:#53504F;}
	.st281{fill:#585454;}
	.st282{fill:#2C2829;}
	.st283{fill:#4E4C4D;}
	.st284{fill:#4C4A4C;}
	.st285{fill:#4F4E50;}
	.st286{fill:#424042;}
	.st287{fill:#3E3B3D;}
	.st288{fill:#504E4F;}
	.st289{fill:#514F51;}
	.st290{fill:#383638;}
	.st291{fill:#41414B;}
	.st292{fill:#4E4D4F;}
	.st293{fill:#3A393B;}
	.st294{fill:#464243;}
	.st295{fill:#383436;}
	.st296{fill:#525050;}
	.st297{fill:#575555;}
	.st298{fill:#545151;}
	.st299{fill:#444244;}
	.st300{fill:#494849;}
	.st301{fill:#414041;}
	.st302{fill:#555252;}
	.st303{fill:#4D4B4D;}
	.st304{fill:#3D3C3E;}
	.st305{fill:#555455;}
	.st306{fill:#413D40;}
	.st307{fill:#575557;}
	.st308{fill:#3E3D3E;}
	.st309{fill:#4F4E4F;}
	.st310{fill:#525153;}
	.st311{fill:#575757;}
	.st312{fill:#515051;}
	.st313{fill:#3F3E3F;}
	.st314{fill:#515150;}
	.st315{fill:#5B5A5A;}
	.st316{fill:#373536;}
	.st317{fill:#393939;}
	.st318{fill:#3C3A3A;}
	.st319{fill:#5D5B5E;}
	.st320{fill:#393334;}
	.st321{fill:#444344;}
	.st322{fill:#514F50;}
	.st323{fill:#3A373A;}
	.st324{fill:#504F4F;}
	.st325{fill:#484648;}
	.st326{fill:#565454;}
	.st327{fill:#4E4D4E;}
	.st328{fill:#545353;}
	.st329{fill:#373537;}
	.st330{fill:#363537;}
	.st331{fill:#464446;}
	.st332{fill:#3E3C3E;}
	.st333{fill:#3A3739;}
	.st334{fill:#363336;}
	.st335{fill:#565153;}
	.st336{fill:#353436;}
	.st337{fill:#525150;}
	.st338{fill:#413D3F;}
	.st339{fill:#3F3B3D;}
	.st340{fill:#5C5759;}
	.st341{fill:#575455;}
	.st342{fill:#4F4D50;}
	.st343{fill:#5A5657;}
	.st344{fill:#444143;}
	.st345{fill:#403C3D;}
	.st346{fill:#2C292A;}
	.st347{fill:#332E30;}
	.st348{fill:#585556;}
	.st349{fill:#524E50;}
	.st350{fill:#3E3D3D;}
	.st351{fill:#393739;}
	.st352{fill:#39383A;}
	.st353{fill:#656265;}
	.st354{fill:#454344;}
	.st355{fill:#504C4E;}
	.st356{fill:#545254;}
	.st357{fill:#5B5959;}
	.st358{fill:#464546;}
	.st359{fill:#474546;}
	.st360{fill:#2B2A2A;}
	.st361{fill:#2E2C2C;}
	.st362{fill:#5A5858;}
	.st363{fill:#353335;}
	.st364{fill:#484547;}
	.st365{fill:#424141;}
	.st366{fill:#575656;}
	.st367{fill:#403F3F;}
	.st368{fill:#595555;}
	.st369{fill:#605E5E;}
	.st370{fill:#626162;}
	.st371{fill:#636060;}
	.st372{fill:#555353;}
	.st373{fill:#555355;}
	.st374{fill:#5F5C5D;}
	.st375{fill:#5B5556;}
	.st376{fill:#595657;}
	.st377{fill:#5D5B5B;}
	.st378{fill:#403B3C;}
	.st379{fill:#565354;}
	.st380{fill:#3C393C;}
	.st381{fill:#3F3C3F;}
	.st382{fill:#504C4F;}
	.st383{fill:#3E3A3D;}
	.st384{fill:#3A3738;}
	.st385{fill:#524F51;}
	.st386{fill:#5A595A;}
	.st387{fill:#535053;}
	.st388{fill:#555253;}
	.st389{fill:#605E60;}
	.st390{fill:#2B292A;}
	.st391{fill:#403D40;}
	.st392{fill:#504F50;}
	.st393{fill:#474548;}
	.st394{fill:#545354;}
	.st395{fill:#2A2F40;}
	.st396{fill:#595658;}
	.st397{fill:#5B5758;}
	.st398{fill:#545253;}
	.st399{fill:#2B3144;}
	.st400{fill:#37353D;}
	.st401{fill:#2E3447;}
	.st402{fill:#353A4E;}
	.st403{fill:#2F303B;}
	.st404{fill:#393536;}
	.st405{fill:#211F20;}
	.st406{fill:#484748;}
	.st407{fill:#4C4848;}
	.st408{fill:#433E3E;}
	.st409{fill:#2B2B37;}
	.st410{fill:#CCCBCC;}
	.st411{fill:#4A4646;}
	.st412{fill:#48423F;}
	.st413{fill:#3F3B3B;}
	.st414{fill:#3C3735;}
	.st415{fill:#403D3D;}
	.st416{fill:#3D393A;}
	.st417{fill:#393535;}
	.st418{fill:#393332;}
	.st419{fill:#3E3938;}
	.st420{fill:#383637;}
	.st421{fill:#5B5250;}
	.st422{fill:#383434;}
	.st423{fill:#E4E3E4;}
	.st424{fill:#CAC9CB;}
	.st425{fill:#363335;}
	.st426{fill:#524E4E;}
	.st427{fill:#595758;}
	.st428{fill:#4F4B4D;}
	.st429{fill:#5D595A;}
	.st430{fill:#5B595A;}
	.st431{fill:#5A5758;}
	.st432{fill:#3C3A3C;}
	.st433{fill:#514F4E;}
	.st434{fill:#565355;}
	.st435{fill:#383435;}
	.st436{fill:#4E4B4B;}
	.st437{fill:#484545;}
	.st438{fill:#555352;}
	.st439{fill:#555454;}
	.st440{fill:#383738;}
	.st441{fill:#484446;}
	.st442{fill:#4E4E4F;}
	.st443{fill:#454243;}
	.st444{fill:#565456;}
	.st445{fill:#3E3B3C;}
	.st446{fill:#5A5959;}
	.st447{fill:#5D5A5A;}
	.st448{fill:#403C3E;}
	.st449{fill:#444042;}
	.st450{fill:#444242;}
	.st451{fill:#545051;}
	.st452{fill:#413F3F;}
	.st453{fill:#3F3D3D;}
	.st454{fill:#574E4F;}
	.st455{fill:#444141;}
	.st456{fill:#343133;}
	.st457{fill:#555051;}
	.st458{fill:#383739;}
	.st459{fill:#3F3838;}
	.st460{fill:#575357;}
	.st461{fill:#5D5D5B;}
	.st462{fill:#3F3B3E;}
	.st463{fill:#423D3D;}
	.st464{fill:#3E3D3F;}
	.st465{fill:#4C4B4D;}
	.st466{fill:#3D3C3D;}
	.st467{fill:#3E3E3F;}
	.st468{fill:#433F42;}
	.st469{fill:#3D3B3E;}
	.st470{fill:#3B393B;}
	.st471{fill:#505050;}
	.st472{fill:#383538;}
	.st473{fill:#4F4B4B;}
	.st474{fill:#3E3A3A;}
	.st475{fill:#575253;}
	.st476{fill:#3A3737;}
	.st477{fill:#272424;}
	.st478{fill:#363333;}
	.st479{fill:#585256;}
	.st480{fill:#555456;}
	.st481{fill:#5D5B5C;}
	.st482{fill:#3E393B;}
	.st483{fill:#363334;}
	.st484{fill:#4C4A4D;}
	.st485{fill:#4B4A4B;}
	.st486{fill:#595757;}
	.st487{fill:#535252;}
	.st488{fill:#4D4C4E;}
	.st489{fill:#575657;}
	.st490{fill:#535353;}
	.st491{fill:#565554;}
	.st492{fill:#3A3839;}
	.st493{fill:#4A484A;}
	.st494{fill:#373538;}
	.st495{fill:#3F3B3A;}
	.st496{fill:#424040;}
	.st497{fill:#322F2F;}
	.st498{fill:#434244;}
	.st499{fill:#434043;}
	.st500{fill:#585655;}
	.st501{fill:#414042;}
	.st502{fill:#3E3C3C;}
	.st503{fill:#3C3C3D;}
	.st504{fill:#373638;}
	.st505{fill:#595453;}
	.st506{fill:#443D3B;}
	.st507{fill:#5B5858;}
	.st508{fill:#525252;}
	.st509{fill:#5C5A5B;}
	.st510{fill:#535253;}
	.st511{fill:#616060;}
	.st512{fill:#565556;}
	.st513{fill:#5C5858;}
	.st514{fill:#4B4749;}
	.st515{fill:#4D4C4F;}
	.st516{fill:#595858;}
	.st517{fill:#2B2829;}
	.st518{fill:#2D292A;}
	.st519{fill:#4C4A4A;}
	.st520{fill:#545554;}
	.st521{fill:#373535;}
	.st522{fill:#515151;}
	.st523{fill:#504E51;}
	.st524{fill:#555453;}
	.st525{fill:#535052;}
	.st526{fill:#575354;}
	.st527{fill:#595A5B;}
	.st528{fill:#575252;}
	.st529{fill:#3B3738;}
	.st530{fill:#585758;}
	.st531{fill:#585658;}
	.st532{fill:#252323;}
	.st533{fill:#595558;}
	.st534{fill:#504E4D;}
	.st535{fill:#3B383B;}
	.st536{fill:#565555;}
	.st537{fill:#545454;}
	.st538{fill:#3D383A;}
	.st539{fill:#5E5B5B;}
	.st540{fill:#626163;}
	.st541{fill:#403E3E;}
	.st542{fill:#5E5E5E;}
	.st543{fill:#403E41;}
	.st544{fill:#403F41;}
	.st545{fill:#2E2B2D;}
	.st546{fill:#312F30;}
	.st547{fill:#353236;}
	.st548{fill:#3C3945;}
	.st549{fill:#48434F;}
	.st550{fill:#49454F;}
	.st551{fill:#32394D;}
	.st552{fill:#4C4A4E;}
	.st553{fill:#545052;}
	.st554{fill:#59575A;}
	.st555{fill:#5E5A5A;}
	.st556{fill:#585657;}
	.st557{fill:#575556;}
	.st558{fill:#5A5A5A;}
	.st559{fill:#4C4B4C;}
	.st560{fill:#4B494B;}
	.st561{fill:#2C2A2A;}
	.st562{fill:#363435;}
	.st563{fill:#373637;}
	.st564{fill:#3B3A3A;}
	.st565{fill:#444446;}
	.st566{fill:#2F2C2D;}
	.st567{fill:#252222;}
	.st568{fill:#343131;}
	.st569{fill:#555152;}
	.st570{fill:#5B5658;}
	.st571{fill:#5C595B;}
	.st572{fill:#5E5B5D;}
	.st573{fill:#5A575A;}
	.st574{fill:#585859;}
	.st575{fill:#3F3A3F;}
	.st576{fill:#4A4647;}
	.st577{fill:#534F50;}
	.st578{fill:#3A3635;}
	.st579{fill:#524D4D;}
	.st580{fill:#595958;}
	.st581{fill:#3D3C3C;}
	.st582{fill:#3D3B3B;}
	.st583{fill:#383535;}
	.st584{fill:#535153;}
	.st585{fill:#5B595B;}
	.st586{fill:#535152;}
	.st587{fill:#5C5B5B;}
	.st588{fill:#434242;}
	.st589{fill:#565254;}
	.st590{fill:#434343;}
	.st591{fill:#584F4A;}
	.st592{fill:#5B5859;}
	.st593{fill:#272833;}
	.st594{fill:#434551;}
	.st595{fill:#2F313E;}
	.st596{fill:#30333E;}
	.st597{fill:#3B3C4B;}
	.st598{fill:#504C4B;}
	.st599{fill:#434243;}
	.st600{fill:#4E4C4F;}
	.st601{fill:#4C484A;}
	.st602{fill:#5B585A;}
	.st603{fill:#575554;}
	.st604{fill:#565253;}
	.st605{fill:#3C3B3B;}
	.st606{fill:#433D40;}
	.st607{fill:#585555;}
	.st608{fill:#5E5C5D;}
	.st609{fill:#585354;}
	.st610{fill:#545453;}
	.st611{fill:#5D5A5B;}
	.st612{fill:#555254;}
	.st613{fill:#504F4E;}
	.st614{fill:#363436;}
	.st615{fill:#5A595B;}
	.st616{fill:#595959;}
	.st617{fill:#3C3B3A;}
	.st618{fill:#4C4B4B;}
	.st619{fill:#595557;}
	.st620{fill:#4A474A;}
	.st621{fill:#3B3A3B;}
	.st622{fill:#383437;}
	.st623{fill:#585659;}
	.st624{fill:#535254;}
	.st625{fill:#58575A;}
	.st626{fill:#433F40;}
	.st627{fill:#534E4F;}
	.st628{fill:#3B3737;}
	.st629{fill:#5D5859;}
	.st630{fill:#605C5C;}
	.st631{fill:#2E2C2D;}
	.st632{fill:#322F30;}
	.st633{fill:#535355;}
	.st634{fill:#545455;}
	.st635{fill:#4D4D4E;}
	.st636{fill:#373739;}
	.st637{fill:#3D3D3F;}
	.st638{fill:#555556;}
	.st639{fill:#363434;}
	.st640{fill:#383939;}
	.st641{fill:#3F3E40;}
	.st642{fill:#585858;}
	.st643{fill:#5A5A5B;}
	.st644{fill:#353334;}
	.st645{fill:#444445;}
	.st646{fill:#3D3D3E;}
	.st647{fill:#565757;}
	.st648{fill:#585759;}
	.st649{fill:#5A5859;}
	.st650{fill:#575758;}
	.st651{fill:#555655;}
	.st652{fill:#5D5B5D;}
	.st653{fill:#484646;}
	.st654{fill:#585757;}
	.st655{fill:#615D5E;}
	.st656{fill:#494748;}
	.st657{fill:#4F5050;}
	.st658{fill:#534E50;}
	.st659{fill:#515152;}
	.st660{fill:#575558;}
	.st661{fill:#615E5F;}
	.st662{fill:#383737;}
	.st663{fill:#3A3639;}
	.st664{fill:#2E2A2C;}
	.st665{fill:#575153;}
	.st666{fill:#4E4E4E;}
	.st667{fill:#333132;}
	.st668{fill:#5C5B5D;}
	.st669{fill:#423E41;}
	.st670{fill:#565356;}
	.st671{fill:#5B585B;}
	.st672{fill:#5C595C;}
	.st673{fill:#373437;}
	.st674{fill:#555555;}
	.st675{fill:#4D4A55;}
	.st676{fill:#47464A;}
	.st677{fill:#575456;}
	.st678{fill:#454546;}
	.st679{fill:#5D5C5D;}
	.st680{fill:#666466;}
	.st681{fill:#5E5E5F;}
	.st682{fill:#5B5C5C;}
	.st683{fill:#424144;}
	.st684{fill:#5C5B5C;}
	.st685{fill:#545456;}
	.st686{fill:#5E5C5E;}
	.st687{fill:#5A585B;}
	.st688{fill:#515052;}
	.st689{fill:#454346;}
	.st690{fill:#5A5759;}
	.st691{fill:#595A5A;}
	.st692{fill:#433E40;}
	.st693{fill:#505051;}
	.st694{fill:#3C3A3D;}
	.st695{fill:#595859;}
	.st696{fill:#383639;}
	.st697{fill:#4E4949;}
	.st698{fill:#484344;}
	.st699{fill:#484342;}
	.st700{fill:#383336;}
	.st701{fill:#363234;}
	.st702{fill:#545251;}
	.st703{fill:#534E4E;}
	.st704{fill:#4F4949;}
	.st705{fill:#403B39;}
	.st706{fill:#413937;}
	.st707{fill:#3D3939;}
	.st708{fill:#494546;}
	.st709{fill:#413E3D;}
	.st710{fill:#504B4B;}
	.st711{fill:#565656;}
	.st712{fill:#565657;}
	.st713{fill:#5A5354;}
	.st714{fill:#463D3A;}
	.st715{fill:#5F5A5A;}
	.st716{fill:#5E5E5D;}
	.st717{fill:#3B3638;}
	.st718{fill:#3C3B3D;}
	.st719{fill:#4F4D4D;}
	.st720{fill:#4B4649;}
	.st721{fill:#5E5B5C;}
	.st722{fill:#5D585A;}
	.st723{fill:#3E3E3E;}
	.st724{fill:#3A3939;}
	.st725{fill:#3F3F40;}
	.st726{fill:#5D5A5C;}
	.st727{fill:#605E5F;}
	.st728{fill:#5C595A;}
	.st729{fill:#5C5A5A;}
	.st730{fill:#5B5B5B;}
	.st731{fill:#585756;}
	.st732{fill:#575658;}
	.st733{fill:#413E41;}
	.st734{fill:#514E52;}
	.st735{fill:#38373A;}
	.st736{fill:#424143;}
	.st737{fill:#646265;}
	.st738{fill:#39373A;}
	.st739{fill:#5A5555;}
	.st740{fill:#444343;}
	.st741{fill:#5C5C5E;}
	.st742{fill:#3A3A3A;}
	.st743{fill:#5B5A5C;}
	.st744{fill:#2D2B2C;}
	.st745{fill:#555154;}
	.st746{fill:#565557;}
	.st747{fill:#545154;}
	.st748{fill:#545556;}
	.st749{fill:#615D5F;}
	.st750{fill:#5B5A5B;}
	.st751{fill:#555255;}
	.st752{fill:#444345;}
	.st753{fill:#606060;}
	.st754{fill:#575457;}
	.st755{fill:#575756;}
	.st756{fill:#2C2A2B;}
	.st757{fill:#292727;}
	.st758{fill:#504F51;}
	.st759{fill:#545553;}
	.st760{fill:#5F5F5E;}
	.st761{fill:#585557;}
	.st762{fill:#393538;}
	.st763{fill:#5E595C;}
	.st764{fill:#39383B;}
	.st765{fill:#616260;}
	.st766{fill:#545457;}
	.st767{fill:#474648;}
	.st768{fill:#5D5659;}
	.st769{fill:#464547;}
	.st770{fill:#5F5E60;}
	.st771{fill:#403C3F;}
	.st772{fill:#5C5A5C;}
	.st773{fill:#5A5958;}
	.st774{fill:#696667;}
	.st775{fill:#4B4B4C;}
	.st776{fill:#4A4649;}
	.st777{fill:#5F5D5D;}
	.st778{fill:#5B5759;}
	.st779{fill:#4D4B4B;}
	.st780{fill:#4F4D4C;}
	.st781{fill:#605A5B;}
	.st782{fill:#464342;}
	.st783{fill:#5C5958;}
	.st784{fill:#565452;}
	.st785{fill:#3C3839;}
	.st786{fill:#3C383A;}
	.st787{fill:#575453;}
	.st788{fill:#544F4F;}
	.st789{fill:#605B5B;}
	.st790{fill:#5C5C5D;}
	.st791{fill:#373738;}
	.st792{fill:#535354;}
	.st793{fill:#605D5E;}
	.st794{fill:#3D3A3A;}
	.st795{fill:#5D5D5E;}
	.st796{fill:#3A3537;}
	.st797{fill:#363536;}
	.st798{fill:#5A5556;}
	.st799{fill:#414142;}
	.st800{fill:#474345;}
	.st801{fill:#5F5D5F;}
	.st802{fill:#535251;}
	.st803{fill:#454446;}
	.st804{fill:#626363;}
	.st805{fill:#59585A;}
	.st806{fill:#5E5A5D;}
	.st807{fill:#39393A;}
	.st808{fill:#393639;}
	.st809{fill:#363235;}
	.st810{fill:#3A3838;}
	.st811{fill:#4A4A4B;}
	.st812{fill:#484749;}
	.st813{fill:#454445;}
	.st814{fill:#3F3E3E;}
	.st815{fill:#595659;}
	.st816{fill:#535454;}
	.st817{fill:#5E5D5E;}
	.st818{fill:#5E5A5C;}
	.st819{fill:#59595C;}
	.st820{fill:#585554;}
	.st821{fill:#5E5D60;}
	.st822{fill:#353435;}
	.st823{fill:#525253;}
	.st824{fill:#535054;}
	.st825{fill:#5B5B5A;}
	.st826{fill:#525254;}
	.st827{fill:#525259;}
	.st828{fill:#5E5C5F;}
	.st829{fill:#37363A;}
	.st830{fill:#3B393D;}
	.st831{fill:#525251;}
	.st832{fill:#3C3B3E;}
	.st833{fill:#595A59;}
	.st834{fill:#353133;}
	.st835{fill:#5B5657;}
	.st836{fill:#615D5D;}
	.st837{fill:#595456;}
	.st838{fill:#5E5B5A;}
	.st839{fill:#413B3D;}
	.st840{fill:#444041;}
	.st841{fill:#5F5E5E;}
	.st842{fill:#504D4C;}
	.st843{fill:#535352;}
	.st844{fill:#5E5D5D;}
	.st845{fill:#393838;}
	.st846{fill:#635D5E;}
	.st847{fill:#424043;}
	.st848{fill:#5D5C5C;}
	.st849{fill:#59585B;}
	.st850{fill:#434144;}
	.st851{fill:#4A484B;}
	.st852{fill:#575559;}
	.st853{fill:#444144;}
	.st854{fill:#565458;}
	.st855{fill:#434344;}
	.st856{fill:#3B3A3D;}
	.st857{fill:#5C585B;}
	.st858{fill:#413F42;}
	.st859{fill:#373639;}
	.st860{fill:#585456;}
	.st861{fill:#615E5E;}
	.st862{fill:#58585A;}
	.st863{fill:#616161;}
	.st864{fill:#5A5C5D;}
	.st865{fill:#575759;}
	.st866{fill:#3B3B3B;}
	.st867{fill:#5C585A;}
	.st868{fill:#414040;}
	.st869{fill:#3E3E40;}
	.st870{fill:#3F3D40;}
	.st871{fill:#626264;}
	.st872{fill:#555357;}
	.st873{fill:#6D6A6C;}
	.st874{fill:#535154;}
	.st875{fill:#59595A;}
	.st876{fill:#565756;}
	.st877{fill:#524F52;}
	.st878{fill:#565655;}
	.st879{fill:#3A3B3B;}
	.st880{fill:#5E5D5F;}
	.st881{fill:#514F52;}
	.st882{fill:#525355;}
	.st883{fill:#4F4F51;}
	.st884{fill:#56565C;}
	.st885{fill:#535258;}
	.st886{fill:#515155;}
	.st887{fill:#5C5757;}
	.st888{fill:#404040;}
	.st889{fill:#4B4848;}
	.st890{fill:#504B4D;}
	.st891{fill:#565453;}
	.st892{fill:#595756;}
	.st893{fill:#525453;}
	.st894{fill:#5C5B5E;}
	.st895{fill:#615F60;}
	.st896{fill:#605D5D;}
	.st897{fill:#565658;}
	.st898{fill:#595759;}
	.st899{fill:#363637;}
	.st900{fill:#535255;}
	.st901{fill:#605F61;}
	.st902{fill:#454143;}
	.st903{fill:#444043;}
	.st904{fill:#464447;}
	.st905{fill:#5A5B5A;}
	.st906{fill:#565255;}
	.st907{fill:#3D383B;}
	.st908{fill:#3E393C;}
	.st909{fill:#5B5B5D;}
	.st910{fill:#645F60;}
	.st911{fill:#353535;}
	.st912{fill:#5C5758;}
	.st913{fill:#5C5859;}
	.st914{fill:#343334;}
	.st915{fill:#4F4E4D;}
	.st916{fill:#403B3D;}
	.st917{fill:#3E3C3F;}
	.st918{fill:#5C5A5F;}
	.st919{fill:#3B393C;}
	.st920{fill:#555457;}
	.st921{fill:#585558;}
	.st922{fill:#3F3F41;}
	.st923{fill:#545352;}
	.st924{fill:#555557;}
	.st925{fill:#565457;}
	.st926{fill:#605F60;}
	.st927{fill:#4C494D;}
	.st928{fill:#383736;}
	.st929{fill:#625D60;}
	.st930{fill:#5F5A5C;}
	.st931{fill:#3A373B;}
	.st932{fill:#5C5C5C;}
	.st933{fill:#4E4E50;}
	.st934{fill:#3A3637;}
	.st935{fill:#595857;}
	.st936{fill:#605E5D;}
	.st937{fill:#555657;}
	.st938{fill:#626061;}
	.st939{fill:#5B595C;}
	.st940{fill:#3D393C;}
	.st941{fill:#3B3C3C;}
	.st942{fill:#636061;}
	.st943{fill:#50504F;}
	.st944{fill:#5C5A59;}
	.st945{fill:#555654;}
	.st946{fill:#454245;}
	.st947{fill:#5C5E5F;}
	.st948{fill:#313131;}
	.st949{fill:#1BE0E6;}
	.st950{fill:none;stroke:#000000;stroke-miterlimit:10;}
	.st951{fill:#FFFFFF;stroke:#000000;stroke-miterlimit:10;}
	.st952{fill:none;stroke:#06C6BC;stroke-width:0.2;stroke-miterlimit:10;}
	.st953{fill:#3F5070;}
</style>
<g>
	<g id="Artboard_143_">
		<g class="st16">
			<path class="st0" d="M78.0842972,17.3765049v-9.589941h1.9899902c1.3621674,0,2.3617249,0.0999994,2.9986725,0.3004327
				c0.6365204,0.2004337,1.1860809,0.5165186,1.649559,0.9482555c0.4626083,0.4321709,0.8191223,0.9595594,1.0682526,1.5825987
				c0.2491302,0.6234741,0.373909,1.3512964,0.373909,2.1838999s-0.1934738,1.6160765-0.580864,2.3508549
				s-0.9126053,1.2886868-1.5760727,1.6630325c-0.663475,0.3739109-1.6182556,0.5608673-2.8652039,0.5608673H78.0842972z
				 M79.0060349,16.4682484h1.1082535c1.1573792,0,1.9969406-0.0578251,2.517807-0.173912
				c0.5208664-0.1152153,0.9769516-0.34478,1.3686905-0.6878214c0.3921661-0.3426065,0.6904297-0.7586908,0.8952103-1.2486877
				c0.2047806-0.489562,0.3073883-1.0504284,0.3073883-1.683033c0-0.6321697-0.1182632-1.21521-0.3539124-1.7495546
				c-0.2365189-0.5343447-0.5726013-0.9752111-1.0086899-1.3221655c-0.4365158-0.3473892-0.9504242-0.5813007-1.5425949-0.7012997
				c-0.5921707-0.1204348-1.4626007-0.1804342-2.61129-0.1804342h-0.6808624V16.4682484z"/>
			<path class="st0" d="M87.540329,13.8769608c0-1.0417328,0.3586884-1.9321623,1.0752106-2.6712875
				c0.7165146-0.7391262,1.5895538-1.1086893,2.6182404-1.1086893c1.0278244,0,1.9008636,0.3695631,2.6173782,1.1086893
				c0.7165146,0.7391253,1.0756454,1.6252069,1.0756454,2.6578093c0,1.0330372-0.3539124,1.9169445-1.0621643,2.651288
				c-0.7078247,0.7347775-1.5826035,1.1021671-2.6247711,1.1021671c-1.0417328,0-1.9186859-0.3673897-2.6308517-1.1021671
				C87.8964081,15.780427,87.540329,14.9013023,87.540329,13.8769608z M94.0050735,13.890439
				c0-0.783474-0.2739182-1.4625998-0.8217392-2.0369444c-0.5473862-0.5743437-1.1973801-0.8612986-1.9495544-0.8612986
				c-0.7530365,0-1.400856,0.2869549-1.9434662,0.8612986c-0.5434723,0.5743446-0.8147736,1.2578182-0.8147736,2.0504227
				c0,0.7926035,0.2626038,1.4647732,0.7878189,2.0165091c0.5252151,0.5521708,1.1773834,0.8282557,1.9565125,0.8282557
				c0.7791214,0,1.4382477-0.2782593,1.976944-0.8347769C93.7355042,15.3573866,94.0050735,14.6830425,94.0050735,13.890439z"/>
			<path class="st0" d="M103.5545731,11.7534952l-0.7208633,0.4539108
				c-0.6234741-0.8278208-1.4782486-1.2421665-2.5643311-1.2421665c-0.8552094,0-1.5721664,0.2739115-2.1504211,0.8212996
				c-0.5791245,0.547822-0.8686905,1.2269487-0.8686905,2.0369434c0,0.8104305,0.2852173,1.505208,0.8547745,2.0839005
				c0.5699997,0.5786915,1.2912979,0.8678207,2.1643372,0.8678207c1.0417328,0,1.8965073-0.4139099,2.5643311-1.2421665
				l0.7208633,0.4808674c-0.3560791,0.5165176-0.8347778,0.9130383-1.4356384,1.1886883
				c-0.6008682,0.2760849-1.2486877,0.4143448-1.9434662,0.4143448c-1.0952148,0-2.0099869-0.3608665-2.7443314-1.0821667
				c-0.7347794-0.7208652-1.1021652-1.6025991-1.1021652-2.6443319s0.3717346-1.9343357,1.1152039-2.6778097
				c0.7434769-0.743474,1.6982574-1.1156454,2.8652039-1.1156454c0.6852112,0,1.3199921,0.1469555,1.9030304,0.4408674
				C102.7954483,10.8317623,103.2432709,11.2369766,103.5545731,11.7534952z"/>
			<path class="st0" d="M108.8301926,11.0587168l-0.5873871,0.6013012
				c-0.4899979-0.4721708-0.9665146-0.7082567-1.4291153-0.7082567c-0.3026123,0-0.5565186,0.0960865-0.7617416,0.2873898
				c-0.2043457,0.1917381-0.3069534,0.4273882-0.3069534,0.7078218c0,0.2804327,0.108696,0.5208664,0.3273926,0.7213001
				c0.2178268,0.2004328,0.5943451,0.4408665,1.1282501,0.7212992c0.5347824,0.2804337,0.9417343,0.5830402,1.2226028,0.9082556
				c0.2799988,0.3252153,0.420433,0.7234735,0.420433,1.1952105c0,0.5969524-0.206955,1.0999928-0.6212997,1.5095558
				c-0.4139099,0.4095631-0.9234695,0.6143436-1.5286865,0.6143436c-0.4008636,0-0.7860794-0.0891304-1.1556473-0.2673893
				c-0.3695602-0.1778259-0.6834717-0.4273891-0.9417343-0.7478218l0.5743484-0.6413002
				c0.4717331,0.5256481,0.9660797,0.7882557,1.4825974,0.7882557c0.3647842,0,0.6769562-0.1204338,0.9352112-0.3604317
				c0.2582626-0.2404346,0.3869553-0.5230408,0.3869553-0.8482561s-0.1130447-0.5921707-0.3404312-0.8013
				c-0.2269592-0.2091284-0.6056519-0.4478226-1.1352081-0.7147779c-0.5299988-0.2669544-0.9260864-0.558692-1.1886902-0.8747768
				c-0.2626114-0.3160849-0.3939133-0.7256479-0.3939133-1.2286882s0.1843491-0.9326029,0.5539093-1.2891226
				c0.3695679-0.3560848,0.8591232-0.5343447,1.4695587-0.5343447
				C107.5502014,10.0969839,108.1806335,10.4178514,108.8301926,11.0587168z"/>
		</g>
	</g>
	<g>
		<g>
			<rect x="1.778329" y="1.9105765" class="st15" width="1.9076253" height="5.3142996"/>
			<path class="st0" d="M0,0v15.9645243c0,0.8173952,0.6626185,1.4800425,1.4800128,1.4800425h9.9136391
				c0.8078232,0,1.4626818-0.6548882,1.4626818-1.4626818V0H0z M3.6859627,15.5421314H1.7783262V1.9105682h1.9076365V15.5421314z
				 M11.0780077,15.5421314H5.4095926v-1.9076071h5.6684151V15.5421314z"/>
		</g>
		<g>
			<path class="st0" d="M27.3556881,4.3611417c-0.3543549,0-0.6618443,0.1312256-0.9137783,0.3895617
				c-0.2498779,0.2560501-0.3765316,0.562396-0.3765316,0.9094353c0,0.3470397,0.1266537,0.6529284,0.3763027,0.9089785
				c0.2514782,0.2583361,0.5617104,0.3895617,0.9222374,0.3895617c0.3593845,0,0.6689301-0.1275678,0.9199524-0.3790455
				c0.2512474-0.2510204,0.3785877-0.5605669,0.3785877-0.9194946c0-0.3593845-0.1273403-0.668931-0.3785877-0.9199514
				C28.0328484,4.4887094,27.7205601,4.3611417,27.3556881,4.3611417z"/>
			<path class="st0" d="M62.8789902,11.4185238c0,1.1810312-0.0509796,1.9729586-0.1514587,2.3538332
				c-0.0975037,0.3699007-0.2781105,0.7247133-0.5366745,1.0557489c-0.2567368,0.3292074-0.5691414,0.5898304-0.928299,0.7745523
				c-0.7165947,0.3685293-1.5326424,0.3282928-2.0381126,0.1101933c-0.2485046-0.1074505-0.447403-0.2661095-0.6080055-0.4851236
				c-0.1662025-0.2263308-0.2945709-0.510272-0.3815613-0.8431368c-0.089386-0.3415527-0.1347656-1.0127697-0.1347656-1.9939909
				V7.7981577h-1.842762v4.9275942c0,1.2861948,0.1380844,2.2194061,0.4229393,2.8540449
				c0.2859993,0.6373816,0.7217407,1.1453676,1.2947693,1.5093241c0.5721092,0.3639565,1.2178383,0.5482216,1.9193459,0.5482216
				c1.1222763,0,2.1237297-0.4201965,2.9845848-1.2500744v1.0150566h1.8595657v-9.604167h-1.8595657V11.4185238z"/>
			<path class="st0" d="M49.6181068,7.5631404c-0.6760178,0-1.325058,0.1801496-1.9292908,0.535419
				c-0.4846687,0.2848558-0.9080658,0.6771612-1.2633362,1.1686859c-0.2437019-0.4782648-0.588913-0.8655405-1.0292282-1.1545115
				c-0.5562248-0.3648715-1.1833191-0.5495934-1.8634529-0.5495934c-1.0424881,0-1.9480362,0.3817887-2.6997261,1.1362224V7.7981577
				h-1.8426476v9.604167h1.8426476v-4.1233215c0-1.1138182,0.1010475-1.9148893,0.299942-2.3808098
				c0.1938667-0.4540319,0.4963264-0.8262186,0.899147-1.1065025c0.3991661-0.277997,0.8250771-0.419282,1.2658501-0.419282
				c0.4416847,0,0.7942123,0.1097355,1.0786095,0.3351517c0.2839432,0.2254152,0.462719,0.5066137,0.5459366,0.8595972
				c0.0905304,0.3827028,0.1362572,1.0301447,0.1362572,1.9240341v4.9111328h1.8261833v-3.8380089
				c0-1.1001015,0.086647-1.9368362,0.2576523-2.4873447c0.165062-0.5308466,0.449688-0.9386978,0.8703423-1.2468729
				c0.4151649-0.3036022,0.8621101-0.4576893,1.3284874-0.4576893c0.4634056,0,0.8374214,0.1101933,1.1122169,0.3269215
				c0.2798271,0.2208433,0.4560928,0.4842091,0.53862,0.8051863c0.0896187,0.3479538,0.1351128,0.9149218,0.1351128,1.6849012
				v5.2129068h1.876255v-5.2129068c0-1.7800055-0.3239517-2.9692669-0.9903679-3.6354551
				C51.3562775,7.8964624,50.5501747,7.5631404,49.6181068,7.5631404z"/>
			<path class="st0" d="M71.2351379,11.7559614c-0.6504059-0.3415527-1.1047821-0.6286945-1.3505478-0.8541098
				c-0.2139816-0.1956959-0.3180008-0.4133387-0.3180008-0.6652737c0-0.2528496,0.0907593-0.4599752,0.2773056-0.6332664
				c0.5131302-0.4764366,1.3882751-0.3145761,2.363205,0.5948591l0.1684952,0.1572876l1.2097244-1.2555599l-0.1665497-0.162775
				c-0.9350433-0.9117212-1.8445892-1.3739829-2.70327-1.3739829c-0.8582306,0-1.5615692,0.2587934-2.0904694,0.769979
				c-0.531189,0.5130148-0.8006134,1.1421671-0.8006134,1.8696241c0,0.7183113,0.1903229,1.3104277,0.5658264,1.7594299
				c0.3600693,0.4311705,0.892746,0.8257618,1.5828247,1.1737156c0.6433258,0.3246355,1.0992966,0.6085768,1.3553467,0.8435936
				c0.2253036,0.2071266,0.3349228,0.4576902,0.3349228,0.7663221c0,0.3090887-0.1235657,0.5738268-0.3775558,0.8088436
				c-0.2594833,0.2405043-0.5638809,0.3570986-0.9306946,0.3570986c-0.5514297,0-1.1119919-0.3278351-1.666275-0.9743624
				l-0.1738586-0.2030106l-1.1811447,1.3177443l0.1215057,0.1545429c0.7807236,0.9935665,1.773262,1.4974365,2.9500656,1.4974365
				c0.8539963,0,1.5835114-0.2935429,2.1679688-0.8723984c0.5856018-0.5793133,0.8825684-1.300827,0.8825684-2.1444206
				c0-0.6693878-0.2022095-1.2450438-0.6011429-1.711421C72.4734421,12.5305138,71.9285355,12.1199188,71.2351379,11.7559614z"/>
			<polygon class="st0" points="19.2914791,4.3611417 17.3647022,4.3611417 17.3647022,17.4023247 23.9182148,17.4023247 
				23.9182148,15.5427608 19.2914791,15.5427608 			"/>
			<rect x="26.4341354" y="7.7981577" class="st0" width="1.8597929" height="9.604167"/>
			<path class="st0" d="M34.4962883,4.3611417h-1.8595657v3.437016H31.0611v1.6748428h1.5756226v6.3541584
				c0,0.6305246,0.1522598,1.1060457,0.4526596,1.4128485c0.3013153,0.3081741,0.758091,0.4640903,1.3575249,0.4640903
				c0.2926292,0,0.7173958-0.0461807,1.2619591-0.1371689l0.1956978-0.0324631V15.911747h-1.0388336
				c-0.2350159,0-0.3289795-0.0237761-0.3436089-0.0150881c-0.008461-0.0242338-0.0258331-0.0937328-0.0258331-0.2537642V9.4730005
				h1.8106384V7.7981577h-1.8106384V4.3611417z"/>
		</g>
	</g>
</g>
</svg>
