<?xml version="1.0" encoding="utf-8"?>
<!-- Generator: Adobe Illustrator 22.1.0, SVG Export Plug-In . SVG Version: 6.00 Build 0)  -->
<svg version="1.1" id="Layer_1" xmlns="http://www.w3.org/2000/svg" xmlns:xlink="http://www.w3.org/1999/xlink" x="0px" y="0px"
	 viewBox="0 0 129.6 31.2" style="enable-background:new 0 0 129.6 31.2;" xml:space="preserve">
<style type="text/css">
	.st0{fill:#23232A;}
	.st1{fill:#FFFFFF;}
	.st2{fill:#14BBC4;}
	.st3{fill:#8AFFFF;}
	.st4{fill:#231F20;}
	.st5{fill:#1BE0E6;}
	.st6{fill:#262B3E;}
	.st7{fill:#F26D00;}
	.st8{fill:#744729;stroke:#FEFEFE;stroke-miterlimit:10;}
	.st9{fill:#2D1D0D;stroke:#FEFEFE;stroke-miterlimit:10;}
	.st10{fill:#060707;stroke:#FEFEFE;stroke-miterlimit:10;}
	.st11{fill:#FFFFFF;stroke:#FEFEFE;stroke-miterlimit:10;}
	.st12{fill:#4B3938;stroke:#FEFEFE;stroke-miterlimit:10;}
	.st13{fill:#C5875D;stroke:#FEFEFE;stroke-miterlimit:10;}
	.st14{fill:#663399;}
	.st15{fill:#F05A2B;}
	.st16{fill:#020202;}
	.st17{fill:#060707;}
	.st18{fill:#AF8070;}
	.st19{fill:#4B3938;}
	.st20{fill:#563A39;}
	.st21{opacity:0.27;fill:#F05A2B;enable-background:new    ;}
	.st22{fill:none;stroke:#262B3E;stroke-width:0.5;stroke-miterlimit:10;}
	.st23{fill:#6976F4;stroke:#6976F4;stroke-width:0.3;}
	.st24{fill:#6976F4;stroke:#6976F4;}
	.st25{fill:none;stroke:#FFFFFF;stroke-width:2;}
	.st26{fill:url(#Path_1_);}
	.st27{fill:#EFEDED;}
	.st28{fill:#6666FF;}
	.st29{clip-path:url(#Path_2_);}
	.st30{fill:#684FF1;}
	.st31{opacity:0.24;enable-background:new    ;}
	.st32{fill:#C48C62;}
	.st33{fill:#FEFEFE;}
	.st34{opacity:0.1;fill:#262B3E;}
	.st35{fill:#454745;}
	.st36{fill:#75451D;}
	.st37{fill:#684FF1;stroke:#21201F;stroke-width:0.75;}
	.st38{fill:#6466AD;}
	.st39{fill:#C5875D;}
	.st40{clip-path:url(#Path_3_);}
	.st41{fill:#6445FF;}
	.st42{fill:#744729;}
	.st43{fill:#7A5DFF;}
	.st44{fill:#F15A29;}
	.st45{fill:#348FC0;}
	.st46{fill:#51331A;}
	.st47{fill:#895F3D;}
	.st48{fill:#5333FF;}
	.st49{fill:#4C3520;}
	.st50{fill:#2D1D0D;}
	.st51{fill:#2B83FF;}
	.st52{fill:#212127;}
	.st53{fill:#579BFF;}
	.st54{fill:#626372;}
	.st55{fill:none;stroke:#F26D00;stroke-width:2;stroke-miterlimit:10;}
	.st56{opacity:0.4;fill:#F26D00;}
	.st57{fill:#744729;stroke:#FFFFFF;stroke-width:2;stroke-miterlimit:10;}
	.st58{fill:#C5875D;stroke:#FFFFFF;stroke-width:2;stroke-miterlimit:10;}
	.st59{fill:none;stroke:#5333FF;stroke-width:2;stroke-miterlimit:10;}
	.st60{fill:none;stroke:#262B3E;stroke-width:2;stroke-miterlimit:10;}
	.st61{fill:none;stroke:#FFFFFF;stroke-width:0.25;stroke-miterlimit:10;}
	.st62{fill:none;stroke:#262B3E;stroke-width:0.25;stroke-miterlimit:10;}
	.st63{stroke:#000000;}
	.st64{fill:#0063FF;stroke:#0063FF;stroke-miterlimit:10;}
	.st65{fill:#03A678;}
	.st66{fill:none;stroke:#000000;stroke-linecap:round;stroke-miterlimit:10;}
	.st67{fill:#0063FF;}
	.st68{fill:none;stroke:#23232A;stroke-width:1.3;stroke-linecap:round;stroke-miterlimit:10;}
	.st69{fill:none;stroke:#23232A;stroke-width:2;stroke-linecap:round;stroke-miterlimit:10;}
	.st70{fill:none;stroke:#FFFFFF;stroke-width:0.75;stroke-linecap:round;stroke-miterlimit:10;}
	.st71{fill:none;stroke:#FFFFFF;stroke-width:0.5;stroke-linecap:round;stroke-miterlimit:10;}
	.st72{fill:none;stroke:#23232A;stroke-width:0.5;stroke-linecap:round;stroke-miterlimit:10;}
	.st73{fill:#7D7E8D;}
	.st74{fill:#383842;}
	.st75{fill:#D1D2D9;}
	.st76{fill:url(#SVGID_1_);}
	.st77{fill:url(#SVGID_2_);}
	.st78{fill:url(#SVGID_4_);}
	.st79{fill:url(#SVGID_5_);}
	.st80{fill:url(#SVGID_6_);}
	.st81{fill:url(#SVGID_7_);}
	.st82{fill:url(#SVGID_8_);}
	.st83{fill:url(#SVGID_9_);}
	.st84{fill:url(#SVGID_10_);}
	.st85{fill:url(#SVGID_11_);}
	.st86{fill:url(#SVGID_12_);}
	.st87{fill:url(#SVGID_13_);}
	.st88{fill:url(#SVGID_14_);}
	.st89{fill:url(#SVGID_15_);}
	.st90{fill:url(#SVGID_16_);}
	.st91{fill:url(#SVGID_17_);}
	.st92{fill:url(#SVGID_18_);}
	.st93{fill:url(#SVGID_19_);}
	.st94{fill:url(#SVGID_20_);}
	.st95{fill:url(#SVGID_21_);}
	.st96{fill:url(#SVGID_22_);}
	.st97{fill:url(#SVGID_23_);}
	.st98{fill:url(#SVGID_24_);}
	.st99{fill:url(#SVGID_25_);}
	.st100{fill:url(#SVGID_26_);}
	.st101{fill:url(#SVGID_27_);}
	.st102{fill:url(#SVGID_28_);}
	.st103{fill:url(#SVGID_29_);}
	.st104{fill:url(#SVGID_30_);}
	.st105{fill:url(#SVGID_31_);}
	.st106{fill:url(#SVGID_32_);}
	.st107{fill:url(#SVGID_33_);}
	.st108{fill:url(#SVGID_34_);}
	.st109{fill:url(#SVGID_35_);}
	.st110{fill:url(#SVGID_36_);}
	.st111{fill:url(#SVGID_37_);}
	.st112{fill:url(#SVGID_38_);}
	.st113{enable-background:new    ;}
	.st114{stroke:#000000;stroke-miterlimit:10;}
	.st115{fill:#1BE0E6;stroke:#1BE0E6;stroke-width:0.5;stroke-miterlimit:10;}
	.st116{fill:#1BE0E6;stroke:#FFFFFF;stroke-linecap:round;stroke-linejoin:round;stroke-miterlimit:10;}
	.st117{fill:#1BE0E6;stroke:#23232A;stroke-linecap:round;stroke-linejoin:round;stroke-miterlimit:10;}
	.st118{fill:none;stroke:#23232A;stroke-width:2;stroke-miterlimit:10;}
	.st119{fill:none;stroke:#23232A;stroke-width:4;stroke-miterlimit:10;}
	.st120{fill:none;stroke:#FFFFFF;stroke-width:2;stroke-linecap:round;stroke-miterlimit:10;}
	.st121{fill:none;stroke:#FFFFFF;stroke-width:2;stroke-miterlimit:10;}
	.st122{fill:#FFFFFF;stroke:#FFFFFF;stroke-width:0.3;stroke-miterlimit:10;}
	.st123{fill:#23232A;stroke:#23232A;stroke-width:0.4;stroke-miterlimit:10;}
	.st124{fill:none;stroke:#FFFFFF;stroke-miterlimit:10;}
	.st125{fill:none;stroke:#23232A;stroke-miterlimit:10;}
	.st126{fill:none;stroke:#FFFFFF;stroke-width:0.75;stroke-miterlimit:10;}
</style>
<rect x="99.5" y="0.5" class="st2" width="3.7" height="11.5"/>
<rect x="99.5" y="7.6" class="st3" width="3.7" height="8.9"/>
<g>
	<path class="st2" d="M92.8,13.6h13.8c0,0,0.3,13.9-7.6,15C99,28.6,90.3,25.1,92.8,13.6z"/>
	<g>
		<polygon class="st1" points="15,25.8 4.3,25.8 4.3,0.5 0,0.5 0,30.2 15,30.2 		"/>
		<rect x="20.9" y="7.8" class="st1" width="4.2" height="22.1"/>
		<circle class="st1" cx="23" cy="2.9" r="2.9"/>
		<rect x="31.5" y="7.8" class="st1" width="12" height="3.8"/>
		<path class="st1" d="M39.4,0h-4.3v26c0,0,0,4.4,3.3,4.6c0,0,2,0.2,4.2-0.3v-3.7l-2.7,0c0,0-0.5,0-0.5-0.5L39.4,0z"/>
		<path class="st1" d="M49.9,7.8V30H54v-9.3c0,0-0.6-6.8,3.4-8.7c0,0,6.1-2.9,6.4,4.4V30H68V19.4c0,0-0.2-5.6,3.1-7.2
			c0,0,3.4-1.9,5.7,0.6c0,0,0.9,0.8,1,3.9V30h4.3V17.1c0,0,0.4-9.8-7.9-9.7c0,0-5.2-0.1-7.3,4c0,0-2.3-5.2-8.5-3.8
			c0,0-2.7,0.3-4.4,2.5V7.8H49.9z"/>
		<path class="st1" d="M89.7,7.9h4.2V19c0,0-0.6,7.8,4.5,7.5c0,0,5,0.5,6.4-5.7c0,0,0.2-1.5,0.2-2.8l0-10.2h4.2V30h-4.2l0-2.4
			c0,0-2,2.5-5.1,2.7c0,0-5.2,1.2-8.3-3c0,0-1.9-1.9-1.9-7.7V7.9z"/>
		<path class="st1" d="M126.9,14.2c0,0-2.2-2-3.8-2.3c0,0-1.5-0.3-2.3,0.7c0,0-1.1,1.1,0,2.6c0,0,0.5,0.6,2.1,1.5
			c0,0,3.3,1.6,4.4,2.8c0,0,2.7,2,2,5.8c0,0-0.2,3-3.3,4.7c0,0-2.4,1.7-6,0.7c0,0-2.6-0.4-4.7-3.4l2.6-3c0,0,1.6,2.5,4,2.7
			c2.5,0.1,3.2-2.1,3.2-2.1s0.8-2.2-2.5-3.6c-3.3-1.4-4.6-3-4.6-3s-2.5-2.1-1.3-6.5c0,0,1.3-3.9,6.1-4c0,0,3.1-0.4,6.7,3.6
			L126.9,14.2z"/>
	</g>
</g>
<path class="st3" d="M97.4,21.1L97.4,21.1c-0.2,0-0.3-0.1-0.3-0.3v0c0-0.2,0.1-0.3,0.3-0.3h0c0.2,0,0.3,0.1,0.3,0.3v0
	C97.7,21,97.6,21.1,97.4,21.1z"/>
<path class="st3" d="M98.6,23.8L98.6,23.8c-0.2,0-0.3-0.1-0.3-0.3v0c0-0.2,0.1-0.3,0.3-0.3h0c0.2,0,0.3,0.1,0.3,0.3v0
	C98.9,23.7,98.7,23.8,98.6,23.8z"/>
<path class="st3" d="M99.4,20.3L99.4,20.3c-0.2,0-0.3-0.1-0.3-0.3v0c0-0.2,0.1-0.3,0.3-0.3h0c0.2,0,0.3,0.1,0.3,0.3v0
	C99.7,20.1,99.5,20.3,99.4,20.3z"/>
<rect x="97.9" y="19.9" transform="matrix(0.7083 -0.7059 0.7059 0.7083 14.4716 74.9712)" class="st3" width="0.2" height="0.2"/>
<rect x="96.8" y="22.4" transform="matrix(0.7071 -0.7071 0.7071 0.7071 12.462 75.1031)" class="st3" width="0.2" height="0.2"/>
<rect x="98.9" y="22" transform="matrix(0.7071 -0.7071 0.7071 0.7071 13.3454 76.4474)" class="st3" width="0.1" height="0.1"/>
<rect x="94.8" y="19.9" transform="matrix(0.7071 -0.7071 0.7071 0.7071 13.6696 72.9384)" class="st3" width="0.2" height="0.2"/>
<rect x="95.4" y="18.9" transform="matrix(0.7071 -0.7071 0.7071 0.7071 14.567 73.0644)" class="st3" width="0.1" height="0.1"/>
<path class="st3" d="M101.6,22.6L101.6,22.6c-0.2,0-0.3-0.1-0.3-0.3v0c0-0.2,0.1-0.3,0.3-0.3h0c0.2,0,0.3,0.1,0.3,0.3v0
	C101.9,22.5,101.8,22.6,101.6,22.6z"/>
<rect x="99.9" y="21.2" transform="matrix(0.7071 -0.7071 0.7071 0.7071 14.2496 76.9116)" class="st3" width="0.2" height="0.2"/>
<rect x="102" y="20.8" transform="matrix(0.7071 -0.7071 0.7071 0.7071 15.133 78.2559)" class="st3" width="0.1" height="0.1"/>
<rect x="99.1" y="21" transform="matrix(0.7018 -0.7124 0.7124 0.7018 14.6009 76.8761)" class="st3" width="0.1" height="0.1"/>
</svg>
