<svg id="Layer_1" data-name="Layer 1" xmlns="http://www.w3.org/2000/svg" viewBox="0 0 129.5 31.02"><defs><style>.cls-1{fill:#1be0e6;}.cls-2{fill:#fff;}</style></defs><title>LITMUS_DOCS litmus LOGO</title><path class="cls-1" d="M92.8,13.6h13.8s.3,13.9-7.6,15C99,28.6,90.3,25.1,92.8,13.6Z"/><polygon class="cls-2" points="15 25.8 4.3 25.8 4.3 0.5 0 0.5 0 30.2 15 30.2 15 25.8"/><rect class="cls-2" x="20.9" y="7.8" width="4.2" height="22.1"/><circle class="cls-2" cx="23" cy="2.9" r="2.9"/><rect class="cls-2" x="31.5" y="7.8" width="12" height="3.8"/><path class="cls-2" d="M39.4,0H35.1V26s0,4.4,3.3,4.6a14.64,14.64,0,0,0,4.2-.3V26.6H39.9a.49.49,0,0,1-.5-.5Z"/><path class="cls-2" d="M49.9,7.8V30H54V20.7s-.6-6.8,3.4-8.7c0,0,6.1-2.9,6.4,4.4V30H68V19.4s-.2-5.6,3.1-7.2c0,0,3.4-1.9,5.7.6,0,0,.9.8,1,3.9V30h4.3V17.1s.4-9.8-7.9-9.7c0,0-5.2-.1-7.3,4a7.28,7.28,0,0,0-8.5-3.8A7.07,7.07,0,0,0,54,10.1V7.8Z"/><path class="cls-2" d="M89.7,7.9h4.2V19s-.6,7.8,4.5,7.5c0,0,5,.5,6.4-5.7A25,25,0,0,0,105,18V7.8h4.2V30H105V27.6a7.84,7.84,0,0,1-5.1,2.7s-5.2,1.2-8.3-3c0,0-1.9-1.9-1.9-7.7Z"/><path class="cls-2" d="M126.9,14.2s-2.2-2-3.8-2.3a2.54,2.54,0,0,0-2.3.7,2,2,0,0,0,0,2.6,8.14,8.14,0,0,0,2.1,1.5,20.48,20.48,0,0,1,4.4,2.8,6,6,0,0,1,2,5.8A6.24,6.24,0,0,1,126,30a7.41,7.41,0,0,1-6,.7,7.81,7.81,0,0,1-4.7-3.4l2.6-3s1.6,2.5,4,2.7a3.19,3.19,0,0,0,3.2-2.1s.8-2.2-2.5-3.6a12.44,12.44,0,0,1-4.6-3s-2.5-2.1-1.3-6.5a6.4,6.4,0,0,1,6.1-4s3.1-.4,6.7,3.6Z"/></svg>