<?xml version="1.0" encoding="utf-8"?>
<!-- Generator: Adobe Illustrator 23.0.2, SVG Export Plug-In . SVG Version: 6.00 Build 0)  -->
<svg version="1.1" id="Layer_1" xmlns="http://www.w3.org/2000/svg" xmlns:xlink="http://www.w3.org/1999/xlink" x="0px" y="0px"
	 viewBox="0 0 757.1 620" style="enable-background:new 0 0 757.1 620;" xml:space="preserve">
<style type="text/css">
	.st0{fill:none;stroke:#0063FF;stroke-miterlimit:10;stroke-dasharray:3;}
	.st1{fill:#0063FF;}
	.st2{fill:none;stroke:#000000;stroke-miterlimit:10;}
	.st3{fill:#FFFFFF;}
	.st4{fill:none;stroke:#0063FF;stroke-miterlimit:10;}
	.st5{fill:none;stroke:#000000;stroke-miterlimit:10;stroke-dasharray:3;}
	.st6{fill:#8AEDCA;}
	.st7{fill:#FFE6E6;}
	.st8{fill:none;stroke:#FFFFFF;stroke-miterlimit:10;}
</style>
<path class="st1" d="M438.5,206.5H309.2c-2,0-3.6-1.6-3.6-3.6v-69.3c0-2,1.6-3.6,3.6-3.6h129.3c2,0,3.6,1.6,3.6,3.6v69.3
	C442.2,204.8,440.5,206.5,438.5,206.5z"/>
<rect x="400.9" y="140" class="st6" width="34.7" height="44.5"/>
<path class="st1" d="M436.5,478H307.2c-2,0-3.6-1.6-3.6-3.6v-69.3c0-2,1.6-3.6,3.6-3.6h129.3c2,0,3.6,1.6,3.6,3.6v69.3
	C440.2,476.4,438.5,478,436.5,478z"/>
<rect x="399" y="411.6" class="st6" width="34.7" height="44.5"/>
<path class="st1" d="M434.1,351.9H329.7c-1.8,0-3.3-1.5-3.3-3.3v-70c0-1.8,1.5-3.3,3.3-3.3h104.4c1.8,0,3.3,1.5,3.3,3.3v70
	C437.4,350.4,435.9,351.9,434.1,351.9z"/>
<rect x="360.8" y="421.9" class="st3" width="22.8" height="21.9"/>
<path class="st1" d="M565.3,77.1h-69.3c-1.5,0-2.7-1.2-2.7-2.7V5.1c0-1.5,1.2-2.7,2.7-2.7h69.3c1.5,0,2.7,1.2,2.7,2.7v69.3
	C567.9,75.9,566.8,77.1,565.3,77.1z"/>
<g>
	<g>
		<g>
			<g>
				<g>
					<path d="M297.6,183.7c-2.3,1.1-5.2,3-7,5l1.4-5l-1.4-5C292.4,180.8,295.3,182.6,297.6,183.7z"/>
				</g>
			</g>
		</g>
	</g>
	<polyline class="st2" points="297.6,183.7 268.7,183.7 268.7,443.7 	"/>
</g>
<g>
	<g>
		<g>
			<g>
				<g>
					<path d="M297.6,311.6c-2.3,1.1-5.2,3-7,5l1.4-5l-1.4-5C292.4,308.6,295.3,310.5,297.6,311.6z"/>
				</g>
			</g>
		</g>
	</g>
	<polyline class="st2" points="247,311.6 268.7,311.6 297.6,311.6 	"/>
</g>
<g>
	<g>
		<g>
			<g>
				<g>
					<path d="M297.6,443.7c-2.3,1.1-5.2,3-7,5l1.4-5l-1.4-5C292.4,440.7,295.3,442.6,297.6,443.7z"/>
				</g>
			</g>
		</g>
	</g>
	<line class="st2" x1="297.6" y1="443.7" x2="268.7" y2="443.7"/>
</g>
<rect x="312.2" y="140" class="st7" width="34.7" height="44.5"/>
<rect x="356.1" y="140" class="st8" width="34.7" height="44.5"/>
<rect x="310.2" y="411.6" class="st7" width="34.7" height="44.5"/>
<rect x="335.2" y="285.5" class="st7" width="34.7" height="44.5"/>
<rect x="395.9" y="285.5" class="st6" width="34.7" height="44.5"/>
<g>
	<path class="st1" d="M412.4,312.1h-6v-10.7h6v1.1h-4.7v3.4h4.4v1.1h-4.4v3.9h4.7V312.1z"/>
	<path class="st1" d="M420.8,309.3c0,0.9-0.3,1.7-1,2.2s-1.6,0.8-2.8,0.8c-1.3,0-2.2-0.2-2.9-0.5v-1.2c0.4,0.2,0.9,0.3,1.4,0.4
		s1,0.2,1.5,0.2c0.8,0,1.5-0.2,1.9-0.5c0.4-0.3,0.6-0.8,0.6-1.3c0-0.4-0.1-0.7-0.2-0.9c-0.1-0.2-0.4-0.5-0.7-0.7
		c-0.3-0.2-0.9-0.4-1.6-0.7c-1-0.4-1.7-0.8-2.1-1.3c-0.4-0.5-0.6-1.1-0.6-1.9c0-0.8,0.3-1.5,0.9-2s1.4-0.7,2.5-0.7
		c1.1,0,2,0.2,2.9,0.6l-0.4,1.1c-0.9-0.4-1.7-0.6-2.6-0.6c-0.7,0-1.2,0.1-1.5,0.4s-0.6,0.7-0.6,1.2c0,0.4,0.1,0.7,0.2,0.9
		c0.1,0.2,0.4,0.5,0.7,0.7c0.3,0.2,0.8,0.4,1.5,0.7c1.1,0.4,1.9,0.8,2.3,1.3C420.6,307.9,420.8,308.5,420.8,309.3z"/>
</g>
<path class="st1" d="M565.3,189.5h-69.3c-1.5,0-2.7-1.2-2.7-2.7v-69.3c0-1.5,1.2-2.7,2.7-2.7h69.3c1.5,0,2.7,1.2,2.7,2.7v69.3
	C567.9,188.3,566.8,189.5,565.3,189.5z"/>
<rect x="517.3" y="129.9" class="st7" width="34.7" height="44.5"/>
<rect x="516.6" y="16.6" class="st7" width="34.7" height="44.5"/>
<path class="st1" d="M565.3,301.9h-69.3c-1.5,0-2.7-1.2-2.7-2.7v-69.3c0-1.5,1.2-2.7,2.7-2.7h69.3c1.5,0,2.7,1.2,2.7,2.7v69.3
	C567.9,300.7,566.8,301.9,565.3,301.9z"/>
<rect x="527.3" y="242.3" class="st7" width="34.7" height="44.5"/>
<rect x="500.3" y="265" class="st3" width="20.4" height="21.8"/>
<path class="st1" d="M240.6,337.1H128.8c-1.5,0-2.6-1.2-2.6-2.6v-41.7c0-1.5,1.2-2.6,2.6-2.6h111.7c1.5,0,2.6,1.2,2.6,2.6v41.7
	C243.2,335.9,242,337.1,240.6,337.1z"/>
<path class="st1" d="M745.6,177.5H633.9c-1.5,0-2.6-1.2-2.6-2.6v-41.7c0-1.5,1.2-2.6,2.6-2.6h111.7c1.5,0,2.6,1.2,2.6,2.6v41.7
	C748.3,176.3,747.1,177.5,745.6,177.5z"/>
<g>
	<path d="M9.6,437.7H8.4V427h6v1.1H9.6v3.9h4.4v1.1H9.6V437.7z"/>
	<path d="M19.9,437.7h-1.2v-7.6c0-0.6,0-1.2,0.1-1.8c-0.1,0.1-0.2,0.2-0.3,0.3s-0.7,0.6-1.7,1.4l-0.6-0.8l2.8-2.2h1V437.7z"/>
	<path d="M25.8,436l0.1,0.2c-0.1,0.5-0.3,1.1-0.5,1.7c-0.2,0.6-0.5,1.2-0.7,1.8h-0.9c0.1-0.5,0.3-1.1,0.4-1.9
		c0.2-0.7,0.3-1.3,0.3-1.8H25.8z"/>
	<path d="M33.5,437.7h-1.2V427h6v1.1h-4.7v3.9h4.4v1.1h-4.4V437.7z"/>
	<path d="M46.3,437.7h-7v-1l2.8-2.8c0.9-0.9,1.4-1.5,1.7-1.9s0.5-0.7,0.6-1.1s0.2-0.7,0.2-1.1c0-0.6-0.2-1-0.5-1.4
		c-0.3-0.3-0.8-0.5-1.4-0.5c-0.4,0-0.9,0.1-1.3,0.2c-0.4,0.1-0.8,0.4-1.3,0.8l-0.6-0.8c1-0.8,2.1-1.2,3.2-1.2c1,0,1.8,0.3,2.4,0.8
		c0.6,0.5,0.9,1.2,0.9,2.1c0,0.7-0.2,1.4-0.6,2s-1.1,1.5-2.1,2.5l-2.3,2.3v0.1h5.5V437.7z"/>
	<path d="M49.7,436l0.1,0.2c-0.1,0.5-0.3,1.1-0.5,1.7c-0.2,0.6-0.5,1.2-0.7,1.8h-0.9c0.1-0.5,0.3-1.1,0.4-1.9
		c0.2-0.7,0.3-1.3,0.3-1.8H49.7z"/>
	<path d="M57.4,437.7h-1.2V427h6v1.1h-4.7v3.9h4.4v1.1h-4.4V437.7z"/>
	<path d="M69.8,429.6c0,0.7-0.2,1.2-0.6,1.7s-0.9,0.7-1.6,0.9v0.1c0.9,0.1,1.5,0.4,1.9,0.8s0.6,1,0.6,1.7c0,1-0.4,1.8-1.1,2.4
		c-0.7,0.5-1.7,0.8-3,0.8c-0.6,0-1.1,0-1.6-0.1s-0.9-0.2-1.4-0.5v-1.2c0.5,0.2,1,0.4,1.5,0.5c0.5,0.1,1,0.2,1.5,0.2
		c1.9,0,2.8-0.7,2.8-2.2c0-1.3-1-1.9-3.1-1.9h-1.1v-1h1.1c0.8,0,1.5-0.2,2-0.6c0.5-0.4,0.7-0.9,0.7-1.5c0-0.5-0.2-0.9-0.5-1.2
		c-0.4-0.3-0.8-0.4-1.5-0.4c-0.5,0-0.9,0.1-1.3,0.2s-0.9,0.4-1.4,0.7l-0.6-0.8c0.4-0.3,0.9-0.6,1.5-0.8c0.6-0.2,1.2-0.3,1.8-0.3
		c1,0,1.8,0.2,2.4,0.7C69.5,428.1,69.8,428.7,69.8,429.6z"/>
	<path d="M76,430.5c0-0.7,0.3-1,0.9-1c0.6,0,0.9,0.3,0.9,1c0,0.3-0.1,0.6-0.2,0.7s-0.4,0.3-0.7,0.3c-0.2,0-0.5-0.1-0.6-0.2
		C76.1,431.1,76,430.8,76,430.5z M76,437c0-0.3,0.1-0.6,0.2-0.7c0.1-0.2,0.4-0.3,0.6-0.3c0.3,0,0.5,0.1,0.7,0.3
		c0.2,0.2,0.2,0.4,0.2,0.7c0,0.3-0.1,0.6-0.2,0.7s-0.4,0.3-0.7,0.3c-0.2,0-0.5-0.1-0.6-0.2C76.1,437.6,76,437.3,76,437z"/>
	<path d="M85.5,437.7h-1.2V427h6v1.1h-4.7v3.9h4.4v1.1h-4.4V437.7z"/>
	<path d="M93,437.7h-1.2v-11.4H93V437.7z"/>
	<path d="M96.7,429.7v5.2c0,0.7,0.1,1.1,0.4,1.5s0.8,0.5,1.4,0.5c0.8,0,1.5-0.2,1.8-0.7c0.4-0.5,0.6-1.2,0.6-2.2v-4.2h1.2v8h-1
		l-0.2-1.1H101c-0.2,0.4-0.6,0.7-1,0.9s-0.9,0.3-1.5,0.3c-1,0-1.7-0.2-2.2-0.7s-0.7-1.2-0.7-2.2v-5.3H96.7z"/>
	<path d="M108.2,437.9c-1.2,0-2.1-0.4-2.8-1.1s-1-1.7-1-3c0-1.3,0.3-2.3,1-3.1c0.6-0.8,1.5-1.1,2.6-1.1c1,0,1.8,0.3,2.4,1
		c0.6,0.7,0.9,1.5,0.9,2.6v0.8h-5.5c0,0.9,0.3,1.7,0.7,2.1c0.5,0.5,1.1,0.7,1.9,0.7c0.9,0,1.7-0.2,2.6-0.5v1.1
		c-0.4,0.2-0.8,0.3-1.2,0.4C109.2,437.8,108.7,437.9,108.2,437.9z M107.9,430.6c-0.6,0-1.2,0.2-1.5,0.6s-0.6,1-0.7,1.7h4.2
		c0-0.8-0.2-1.4-0.5-1.8C109,430.8,108.5,430.6,107.9,430.6z"/>
	<path d="M118.7,437.7v-5.2c0-0.7-0.1-1.1-0.4-1.5s-0.8-0.5-1.4-0.5c-0.8,0-1.5,0.2-1.8,0.7s-0.6,1.2-0.6,2.2v4.2h-1.2v-8h1l0.2,1.1
		h0.1c0.2-0.4,0.6-0.7,1-0.9c0.4-0.2,0.9-0.3,1.5-0.3c1,0,1.7,0.2,2.2,0.7c0.5,0.5,0.7,1.2,0.7,2.2v5.2H118.7z"/>
	<path d="M125,436.9c0.2,0,0.4,0,0.6,0c0.2,0,0.4-0.1,0.5-0.1v0.9c-0.1,0.1-0.3,0.1-0.6,0.2c-0.3,0-0.5,0.1-0.7,0.1
		c-1.6,0-2.3-0.8-2.3-2.5v-4.8h-1.1v-0.6l1.1-0.5l0.5-1.7h0.7v1.9h2.3v0.9h-2.3v4.7c0,0.5,0.1,0.9,0.3,1.1S124.6,436.9,125,436.9z"
		/>
	<path d="M133.2,436.7L133.2,436.7c-0.6,0.8-1.5,1.2-2.6,1.2c-1,0-1.9-0.4-2.4-1.1c-0.6-0.7-0.9-1.7-0.9-3.1s0.3-2.4,0.9-3.1
		c0.6-0.7,1.4-1.1,2.4-1.1c1.1,0,1.9,0.4,2.5,1.2h0.1l-0.1-0.6l0-0.6v-3.3h1.2v11.4h-1L133.2,436.7z M130.8,436.9
		c0.8,0,1.4-0.2,1.8-0.7c0.4-0.5,0.6-1.2,0.6-2.2v-0.3c0-1.1-0.2-1.9-0.6-2.4c-0.4-0.5-1-0.7-1.8-0.7c-0.7,0-1.3,0.3-1.6,0.8
		c-0.4,0.6-0.6,1.3-0.6,2.3c0,1,0.2,1.8,0.6,2.3S130,436.9,130.8,436.9z"/>
	<path d="M144.4,430.7h-2v7.1h-1.2v-7.1h-1.4v-0.5l1.4-0.4v-0.4c0-2,0.9-3,2.6-3c0.4,0,0.9,0.1,1.5,0.3l-0.3,1
		c-0.5-0.2-0.9-0.2-1.2-0.2c-0.5,0-0.8,0.2-1,0.5c-0.2,0.3-0.3,0.8-0.3,1.5v0.5h2V430.7z"/>
	<path d="M152.8,433.7c0,1.3-0.3,2.3-1,3.1c-0.7,0.7-1.6,1.1-2.7,1.1c-0.7,0-1.4-0.2-1.9-0.5s-1-0.8-1.3-1.5s-0.5-1.4-0.5-2.2
		c0-1.3,0.3-2.3,1-3.1c0.7-0.7,1.6-1.1,2.7-1.1c1.1,0,2,0.4,2.7,1.1C152.5,431.4,152.8,432.4,152.8,433.7z M146.7,433.7
		c0,1,0.2,1.8,0.6,2.3s1,0.8,1.8,0.8s1.4-0.3,1.8-0.8c0.4-0.5,0.6-1.3,0.6-2.3c0-1-0.2-1.8-0.6-2.3c-0.4-0.5-1-0.8-1.8-0.8
		c-0.8,0-1.4,0.3-1.8,0.8S146.7,432.7,146.7,433.7z"/>
	<path d="M158.6,429.6c0.4,0,0.7,0,1,0.1l-0.2,1.1c-0.3-0.1-0.6-0.1-0.9-0.1c-0.6,0-1.2,0.3-1.7,0.8c-0.5,0.5-0.7,1.2-0.7,2v4.3H155
		v-8h1l0.1,1.5h0.1c0.3-0.5,0.7-0.9,1.1-1.2S158.1,429.6,158.6,429.6z"/>
	<path d="M167.6,437.7l-1.5-4.7c-0.1-0.3-0.3-0.9-0.5-2h-0.1c-0.2,0.9-0.4,1.5-0.5,2l-1.5,4.7h-1.4l-2.2-8h1.3
		c0.5,2,0.9,3.6,1.2,4.6c0.3,1.1,0.4,1.8,0.5,2.1h0.1c0.1-0.3,0.1-0.6,0.3-1.1c0.1-0.4,0.2-0.8,0.3-1.1l1.5-4.6h1.3l1.4,4.6
		c0.3,0.8,0.5,1.5,0.6,2.1h0.1c0-0.2,0.1-0.4,0.2-0.8c0.1-0.4,0.6-2.3,1.5-5.9h1.3l-2.2,8H167.6z"/>
	<path d="M177.7,437.7l-0.2-1.1h-0.1c-0.4,0.5-0.8,0.8-1.2,1c-0.4,0.2-0.9,0.3-1.5,0.3c-0.8,0-1.4-0.2-1.9-0.6
		c-0.5-0.4-0.7-1-0.7-1.8c0-1.6,1.3-2.5,3.9-2.5l1.4,0v-0.5c0-0.6-0.1-1.1-0.4-1.4c-0.3-0.3-0.7-0.5-1.3-0.5c-0.7,0-1.4,0.2-2.3,0.6
		l-0.4-0.9c0.4-0.2,0.8-0.4,1.3-0.5c0.5-0.1,0.9-0.2,1.4-0.2c1,0,1.7,0.2,2.1,0.6c0.5,0.4,0.7,1.1,0.7,2v5.5H177.7z M174.9,436.9
		c0.8,0,1.4-0.2,1.8-0.6c0.4-0.4,0.6-1,0.6-1.7v-0.7l-1.2,0.1c-1,0-1.7,0.2-2.1,0.5c-0.4,0.3-0.6,0.7-0.6,1.2c0,0.4,0.1,0.8,0.4,1
		C174.1,436.8,174.5,436.9,174.9,436.9z"/>
	<path d="M184.8,429.6c0.4,0,0.7,0,1,0.1l-0.2,1.1c-0.3-0.1-0.6-0.1-0.9-0.1c-0.6,0-1.2,0.3-1.7,0.8c-0.5,0.5-0.7,1.2-0.7,2v4.3
		h-1.2v-8h1l0.1,1.5h0.1c0.3-0.5,0.7-0.9,1.1-1.2S184.3,429.6,184.8,429.6z"/>
	<path d="M192.7,436.7L192.7,436.7c-0.6,0.8-1.5,1.2-2.6,1.2c-1,0-1.9-0.4-2.4-1.1c-0.6-0.7-0.9-1.7-0.9-3.1s0.3-2.4,0.9-3.1
		s1.4-1.1,2.4-1.1c1.1,0,1.9,0.4,2.5,1.2h0.1l-0.1-0.6l0-0.6v-3.3h1.2v11.4h-1L192.7,436.7z M190.2,436.9c0.8,0,1.4-0.2,1.8-0.7
		c0.4-0.5,0.6-1.2,0.6-2.2v-0.3c0-1.1-0.2-1.9-0.6-2.4c-0.4-0.5-1-0.7-1.8-0.7c-0.7,0-1.3,0.3-1.6,0.8c-0.4,0.6-0.6,1.3-0.6,2.3
		c0,1,0.2,1.8,0.6,2.3S189.5,436.9,190.2,436.9z"/>
	<path d="M199.8,437.9c-1.2,0-2.1-0.4-2.8-1.1s-1-1.7-1-3c0-1.3,0.3-2.3,1-3.1c0.6-0.8,1.5-1.1,2.6-1.1c1,0,1.8,0.3,2.4,1
		c0.6,0.7,0.9,1.5,0.9,2.6v0.8h-5.5c0,0.9,0.3,1.7,0.7,2.1c0.5,0.5,1.1,0.7,1.9,0.7c0.9,0,1.7-0.2,2.6-0.5v1.1
		c-0.4,0.2-0.8,0.3-1.2,0.4C200.8,437.8,200.3,437.9,199.8,437.9z M199.5,430.6c-0.6,0-1.2,0.2-1.5,0.6s-0.6,1-0.7,1.7h4.2
		c0-0.8-0.2-1.4-0.5-1.8C200.6,430.8,200.1,430.6,199.5,430.6z"/>
	<path d="M208.5,429.6c0.4,0,0.7,0,1,0.1l-0.2,1.1c-0.3-0.1-0.6-0.1-0.9-0.1c-0.6,0-1.2,0.3-1.7,0.8c-0.5,0.5-0.7,1.2-0.7,2v4.3
		h-1.2v-8h1l0.1,1.5h0.1c0.3-0.5,0.7-0.9,1.1-1.2S208,429.6,208.5,429.6z"/>
	<path d="M216.1,435.6c0,0.7-0.3,1.3-0.8,1.7s-1.3,0.6-2.3,0.6c-1.1,0-1.9-0.2-2.5-0.5v-1.1c0.4,0.2,0.8,0.3,1.2,0.5
		c0.4,0.1,0.9,0.2,1.3,0.2c0.6,0,1.1-0.1,1.5-0.3c0.3-0.2,0.5-0.5,0.5-0.9c0-0.3-0.1-0.6-0.4-0.8c-0.3-0.2-0.8-0.5-1.6-0.8
		c-0.7-0.3-1.3-0.5-1.6-0.7c-0.3-0.2-0.5-0.4-0.7-0.7c-0.2-0.3-0.2-0.6-0.2-0.9c0-0.7,0.3-1.2,0.8-1.5c0.5-0.4,1.3-0.6,2.2-0.6
		c0.9,0,1.7,0.2,2.5,0.5l-0.4,1c-0.8-0.3-1.5-0.5-2.2-0.5c-0.6,0-1,0.1-1.3,0.3s-0.4,0.4-0.4,0.7c0,0.2,0.1,0.4,0.2,0.5
		c0.1,0.2,0.3,0.3,0.5,0.4s0.7,0.3,1.4,0.6c1,0.3,1.6,0.7,1.9,1C216,434.6,216.1,435,216.1,435.6z"/>
</g>
<path d="M28.9,454.6c0-0.7,0.3-1,0.9-1c0.6,0,0.9,0.3,0.9,1c0,0.3-0.1,0.6-0.2,0.7c-0.2,0.2-0.4,0.3-0.7,0.3c-0.2,0-0.5-0.1-0.6-0.2
	C28.9,455.2,28.9,454.9,28.9,454.6z M28.9,461c0-0.3,0.1-0.6,0.2-0.7c0.1-0.2,0.4-0.3,0.6-0.3c0.3,0,0.5,0.1,0.7,0.3
	c0.2,0.2,0.2,0.4,0.2,0.7c0,0.3-0.1,0.6-0.2,0.7S30,462,29.7,462c-0.2,0-0.5-0.1-0.6-0.2C28.9,461.6,28.9,461.4,28.9,461z"/>
<path d="M38.3,461.8h-1.2v-10.7h6v1.1h-4.7v3.9h4.4v1.1h-4.4V461.8z"/>
<path d="M45.9,461.8h-1.2v-11.4h1.2V461.8z"/>
<path d="M49.6,453.8v5.2c0,0.7,0.1,1.1,0.4,1.5s0.8,0.5,1.4,0.5c0.8,0,1.5-0.2,1.8-0.7c0.4-0.5,0.6-1.2,0.6-2.2v-4.2h1.2v8h-1
	l-0.2-1.1h-0.1c-0.2,0.4-0.6,0.7-1,0.9c-0.4,0.2-0.9,0.3-1.5,0.3c-1,0-1.7-0.2-2.2-0.7c-0.5-0.5-0.7-1.2-0.7-2.2v-5.3H49.6z"/>
<path d="M61.1,461.9c-1.2,0-2.1-0.4-2.8-1.1c-0.7-0.7-1-1.7-1-3c0-1.3,0.3-2.3,1-3.1c0.6-0.8,1.5-1.1,2.6-1.1c1,0,1.8,0.3,2.4,1
	c0.6,0.7,0.9,1.5,0.9,2.6v0.8h-5.5c0,0.9,0.3,1.7,0.7,2.1c0.5,0.5,1.1,0.7,1.9,0.7c0.9,0,1.7-0.2,2.6-0.5v1.1
	c-0.4,0.2-0.8,0.3-1.2,0.4C62.1,461.9,61.6,461.9,61.1,461.9z M60.7,454.6c-0.6,0-1.2,0.2-1.5,0.6c-0.4,0.4-0.6,1-0.7,1.7h4.2
	c0-0.8-0.2-1.4-0.5-1.8S61.4,454.6,60.7,454.6z"/>
<path d="M71.6,461.8v-5.2c0-0.7-0.1-1.1-0.4-1.5s-0.8-0.5-1.4-0.5c-0.8,0-1.5,0.2-1.8,0.7s-0.6,1.2-0.6,2.2v4.2h-1.2v-8h1l0.2,1.1
	h0.1c0.2-0.4,0.6-0.7,1-0.9s1-0.3,1.5-0.3c1,0,1.7,0.2,2.2,0.7c0.5,0.5,0.7,1.2,0.7,2.2v5.2H71.6z"/>
<path d="M77.9,460.9c0.2,0,0.4,0,0.6,0s0.4-0.1,0.5-0.1v0.9c-0.1,0.1-0.3,0.1-0.6,0.2c-0.3,0-0.5,0.1-0.7,0.1
	c-1.6,0-2.3-0.8-2.3-2.5v-4.8h-1.1v-0.6l1.1-0.5l0.5-1.7h0.7v1.9h2.3v0.9h-2.3v4.7c0,0.5,0.1,0.9,0.3,1.1S77.5,460.9,77.9,460.9z"/>
<path d="M84,461.9c-1.2,0-2.1-0.4-2.8-1.1c-0.7-0.7-1-1.7-1-3c0-1.3,0.3-2.3,1-3.1c0.6-0.8,1.5-1.1,2.6-1.1c1,0,1.8,0.3,2.4,1
	c0.6,0.7,0.9,1.5,0.9,2.6v0.8h-5.5c0,0.9,0.3,1.7,0.7,2.1c0.5,0.5,1.1,0.7,1.9,0.7c0.9,0,1.7-0.2,2.6-0.5v1.1
	c-0.4,0.2-0.8,0.3-1.2,0.4C85,461.9,84.5,461.9,84,461.9z M83.6,454.6c-0.6,0-1.2,0.2-1.5,0.6c-0.4,0.4-0.6,1-0.7,1.7h4.2
	c0-0.8-0.2-1.4-0.5-1.8S84.3,454.6,83.6,454.6z"/>
<path d="M94.5,460.7L94.5,460.7c-0.6,0.8-1.5,1.2-2.6,1.2c-1,0-1.9-0.4-2.5-1.1c-0.6-0.7-0.9-1.7-0.9-3.1c0-1.3,0.3-2.4,0.9-3.1
	s1.4-1.1,2.4-1.1c1.1,0,1.9,0.4,2.5,1.2h0.1l-0.1-0.6l0-0.6v-3.3h1.2v11.4h-1L94.5,460.7z M92,460.9c0.8,0,1.4-0.2,1.8-0.7
	c0.4-0.5,0.6-1.2,0.6-2.2v-0.3c0-1.1-0.2-1.9-0.6-2.4c-0.4-0.5-1-0.7-1.8-0.7c-0.7,0-1.3,0.3-1.6,0.8c-0.4,0.6-0.6,1.3-0.6,2.3
	c0,1,0.2,1.8,0.6,2.3S91.3,460.9,92,460.9z"/>
<path d="M107,461.8l-0.2-1.1h-0.1c-0.4,0.5-0.8,0.8-1.2,1c-0.4,0.2-0.9,0.3-1.5,0.3c-0.8,0-1.4-0.2-1.9-0.6c-0.5-0.4-0.7-1-0.7-1.8
	c0-1.6,1.3-2.5,3.9-2.5l1.4,0v-0.5c0-0.6-0.1-1.1-0.4-1.4c-0.3-0.3-0.7-0.5-1.3-0.5c-0.7,0-1.4,0.2-2.3,0.6l-0.4-0.9
	c0.4-0.2,0.8-0.4,1.3-0.5c0.5-0.1,0.9-0.2,1.4-0.2c1,0,1.7,0.2,2.1,0.6c0.5,0.4,0.7,1.1,0.7,2v5.5H107z M104.3,460.9
	c0.8,0,1.4-0.2,1.8-0.6c0.4-0.4,0.6-1,0.6-1.7v-0.7l-1.2,0.1c-1,0-1.7,0.2-2.1,0.5c-0.4,0.3-0.6,0.7-0.6,1.2c0,0.4,0.1,0.8,0.4,1
	C103.4,460.8,103.8,460.9,104.3,460.9z"/>
<path d="M117,453.8v0.8l-1.5,0.2c0.1,0.2,0.3,0.4,0.4,0.7s0.2,0.6,0.2,0.9c0,0.8-0.3,1.4-0.8,1.9s-1.3,0.7-2.2,0.7
	c-0.2,0-0.5,0-0.7-0.1c-0.5,0.3-0.8,0.6-0.8,1c0,0.2,0.1,0.4,0.3,0.5s0.5,0.2,0.9,0.2h1.4c0.9,0,1.5,0.2,2,0.5
	c0.5,0.4,0.7,0.9,0.7,1.6c0,0.9-0.4,1.6-1.1,2c-0.7,0.5-1.8,0.7-3.1,0.7c-1,0-1.9-0.2-2.4-0.6c-0.6-0.4-0.9-0.9-0.9-1.7
	c0-0.5,0.2-0.9,0.5-1.3c0.3-0.4,0.8-0.6,1.3-0.7c-0.2-0.1-0.4-0.2-0.5-0.4c-0.1-0.2-0.2-0.4-0.2-0.7c0-0.3,0.1-0.5,0.2-0.8
	c0.2-0.2,0.4-0.4,0.7-0.6c-0.4-0.2-0.8-0.5-1-0.9c-0.3-0.4-0.4-0.9-0.4-1.4c0-0.9,0.3-1.6,0.8-2c0.5-0.5,1.3-0.7,2.2-0.7
	c0.4,0,0.8,0,1.1,0.1H117z M110.6,463.1c0,0.4,0.2,0.8,0.5,1s0.9,0.3,1.6,0.3c1,0,1.8-0.2,2.3-0.5c0.5-0.3,0.7-0.7,0.7-1.2
	c0-0.4-0.1-0.7-0.4-0.9c-0.3-0.2-0.8-0.3-1.5-0.3h-1.5c-0.6,0-1,0.1-1.3,0.4S110.6,462.7,110.6,463.1z M111.3,456.3
	c0,0.6,0.2,1,0.5,1.3c0.3,0.3,0.8,0.4,1.3,0.4c1.2,0,1.8-0.6,1.8-1.7c0-1.2-0.6-1.8-1.8-1.8c-0.6,0-1,0.2-1.3,0.5
	S111.3,455.7,111.3,456.3z"/>
<path d="M125.2,453.8v0.8l-1.5,0.2c0.1,0.2,0.3,0.4,0.4,0.7s0.2,0.6,0.2,0.9c0,0.8-0.3,1.4-0.8,1.9s-1.3,0.7-2.2,0.7
	c-0.2,0-0.5,0-0.7-0.1c-0.5,0.3-0.8,0.6-0.8,1c0,0.2,0.1,0.4,0.3,0.5s0.5,0.2,0.9,0.2h1.4c0.9,0,1.5,0.2,2,0.5
	c0.5,0.4,0.7,0.9,0.7,1.6c0,0.9-0.4,1.6-1.1,2c-0.7,0.5-1.8,0.7-3.1,0.7c-1,0-1.9-0.2-2.4-0.6c-0.6-0.4-0.9-0.9-0.9-1.7
	c0-0.5,0.2-0.9,0.5-1.3c0.3-0.4,0.8-0.6,1.3-0.7c-0.2-0.1-0.4-0.2-0.5-0.4c-0.1-0.2-0.2-0.4-0.2-0.7c0-0.3,0.1-0.5,0.2-0.8
	c0.2-0.2,0.4-0.4,0.7-0.6c-0.4-0.2-0.8-0.5-1-0.9c-0.3-0.4-0.4-0.9-0.4-1.4c0-0.9,0.3-1.6,0.8-2c0.5-0.5,1.3-0.7,2.2-0.7
	c0.4,0,0.8,0,1.1,0.1H125.2z M118.8,463.1c0,0.4,0.2,0.8,0.5,1s0.9,0.3,1.6,0.3c1,0,1.8-0.2,2.3-0.5c0.5-0.3,0.7-0.7,0.7-1.2
	c0-0.4-0.1-0.7-0.4-0.9c-0.3-0.2-0.8-0.3-1.5-0.3h-1.5c-0.6,0-1,0.1-1.3,0.4S118.8,462.7,118.8,463.1z M119.5,456.3
	c0,0.6,0.2,1,0.5,1.3c0.3,0.3,0.8,0.4,1.3,0.4c1.2,0,1.8-0.6,1.8-1.7c0-1.2-0.6-1.8-1.8-1.8c-0.6,0-1,0.2-1.3,0.5
	S119.5,455.7,119.5,456.3z"/>
<path d="M130.5,453.6c0.4,0,0.7,0,1,0.1l-0.2,1.1c-0.3-0.1-0.6-0.1-0.9-0.1c-0.6,0-1.2,0.3-1.7,0.8c-0.5,0.5-0.7,1.2-0.7,2v4.3h-1.2
	v-8h1l0.1,1.5h0.1c0.3-0.5,0.7-0.9,1.1-1.2S130,453.6,130.5,453.6z"/>
<path d="M136.4,461.9c-1.2,0-2.1-0.4-2.8-1.1c-0.7-0.7-1-1.7-1-3c0-1.3,0.3-2.3,1-3.1c0.6-0.8,1.5-1.1,2.6-1.1c1,0,1.8,0.3,2.4,1
	c0.6,0.7,0.9,1.5,0.9,2.6v0.8h-5.5c0,0.9,0.3,1.7,0.7,2.1c0.5,0.5,1.1,0.7,1.9,0.7c0.9,0,1.7-0.2,2.6-0.5v1.1
	c-0.4,0.2-0.8,0.3-1.2,0.4C137.4,461.9,136.9,461.9,136.4,461.9z M136,454.6c-0.6,0-1.2,0.2-1.5,0.6c-0.4,0.4-0.6,1-0.7,1.7h4.2
	c0-0.8-0.2-1.4-0.5-1.8S136.7,454.6,136,454.6z"/>
<path d="M148,453.8v0.8l-1.5,0.2c0.1,0.2,0.3,0.4,0.4,0.7s0.2,0.6,0.2,0.9c0,0.8-0.3,1.4-0.8,1.9s-1.3,0.7-2.2,0.7
	c-0.2,0-0.5,0-0.7-0.1c-0.5,0.3-0.8,0.6-0.8,1c0,0.2,0.1,0.4,0.3,0.5s0.5,0.2,0.9,0.2h1.4c0.9,0,1.5,0.2,2,0.5
	c0.5,0.4,0.7,0.9,0.7,1.6c0,0.9-0.4,1.6-1.1,2c-0.7,0.5-1.8,0.7-3.1,0.7c-1,0-1.9-0.2-2.4-0.6c-0.6-0.4-0.9-0.9-0.9-1.7
	c0-0.5,0.2-0.9,0.5-1.3c0.3-0.4,0.8-0.6,1.3-0.7c-0.2-0.1-0.4-0.2-0.5-0.4c-0.1-0.2-0.2-0.4-0.2-0.7c0-0.3,0.1-0.5,0.2-0.8
	c0.2-0.2,0.4-0.4,0.7-0.6c-0.4-0.2-0.8-0.5-1-0.9c-0.3-0.4-0.4-0.9-0.4-1.4c0-0.9,0.3-1.6,0.8-2c0.5-0.5,1.3-0.7,2.2-0.7
	c0.4,0,0.8,0,1.1,0.1H148z M141.6,463.1c0,0.4,0.2,0.8,0.5,1s0.9,0.3,1.6,0.3c1,0,1.8-0.2,2.3-0.5c0.5-0.3,0.7-0.7,0.7-1.2
	c0-0.4-0.1-0.7-0.4-0.9c-0.3-0.2-0.8-0.3-1.5-0.3h-1.5c-0.6,0-1,0.1-1.3,0.4S141.6,462.7,141.6,463.1z M142.2,456.3
	c0,0.6,0.2,1,0.5,1.3c0.3,0.3,0.8,0.4,1.3,0.4c1.2,0,1.8-0.6,1.8-1.7c0-1.2-0.6-1.8-1.8-1.8c-0.6,0-1,0.2-1.3,0.5
	S142.2,455.7,142.2,456.3z"/>
<path d="M154.6,461.8l-0.2-1.1h-0.1c-0.4,0.5-0.8,0.8-1.2,1c-0.4,0.2-0.9,0.3-1.5,0.3c-0.8,0-1.4-0.2-1.9-0.6
	c-0.5-0.4-0.7-1-0.7-1.8c0-1.6,1.3-2.5,3.9-2.5l1.4,0v-0.5c0-0.6-0.1-1.1-0.4-1.4c-0.3-0.3-0.7-0.5-1.3-0.5c-0.7,0-1.4,0.2-2.3,0.6
	l-0.4-0.9c0.4-0.2,0.8-0.4,1.3-0.5c0.5-0.1,0.9-0.2,1.4-0.2c1,0,1.7,0.2,2.1,0.6c0.5,0.4,0.7,1.1,0.7,2v5.5H154.6z M151.8,460.9
	c0.8,0,1.4-0.2,1.8-0.6c0.4-0.4,0.6-1,0.6-1.7v-0.7l-1.2,0.1c-1,0-1.7,0.2-2.1,0.5c-0.4,0.3-0.6,0.7-0.6,1.2c0,0.4,0.1,0.8,0.4,1
	C151,460.8,151.3,460.9,151.8,460.9z"/>
<path d="M160.5,460.9c0.2,0,0.4,0,0.6,0s0.4-0.1,0.5-0.1v0.9c-0.1,0.1-0.3,0.1-0.6,0.2c-0.3,0-0.5,0.1-0.7,0.1
	c-1.6,0-2.3-0.8-2.3-2.5v-4.8h-1.1v-0.6l1.1-0.5l0.5-1.7h0.7v1.9h2.3v0.9h-2.3v4.7c0,0.5,0.1,0.9,0.3,1.1S160.1,460.9,160.5,460.9z"
	/>
<path d="M170.2,457.8c0,1.3-0.3,2.3-1,3.1c-0.7,0.7-1.6,1.1-2.7,1.1c-0.7,0-1.4-0.2-1.9-0.5c-0.6-0.3-1-0.8-1.3-1.5
	c-0.3-0.6-0.5-1.4-0.5-2.2c0-1.3,0.3-2.3,1-3.1c0.7-0.7,1.6-1.1,2.7-1.1c1.1,0,2,0.4,2.7,1.1C169.9,455.5,170.2,456.5,170.2,457.8z
	 M164.1,457.8c0,1,0.2,1.8,0.6,2.3s1,0.8,1.8,0.8s1.4-0.3,1.8-0.8c0.4-0.5,0.6-1.3,0.6-2.3c0-1-0.2-1.8-0.6-2.3
	c-0.4-0.5-1-0.8-1.8-0.8c-0.8,0-1.4,0.3-1.8,0.8S164.1,456.7,164.1,457.8z"/>
<path d="M176,453.6c0.4,0,0.7,0,1,0.1l-0.2,1.1c-0.3-0.1-0.6-0.1-0.9-0.1c-0.6,0-1.2,0.3-1.7,0.8c-0.5,0.5-0.7,1.2-0.7,2v4.3h-1.2
	v-8h1l0.1,1.5h0.1c0.3-0.5,0.7-0.9,1.1-1.2S175.5,453.6,176,453.6z"/>
<g>
	<path d="M14.3,485.8h-6v-10.7h6v1.1H9.6v3.4h4.4v1.1H9.6v3.9h4.7V485.8z"/>
	<path d="M21.7,483.7c0,0.7-0.3,1.3-0.8,1.7s-1.3,0.6-2.3,0.6c-1.1,0-1.9-0.2-2.5-0.5v-1.1c0.4,0.2,0.8,0.3,1.2,0.5
		c0.4,0.1,0.9,0.2,1.3,0.2c0.6,0,1.1-0.1,1.5-0.3c0.3-0.2,0.5-0.5,0.5-0.9c0-0.3-0.1-0.6-0.4-0.8c-0.3-0.2-0.8-0.5-1.6-0.8
		c-0.7-0.3-1.3-0.5-1.6-0.7c-0.3-0.2-0.5-0.4-0.7-0.7c-0.2-0.3-0.2-0.6-0.2-0.9c0-0.7,0.3-1.2,0.8-1.5c0.5-0.4,1.3-0.6,2.2-0.6
		c0.9,0,1.7,0.2,2.5,0.5l-0.4,1c-0.8-0.3-1.5-0.5-2.2-0.5c-0.6,0-1,0.1-1.3,0.3s-0.4,0.4-0.4,0.7c0,0.2,0.1,0.4,0.2,0.5
		c0.1,0.2,0.3,0.3,0.5,0.4s0.7,0.3,1.4,0.6c1,0.3,1.6,0.7,1.9,1C21.5,482.7,21.7,483.1,21.7,483.7z"/>
	<path d="M27.4,478.6c0-0.7,0.3-1,0.9-1c0.6,0,0.9,0.3,0.9,1c0,0.3-0.1,0.6-0.2,0.7s-0.4,0.3-0.7,0.3c-0.2,0-0.5-0.1-0.6-0.2
		C27.5,479.2,27.4,479,27.4,478.6z M27.4,485.1c0-0.3,0.1-0.6,0.2-0.7c0.1-0.2,0.4-0.3,0.6-0.3c0.3,0,0.5,0.1,0.7,0.3
		c0.2,0.2,0.2,0.4,0.2,0.7c0,0.3-0.1,0.6-0.2,0.7s-0.4,0.3-0.7,0.3c-0.2,0-0.5-0.1-0.6-0.2C27.5,485.7,27.4,485.4,27.4,485.1z"/>
	<path d="M41.6,485.8h-6v-10.7h6v1.1h-4.7v3.4h4.4v1.1h-4.4v3.9h4.7V485.8z"/>
	<path d="M45,485.8h-1.2v-11.4H45V485.8z"/>
	<path d="M52.5,485.8l-0.2-1.1h-0.1c-0.4,0.5-0.8,0.8-1.2,1c-0.4,0.2-0.9,0.3-1.5,0.3c-0.8,0-1.4-0.2-1.9-0.6
		c-0.5-0.4-0.7-1-0.7-1.8c0-1.6,1.3-2.5,3.9-2.5l1.4,0v-0.5c0-0.6-0.1-1.1-0.4-1.4c-0.3-0.3-0.7-0.5-1.3-0.5c-0.7,0-1.4,0.2-2.3,0.6
		l-0.4-0.9c0.4-0.2,0.8-0.4,1.3-0.5c0.5-0.1,0.9-0.2,1.4-0.2c1,0,1.7,0.2,2.1,0.6c0.5,0.4,0.7,1.1,0.7,2v5.5H52.5z M49.8,485
		c0.8,0,1.4-0.2,1.8-0.6c0.4-0.4,0.6-1,0.6-1.7v-0.7L51,482c-1,0-1.7,0.2-2.1,0.5c-0.4,0.3-0.6,0.7-0.6,1.2c0,0.4,0.1,0.8,0.4,1
		C48.9,484.9,49.3,485,49.8,485z"/>
	<path d="M61.1,483.7c0,0.7-0.3,1.3-0.8,1.7S59,486,57.9,486c-1.1,0-1.9-0.2-2.5-0.5v-1.1c0.4,0.2,0.8,0.3,1.2,0.5
		c0.4,0.1,0.9,0.2,1.3,0.2c0.6,0,1.1-0.1,1.5-0.3c0.3-0.2,0.5-0.5,0.5-0.9c0-0.3-0.1-0.6-0.4-0.8c-0.3-0.2-0.8-0.5-1.6-0.8
		c-0.7-0.3-1.3-0.5-1.6-0.7c-0.3-0.2-0.5-0.4-0.7-0.7c-0.2-0.3-0.2-0.6-0.2-0.9c0-0.7,0.3-1.2,0.8-1.5c0.5-0.4,1.3-0.6,2.2-0.6
		c0.9,0,1.7,0.2,2.5,0.5l-0.4,1c-0.8-0.3-1.5-0.5-2.2-0.5c-0.6,0-1,0.1-1.3,0.3s-0.4,0.4-0.4,0.7c0,0.2,0.1,0.4,0.2,0.5
		c0.1,0.2,0.3,0.3,0.5,0.4s0.7,0.3,1.4,0.6c1,0.3,1.6,0.7,1.9,1C61,482.7,61.1,483.1,61.1,483.7z"/>
	<path d="M65.7,485c0.2,0,0.4,0,0.6,0c0.2,0,0.4-0.1,0.5-0.1v0.9c-0.1,0.1-0.3,0.1-0.6,0.2c-0.3,0-0.5,0.1-0.7,0.1
		c-1.6,0-2.3-0.8-2.3-2.5v-4.8H62v-0.6l1.2-0.5l0.5-1.7h0.7v1.9h2.3v0.9h-2.3v4.7c0,0.5,0.1,0.9,0.3,1.1S65.3,485,65.7,485z"/>
	<path d="M68.3,475.6c0-0.3,0.1-0.5,0.2-0.6c0.1-0.1,0.3-0.2,0.5-0.2c0.2,0,0.4,0.1,0.5,0.2s0.2,0.3,0.2,0.6s-0.1,0.5-0.2,0.6
		c-0.1,0.1-0.3,0.2-0.5,0.2c-0.2,0-0.4-0.1-0.5-0.2C68.4,476.1,68.3,475.9,68.3,475.6z M69.6,485.8h-1.2v-8h1.2V485.8z"/>
	<path d="M75.4,486c-1.2,0-2.1-0.4-2.7-1.1c-0.6-0.7-1-1.7-1-3c0-1.3,0.3-2.4,1-3.1c0.6-0.7,1.6-1.1,2.8-1.1c0.4,0,0.8,0,1.2,0.1
		s0.7,0.2,0.9,0.3l-0.4,1c-0.3-0.1-0.6-0.2-0.9-0.3c-0.3-0.1-0.6-0.1-0.8-0.1c-1.6,0-2.4,1-2.4,3.1c0,1,0.2,1.7,0.6,2.3
		c0.4,0.5,1,0.8,1.8,0.8c0.7,0,1.4-0.1,2.1-0.4v1.1C76.9,485.9,76.2,486,75.4,486z"/>
	<path d="M84.5,483.7c0,0.7-0.3,1.3-0.8,1.7s-1.3,0.6-2.3,0.6c-1.1,0-1.9-0.2-2.5-0.5v-1.1c0.4,0.2,0.8,0.3,1.2,0.5
		c0.4,0.1,0.9,0.2,1.3,0.2c0.6,0,1.1-0.1,1.5-0.3c0.3-0.2,0.5-0.5,0.5-0.9c0-0.3-0.1-0.6-0.4-0.8c-0.3-0.2-0.8-0.5-1.6-0.8
		c-0.7-0.3-1.3-0.5-1.6-0.7c-0.3-0.2-0.5-0.4-0.7-0.7c-0.2-0.3-0.2-0.6-0.2-0.9c0-0.7,0.3-1.2,0.8-1.5c0.5-0.4,1.3-0.6,2.2-0.6
		c0.9,0,1.7,0.2,2.5,0.5l-0.4,1c-0.8-0.3-1.5-0.5-2.2-0.5c-0.6,0-1,0.1-1.3,0.3s-0.4,0.4-0.4,0.7c0,0.2,0.1,0.4,0.2,0.5
		c0.1,0.2,0.3,0.3,0.5,0.4s0.7,0.3,1.4,0.6c1,0.3,1.6,0.7,1.9,1C84.3,482.7,84.5,483.1,84.5,483.7z"/>
	<path d="M89.9,486c-1.2,0-2.1-0.4-2.8-1.1c-0.7-0.7-1-1.7-1-3c0-1.3,0.3-2.3,1-3.1c0.6-0.8,1.5-1.1,2.6-1.1c1,0,1.8,0.3,2.4,1
		c0.6,0.7,0.9,1.5,0.9,2.6v0.8h-5.5c0,0.9,0.3,1.7,0.7,2.1c0.5,0.5,1.1,0.7,1.9,0.7c0.9,0,1.7-0.2,2.6-0.5v1.1
		c-0.4,0.2-0.8,0.3-1.2,0.4C90.9,486,90.4,486,89.9,486z M89.5,478.7c-0.6,0-1.2,0.2-1.5,0.6c-0.4,0.4-0.6,1-0.7,1.7h4.2
		c0-0.8-0.2-1.4-0.5-1.8C90.7,478.9,90.2,478.7,89.5,478.7z"/>
	<path d="M99.8,485.8l-0.2-1.1h-0.1c-0.4,0.5-0.8,0.8-1.2,1c-0.4,0.2-0.9,0.3-1.5,0.3c-0.8,0-1.4-0.2-1.9-0.6
		c-0.5-0.4-0.7-1-0.7-1.8c0-1.6,1.3-2.5,3.9-2.5l1.4,0v-0.5c0-0.6-0.1-1.1-0.4-1.4c-0.3-0.3-0.7-0.5-1.3-0.5c-0.7,0-1.4,0.2-2.3,0.6
		l-0.4-0.9c0.4-0.2,0.8-0.4,1.3-0.5c0.5-0.1,0.9-0.2,1.4-0.2c1,0,1.7,0.2,2.1,0.6c0.5,0.4,0.7,1.1,0.7,2v5.5H99.8z M97.1,485
		c0.8,0,1.4-0.2,1.8-0.6c0.4-0.4,0.6-1,0.6-1.7v-0.7l-1.2,0.1c-1,0-1.7,0.2-2.1,0.5c-0.4,0.3-0.6,0.7-0.6,1.2c0,0.4,0.1,0.8,0.4,1
		C96.2,484.9,96.6,485,97.1,485z"/>
	<path d="M106.9,477.7c0.4,0,0.7,0,1,0.1l-0.2,1.1c-0.3-0.1-0.6-0.1-0.9-0.1c-0.6,0-1.2,0.3-1.7,0.8c-0.5,0.5-0.7,1.2-0.7,2v4.3
		h-1.2v-8h1l0.1,1.5h0.1c0.3-0.5,0.7-0.9,1.1-1.2S106.4,477.7,106.9,477.7z"/>
	<path d="M112.6,486c-1.2,0-2.1-0.4-2.7-1.1c-0.6-0.7-1-1.7-1-3c0-1.3,0.3-2.4,1-3.1c0.6-0.7,1.6-1.1,2.8-1.1c0.4,0,0.8,0,1.2,0.1
		s0.7,0.2,0.9,0.3l-0.4,1c-0.3-0.1-0.6-0.2-0.9-0.3c-0.3-0.1-0.6-0.1-0.8-0.1c-1.6,0-2.4,1-2.4,3.1c0,1,0.2,1.7,0.6,2.3
		c0.4,0.5,1,0.8,1.8,0.8c0.7,0,1.4-0.1,2.1-0.4v1.1C114.1,485.9,113.4,486,112.6,486z"/>
	<path d="M122,485.8v-5.2c0-0.7-0.1-1.1-0.4-1.5s-0.8-0.5-1.4-0.5c-0.8,0-1.5,0.2-1.8,0.7c-0.4,0.5-0.6,1.2-0.6,2.3v4.2h-1.2v-11.4
		h1.2v3.5c0,0.4,0,0.8-0.1,1h0.1c0.2-0.4,0.6-0.7,1-0.9c0.4-0.2,0.9-0.3,1.5-0.3c1,0,1.7,0.2,2.2,0.7c0.5,0.5,0.7,1.2,0.7,2.2v5.2
		H122z"/>
	<path d="M133.3,477.7c0.4,0,0.7,0,1,0.1l-0.2,1.1c-0.3-0.1-0.6-0.1-0.9-0.1c-0.6,0-1.2,0.3-1.7,0.8c-0.5,0.5-0.7,1.2-0.7,2v4.3
		h-1.2v-8h1l0.1,1.5h0.1c0.3-0.5,0.7-0.9,1.1-1.2S132.8,477.7,133.3,477.7z"/>
	<path d="M139.1,486c-1.2,0-2.1-0.4-2.8-1.1c-0.7-0.7-1-1.7-1-3c0-1.3,0.3-2.3,1-3.1c0.6-0.8,1.5-1.1,2.6-1.1c1,0,1.8,0.3,2.4,1
		c0.6,0.7,0.9,1.5,0.9,2.6v0.8h-5.5c0,0.9,0.3,1.7,0.7,2.1c0.5,0.5,1.1,0.7,1.9,0.7c0.9,0,1.7-0.2,2.6-0.5v1.1
		c-0.4,0.2-0.8,0.3-1.2,0.4C140.1,486,139.7,486,139.1,486z M138.8,478.7c-0.6,0-1.2,0.2-1.5,0.6c-0.4,0.4-0.6,1-0.7,1.7h4.2
		c0-0.8-0.2-1.4-0.5-1.8C139.9,478.9,139.4,478.7,138.8,478.7z"/>
	<path d="M147.9,486c-0.5,0-1-0.1-1.4-0.3c-0.4-0.2-0.8-0.5-1.1-0.9h-0.1c0.1,0.5,0.1,0.9,0.1,1.3v3.3h-1.2v-11.6h1l0.2,1.1h0.1
		c0.3-0.4,0.7-0.8,1.1-1s0.9-0.3,1.4-0.3c1.1,0,1.9,0.4,2.5,1.1c0.6,0.7,0.9,1.7,0.9,3.1c0,1.3-0.3,2.3-0.9,3.1
		C149.7,485.6,148.9,486,147.9,486z M147.7,478.7c-0.8,0-1.4,0.2-1.8,0.7s-0.6,1.2-0.6,2.2v0.3c0,1.1,0.2,1.9,0.6,2.4
		c0.4,0.5,1,0.7,1.8,0.7c0.7,0,1.2-0.3,1.6-0.8c0.4-0.6,0.6-1.3,0.6-2.3c0-1-0.2-1.8-0.6-2.3C149,479,148.4,478.7,147.7,478.7z"/>
	<path d="M154.6,485.8h-1.2v-11.4h1.2V485.8z"/>
	<path d="M157,475.6c0-0.3,0.1-0.5,0.2-0.6c0.1-0.1,0.3-0.2,0.5-0.2c0.2,0,0.4,0.1,0.5,0.2s0.2,0.3,0.2,0.6s-0.1,0.5-0.2,0.6
		c-0.1,0.1-0.3,0.2-0.5,0.2c-0.2,0-0.4-0.1-0.5-0.2C157.1,476.1,157,475.9,157,475.6z M158.4,485.8h-1.2v-8h1.2V485.8z"/>
	<path d="M164.1,486c-1.2,0-2.1-0.4-2.7-1.1c-0.6-0.7-1-1.7-1-3c0-1.3,0.3-2.4,1-3.1c0.6-0.7,1.6-1.1,2.8-1.1c0.4,0,0.8,0,1.2,0.1
		s0.7,0.2,0.9,0.3l-0.4,1c-0.3-0.1-0.6-0.2-0.9-0.3c-0.3-0.1-0.6-0.1-0.8-0.1c-1.6,0-2.4,1-2.4,3.1c0,1,0.2,1.7,0.6,2.3
		c0.4,0.5,1,0.8,1.8,0.8c0.7,0,1.4-0.1,2.1-0.4v1.1C165.6,485.9,165,486,164.1,486z"/>
	<path d="M173,485.8l-0.2-1.1h-0.1c-0.4,0.5-0.8,0.8-1.2,1c-0.4,0.2-0.9,0.3-1.5,0.3c-0.8,0-1.4-0.2-1.9-0.6c-0.5-0.4-0.7-1-0.7-1.8
		c0-1.6,1.3-2.5,3.9-2.5l1.4,0v-0.5c0-0.6-0.1-1.1-0.4-1.4c-0.3-0.3-0.7-0.5-1.3-0.5c-0.7,0-1.4,0.2-2.3,0.6l-0.4-0.9
		c0.4-0.2,0.8-0.4,1.3-0.5c0.5-0.1,0.9-0.2,1.4-0.2c1,0,1.7,0.2,2.1,0.6c0.5,0.4,0.7,1.1,0.7,2v5.5H173z M170.3,485
		c0.8,0,1.4-0.2,1.8-0.6c0.4-0.4,0.6-1,0.6-1.7v-0.7l-1.2,0.1c-1,0-1.7,0.2-2.1,0.5c-0.4,0.3-0.6,0.7-0.6,1.2c0,0.4,0.1,0.8,0.4,1
		C169.4,484.9,169.8,485,170.3,485z"/>
	<path d="M181.6,483.7c0,0.7-0.3,1.3-0.8,1.7s-1.3,0.6-2.3,0.6c-1.1,0-1.9-0.2-2.5-0.5v-1.1c0.4,0.2,0.8,0.3,1.2,0.5
		c0.4,0.1,0.9,0.2,1.3,0.2c0.6,0,1.1-0.1,1.5-0.3c0.3-0.2,0.5-0.5,0.5-0.9c0-0.3-0.1-0.6-0.4-0.8c-0.3-0.2-0.8-0.5-1.6-0.8
		c-0.7-0.3-1.3-0.5-1.6-0.7c-0.3-0.2-0.5-0.4-0.7-0.7c-0.2-0.3-0.2-0.6-0.2-0.9c0-0.7,0.3-1.2,0.8-1.5c0.5-0.4,1.3-0.6,2.2-0.6
		c0.9,0,1.7,0.2,2.5,0.5l-0.4,1c-0.8-0.3-1.5-0.5-2.2-0.5c-0.6,0-1,0.1-1.3,0.3s-0.4,0.4-0.4,0.7c0,0.2,0.1,0.4,0.2,0.5
		c0.1,0.2,0.3,0.3,0.5,0.4s0.7,0.3,1.4,0.6c1,0.3,1.6,0.7,1.9,1C181.4,482.7,181.6,483.1,181.6,483.7z"/>
</g>
<g>
	<path d="M16.1,509.9h-1.5l-3.9-5.2l-1.1,1v4.2H8.4v-10.7h1.2v5.3l4.9-5.3h1.5l-4.3,4.7L16.1,509.9z"/>
	<path d="M17.6,499.2h3c1.4,0,2.4,0.2,3.1,0.6s1,1.1,1,2c0,0.6-0.2,1.2-0.5,1.6c-0.4,0.4-0.9,0.7-1.5,0.8v0.1
		c1.6,0.3,2.4,1.1,2.4,2.6c0,1-0.3,1.7-1,2.2s-1.6,0.8-2.7,0.8h-3.7V499.2z M18.8,503.8h2.1c0.9,0,1.5-0.1,1.9-0.4
		c0.4-0.3,0.6-0.7,0.6-1.4c0-0.6-0.2-1-0.6-1.3c-0.4-0.3-1.1-0.4-2.1-0.4h-1.8V503.8z M18.8,504.8v4h2.2c0.9,0,1.5-0.2,2-0.5
		c0.4-0.3,0.7-0.9,0.7-1.6c0-0.7-0.2-1.2-0.7-1.5c-0.4-0.3-1.1-0.5-2-0.5H18.8z"/>
	<path d="M30.8,502.7c0-0.7,0.3-1,0.9-1c0.6,0,0.9,0.3,0.9,1c0,0.3-0.1,0.6-0.2,0.7s-0.4,0.3-0.7,0.3c-0.2,0-0.5-0.1-0.6-0.2
		C30.9,503.3,30.8,503,30.8,502.7z M30.8,509.1c0-0.3,0.1-0.6,0.2-0.7c0.1-0.2,0.4-0.3,0.6-0.3c0.3,0,0.5,0.1,0.7,0.3
		c0.2,0.2,0.2,0.4,0.2,0.7c0,0.3-0.1,0.6-0.2,0.7s-0.4,0.3-0.7,0.3c-0.2,0-0.5-0.1-0.6-0.2C30.9,509.7,30.8,509.5,30.8,509.1z"/>
	<path d="M46.8,509.9h-1.5l-3.9-5.2l-1.1,1v4.2h-1.2v-10.7h1.2v5.3l4.9-5.3h1.5l-4.3,4.7L46.8,509.9z"/>
	<path d="M48,499.7c0-0.3,0.1-0.5,0.2-0.6c0.1-0.1,0.3-0.2,0.5-0.2c0.2,0,0.4,0.1,0.5,0.2s0.2,0.3,0.2,0.6s-0.1,0.5-0.2,0.6
		c-0.1,0.1-0.3,0.2-0.5,0.2c-0.2,0-0.4-0.1-0.5-0.2C48.1,500.2,48,500,48,499.7z M49.3,509.9h-1.2v-8h1.2V509.9z"/>
	<path d="M55.6,501.7c1.1,0,1.9,0.4,2.5,1.1c0.6,0.7,0.9,1.7,0.9,3.1s-0.3,2.3-0.9,3.1c-0.6,0.7-1.4,1.1-2.5,1.1
		c-0.5,0-1-0.1-1.4-0.3c-0.4-0.2-0.8-0.5-1.1-0.9H53l-0.3,1h-0.9v-11.4h1.2v2.8c0,0.6,0,1.2-0.1,1.7h0.1
		C53.7,502.1,54.5,501.7,55.6,501.7z M55.5,502.8c-0.8,0-1.4,0.2-1.8,0.7c-0.4,0.5-0.5,1.3-0.5,2.4s0.2,1.9,0.6,2.4
		c0.4,0.5,1,0.7,1.8,0.7c0.7,0,1.3-0.3,1.7-0.8c0.4-0.5,0.5-1.3,0.5-2.3c0-1-0.2-1.8-0.5-2.3S56.2,502.8,55.5,502.8z"/>
	<path d="M66,509.9l-0.2-1.1h-0.1c-0.4,0.5-0.8,0.8-1.2,1s-0.9,0.3-1.5,0.3c-0.8,0-1.4-0.2-1.9-0.6c-0.5-0.4-0.7-1-0.7-1.8
		c0-1.6,1.3-2.5,3.9-2.5l1.4,0v-0.5c0-0.6-0.1-1.1-0.4-1.4c-0.3-0.3-0.7-0.5-1.3-0.5c-0.7,0-1.4,0.2-2.3,0.6l-0.4-0.9
		c0.4-0.2,0.8-0.4,1.3-0.5c0.5-0.1,0.9-0.2,1.4-0.2c1,0,1.7,0.2,2.1,0.6c0.5,0.4,0.7,1.1,0.7,2v5.5H66z M63.3,509
		c0.8,0,1.4-0.2,1.8-0.6c0.4-0.4,0.6-1,0.6-1.7V506l-1.2,0.1c-1,0-1.7,0.2-2.1,0.5c-0.4,0.3-0.6,0.7-0.6,1.2c0,0.4,0.1,0.8,0.4,1
		C62.4,508.9,62.8,509,63.3,509z"/>
	<path d="M74.9,509.9v-5.2c0-0.7-0.1-1.1-0.4-1.5s-0.8-0.5-1.4-0.5c-0.8,0-1.5,0.2-1.8,0.7s-0.6,1.2-0.6,2.2v4.2h-1.2v-8h1l0.2,1.1
		h0.1c0.2-0.4,0.6-0.7,1-0.9c0.4-0.2,0.9-0.3,1.5-0.3c1,0,1.7,0.2,2.2,0.7c0.5,0.5,0.7,1.2,0.7,2.2v5.2H74.9z"/>
	<path d="M83.6,509.9l-0.2-1.1h-0.1c-0.4,0.5-0.8,0.8-1.2,1s-0.9,0.3-1.5,0.3c-0.8,0-1.4-0.2-1.9-0.6c-0.5-0.4-0.7-1-0.7-1.8
		c0-1.6,1.3-2.5,3.9-2.5l1.4,0v-0.5c0-0.6-0.1-1.1-0.4-1.4c-0.3-0.3-0.7-0.5-1.3-0.5c-0.7,0-1.4,0.2-2.3,0.6l-0.4-0.9
		c0.4-0.2,0.8-0.4,1.3-0.5c0.5-0.1,0.9-0.2,1.4-0.2c1,0,1.7,0.2,2.1,0.6c0.5,0.4,0.7,1.1,0.7,2v5.5H83.6z M80.8,509
		c0.8,0,1.4-0.2,1.8-0.6c0.4-0.4,0.6-1,0.6-1.7V506L82,506c-1,0-1.7,0.2-2.1,0.5c-0.4,0.3-0.6,0.7-0.6,1.2c0,0.4,0.1,0.8,0.4,1
		C80,508.9,80.3,509,80.8,509z"/>
</g>
<g>
	<path d="M16.7,534h-1.4l-5.9-9H9.4c0.1,1.1,0.1,2,0.1,2.9v6.1H8.4v-10.7h1.4l5.8,9h0.1c0-0.1,0-0.6-0.1-1.3c0-0.7,0-1.2,0-1.5v-6.1
		h1.2V534z"/>
	<path d="M23.4,534h-1.2v-7.6c0-0.6,0-1.2,0.1-1.8c-0.1,0.1-0.2,0.2-0.3,0.3s-0.7,0.6-1.7,1.4l-0.6-0.8l2.8-2.2h1V534z"/>
	<path d="M29.3,532.2l0.1,0.2c-0.1,0.5-0.3,1.1-0.5,1.7c-0.2,0.6-0.5,1.2-0.7,1.8h-0.9c0.1-0.5,0.3-1.1,0.4-1.9
		c0.2-0.7,0.3-1.3,0.3-1.8H29.3z"/>
	<path d="M44.2,534h-1.4l-5.9-9h-0.1c0.1,1.1,0.1,2,0.1,2.9v6.1h-1.1v-10.7h1.4l5.8,9h0.1c0-0.1,0-0.6-0.1-1.3c0-0.7,0-1.2,0-1.5
		v-6.1h1.2V534z"/>
	<path d="M53.4,534h-7v-1l2.8-2.8c0.9-0.9,1.4-1.5,1.7-1.9s0.5-0.7,0.6-1.1s0.2-0.7,0.2-1.1c0-0.6-0.2-1-0.5-1.4
		c-0.3-0.3-0.8-0.5-1.4-0.5c-0.4,0-0.9,0.1-1.3,0.2c-0.4,0.1-0.8,0.4-1.3,0.8l-0.6-0.8c1-0.8,2.1-1.2,3.2-1.2c1,0,1.8,0.3,2.4,0.8
		c0.6,0.5,0.9,1.2,0.9,2.1c0,0.7-0.2,1.4-0.6,2s-1.1,1.5-2.1,2.5l-2.3,2.3v0.1h5.5V534z"/>
	<path d="M56.8,532.2l0.1,0.2c-0.1,0.5-0.3,1.1-0.5,1.7c-0.2,0.6-0.5,1.2-0.7,1.8h-0.9c0.1-0.5,0.3-1.1,0.4-1.9
		c0.2-0.7,0.3-1.3,0.3-1.8H56.8z"/>
	<path d="M71.6,534h-1.4l-5.9-9h-0.1c0.1,1.1,0.1,2,0.1,2.9v6.1h-1.2v-10.7h1.4l5.8,9h0.1c0-0.1,0-0.6-0.1-1.3c0-0.7,0-1.2,0-1.5
		v-6.1h1.2V534z"/>
	<path d="M80.5,525.8c0,0.7-0.2,1.2-0.6,1.7c-0.4,0.4-0.9,0.7-1.6,0.9v0.1c0.9,0.1,1.5,0.4,1.9,0.8s0.6,1,0.6,1.7
		c0,1-0.4,1.8-1.1,2.4c-0.7,0.5-1.7,0.8-3,0.8c-0.6,0-1.1,0-1.6-0.1c-0.5-0.1-0.9-0.2-1.4-0.5v-1.2c0.5,0.2,1,0.4,1.5,0.5
		c0.5,0.1,1,0.2,1.5,0.2c1.9,0,2.8-0.7,2.8-2.2c0-1.3-1-1.9-3.1-1.9h-1.1v-1h1.1c0.8,0,1.5-0.2,2-0.6c0.5-0.4,0.7-0.9,0.7-1.5
		c0-0.5-0.2-0.9-0.5-1.2c-0.4-0.3-0.8-0.4-1.5-0.4c-0.5,0-0.9,0.1-1.3,0.2s-0.9,0.4-1.4,0.7l-0.6-0.8c0.4-0.3,0.9-0.6,1.5-0.8
		c0.6-0.2,1.2-0.3,1.8-0.3c1,0,1.8,0.2,2.4,0.7C80.2,524.3,80.5,524.9,80.5,525.8z"/>
	<path d="M86.7,526.7c0-0.7,0.3-1,0.9-1c0.6,0,0.9,0.3,0.9,1c0,0.3-0.1,0.6-0.2,0.7s-0.4,0.3-0.7,0.3c-0.2,0-0.5-0.1-0.6-0.2
		C86.8,527.3,86.7,527.1,86.7,526.7z M86.7,533.2c0-0.3,0.1-0.6,0.2-0.7c0.1-0.2,0.4-0.3,0.6-0.3c0.3,0,0.5,0.1,0.7,0.3
		c0.2,0.2,0.2,0.4,0.2,0.7c0,0.3-0.1,0.6-0.2,0.7s-0.4,0.3-0.7,0.3c-0.2,0-0.5-0.1-0.6-0.2C86.8,533.8,86.7,533.5,86.7,533.2z"/>
	<path d="M102.7,534h-1.5l-3.9-5.2l-1.1,1v4.2H95v-10.7h1.2v5.3l4.9-5.3h1.5l-4.3,4.7L102.7,534z"/>
	<path d="M107,523.1c1,0,1.8,0.2,2.3,0.7s0.9,1.1,0.9,1.9c0,0.5-0.2,1-0.5,1.4s-0.8,0.8-1.6,1.2c0.9,0.4,1.5,0.9,1.9,1.3
		c0.4,0.5,0.5,1,0.5,1.6c0,0.9-0.3,1.6-0.9,2.1c-0.6,0.5-1.5,0.8-2.5,0.8c-1.1,0-2-0.2-2.6-0.8c-0.6-0.5-0.9-1.2-0.9-2.1
		c0-1.2,0.7-2.2,2.2-2.9c-0.7-0.4-1.2-0.8-1.5-1.2c-0.3-0.4-0.4-0.9-0.4-1.5c0-0.8,0.3-1.4,0.9-1.9C105.2,523.3,106,523.1,107,523.1
		z M104.7,531.3c0,0.6,0.2,1,0.6,1.4c0.4,0.3,1,0.5,1.7,0.5c0.7,0,1.3-0.2,1.7-0.5s0.6-0.8,0.6-1.4c0-0.5-0.2-0.9-0.6-1.3
		c-0.4-0.4-1-0.7-2-1.1c-0.7,0.3-1.3,0.7-1.6,1C104.8,530.3,104.7,530.7,104.7,531.3z M107,524.1c-0.6,0-1.1,0.1-1.4,0.4
		s-0.5,0.7-0.5,1.2c0,0.4,0.1,0.8,0.4,1.2s0.8,0.6,1.6,1c0.7-0.3,1.2-0.6,1.5-0.9c0.3-0.3,0.4-0.7,0.4-1.2c0-0.5-0.2-0.9-0.5-1.2
		C108.1,524.2,107.6,524.1,107,524.1z"/>
	<path d="M117.7,531.8c0,0.7-0.3,1.3-0.8,1.7s-1.3,0.6-2.3,0.6c-1.1,0-1.9-0.2-2.5-0.5v-1.1c0.4,0.2,0.8,0.3,1.2,0.5
		c0.4,0.1,0.9,0.2,1.3,0.2c0.6,0,1.1-0.1,1.5-0.3c0.3-0.2,0.5-0.5,0.5-0.9c0-0.3-0.1-0.6-0.4-0.8c-0.3-0.2-0.8-0.5-1.6-0.8
		c-0.7-0.3-1.3-0.5-1.6-0.7c-0.3-0.2-0.5-0.4-0.7-0.7c-0.2-0.3-0.2-0.6-0.2-0.9c0-0.7,0.3-1.2,0.8-1.5c0.5-0.4,1.3-0.6,2.2-0.6
		c0.9,0,1.7,0.2,2.5,0.5l-0.4,1c-0.8-0.3-1.5-0.5-2.2-0.5c-0.6,0-1,0.1-1.3,0.3s-0.4,0.4-0.4,0.7c0,0.2,0.1,0.4,0.2,0.5
		c0.1,0.2,0.3,0.3,0.5,0.4s0.7,0.3,1.4,0.6c1,0.3,1.6,0.7,1.9,1C117.6,530.8,117.7,531.2,117.7,531.8z"/>
	<path d="M132.2,534h-1.4l-5.9-9h-0.1c0.1,1.1,0.1,2,0.1,2.9v6.1h-1.1v-10.7h1.4l5.8,9h0.1c0-0.1,0-0.6-0.1-1.3c0-0.7,0-1.2,0-1.5
		v-6.1h1.2V534z"/>
	<path d="M141.8,529.9c0,1.3-0.3,2.3-1,3.1c-0.7,0.7-1.6,1.1-2.7,1.1c-0.7,0-1.4-0.2-1.9-0.5s-1-0.8-1.3-1.5s-0.5-1.4-0.5-2.2
		c0-1.3,0.3-2.3,1-3.1c0.7-0.7,1.6-1.1,2.7-1.1c1.1,0,2,0.4,2.7,1.1C141.5,527.7,141.8,528.7,141.8,529.9z M135.7,529.9
		c0,1,0.2,1.8,0.6,2.3s1,0.8,1.8,0.8s1.4-0.3,1.8-0.8c0.4-0.5,0.6-1.3,0.6-2.3c0-1-0.2-1.8-0.6-2.3c-0.4-0.5-1-0.8-1.8-0.8
		c-0.8,0-1.4,0.3-1.8,0.8S135.7,528.9,135.7,529.9z"/>
	<path d="M149.4,532.9L149.4,532.9c-0.6,0.8-1.5,1.2-2.6,1.2c-1,0-1.9-0.4-2.4-1.1c-0.6-0.7-0.9-1.7-0.9-3.1s0.3-2.4,0.9-3.1
		s1.4-1.1,2.4-1.1c1.1,0,1.9,0.4,2.5,1.2h0.1l-0.1-0.6l0-0.6v-3.3h1.2V534h-1L149.4,532.9z M147,533.1c0.8,0,1.4-0.2,1.8-0.7
		c0.4-0.5,0.6-1.2,0.6-2.2V530c0-1.1-0.2-1.9-0.6-2.4c-0.4-0.5-1-0.7-1.8-0.7c-0.7,0-1.3,0.3-1.6,0.8c-0.4,0.6-0.6,1.3-0.6,2.3
		c0,1,0.2,1.8,0.6,2.3S146.3,533.1,147,533.1z"/>
	<path d="M156.6,534.1c-1.2,0-2.1-0.4-2.8-1.1c-0.7-0.7-1-1.7-1-3c0-1.3,0.3-2.3,1-3.1c0.6-0.8,1.5-1.1,2.6-1.1c1,0,1.8,0.3,2.4,1
		c0.6,0.7,0.9,1.5,0.9,2.6v0.8H154c0,0.9,0.3,1.7,0.7,2.1c0.5,0.5,1.1,0.7,1.9,0.7c0.9,0,1.7-0.2,2.6-0.5v1.1
		c-0.4,0.2-0.8,0.3-1.2,0.4C157.6,534.1,157.1,534.1,156.6,534.1z M156.2,526.8c-0.6,0-1.2,0.2-1.5,0.6c-0.4,0.4-0.6,1-0.7,1.7h4.2
		c0-0.8-0.2-1.4-0.5-1.8C157.4,527,156.9,526.8,156.2,526.8z"/>
	<path d="M166.8,531.8c0,0.7-0.3,1.3-0.8,1.7s-1.3,0.6-2.3,0.6c-1.1,0-1.9-0.2-2.5-0.5v-1.1c0.4,0.2,0.8,0.3,1.2,0.5
		c0.4,0.1,0.9,0.2,1.3,0.2c0.6,0,1.1-0.1,1.5-0.3c0.3-0.2,0.5-0.5,0.5-0.9c0-0.3-0.1-0.6-0.4-0.8c-0.3-0.2-0.8-0.5-1.6-0.8
		c-0.7-0.3-1.3-0.5-1.6-0.7c-0.3-0.2-0.5-0.4-0.7-0.7c-0.2-0.3-0.2-0.6-0.2-0.9c0-0.7,0.3-1.2,0.8-1.5c0.5-0.4,1.3-0.6,2.2-0.6
		c0.9,0,1.7,0.2,2.5,0.5l-0.4,1c-0.8-0.3-1.5-0.5-2.2-0.5c-0.6,0-1,0.1-1.3,0.3s-0.4,0.4-0.4,0.7c0,0.2,0.1,0.4,0.2,0.5
		c0.1,0.2,0.3,0.3,0.5,0.4s0.7,0.3,1.4,0.6c1,0.3,1.6,0.7,1.9,1C166.6,530.8,166.8,531.2,166.8,531.8z"/>
</g>
<g>
	<path d="M8.2,405.5v-10.7h2.3v8.8h4.3v1.9H8.2z"/>
	<path d="M20.2,405.7c-1.3,0-2.3-0.4-3.1-1.1c-0.7-0.7-1.1-1.8-1.1-3.1c0-1.4,0.3-2.4,1-3.2c0.7-0.8,1.6-1.1,2.8-1.1
		c1.2,0,2.1,0.3,2.7,1s1,1.6,1,2.7v1.1h-5.3c0,0.6,0.2,1.1,0.6,1.5s0.8,0.5,1.5,0.5c0.5,0,1-0.1,1.4-0.2s0.9-0.3,1.4-0.5v1.7
		c-0.4,0.2-0.8,0.3-1.3,0.4C21.4,405.6,20.9,405.7,20.2,405.7z M19.9,398.8c-0.5,0-0.8,0.2-1.1,0.5c-0.3,0.3-0.4,0.7-0.5,1.3h3.1
		c0-0.6-0.2-1-0.4-1.3C20.8,398.9,20.4,398.8,19.9,398.8z"/>
	<path d="M32.5,397.3v1.1l-1.3,0.3c0.2,0.4,0.4,0.8,0.4,1.2c0,0.9-0.3,1.6-0.9,2.1c-0.6,0.5-1.5,0.7-2.6,0.7l-0.4,0l-0.3,0
		c-0.2,0.2-0.3,0.4-0.3,0.6c0,0.3,0.4,0.5,1.2,0.5h1.4c0.9,0,1.6,0.2,2.1,0.6c0.5,0.4,0.7,1,0.7,1.7c0,1-0.4,1.7-1.2,2.2
		c-0.8,0.5-1.9,0.8-3.4,0.8c-1.1,0-2-0.2-2.6-0.6c-0.6-0.4-0.9-1-0.9-1.7c0-0.5,0.2-0.9,0.5-1.2s0.8-0.6,1.4-0.7
		c-0.2-0.1-0.4-0.3-0.6-0.5s-0.3-0.5-0.3-0.7c0-0.3,0.1-0.6,0.3-0.8c0.2-0.2,0.4-0.4,0.8-0.6c-0.4-0.2-0.8-0.5-1-0.9
		c-0.3-0.4-0.4-0.9-0.4-1.5c0-0.9,0.3-1.6,0.9-2.1s1.4-0.7,2.5-0.7c0.2,0,0.5,0,0.8,0.1c0.3,0,0.5,0.1,0.6,0.1H32.5z M26.2,406.7
		c0,0.3,0.1,0.5,0.4,0.7c0.3,0.2,0.7,0.3,1.2,0.3c0.8,0,1.4-0.1,1.9-0.3s0.7-0.5,0.7-0.9c0-0.3-0.1-0.5-0.4-0.6s-0.7-0.2-1.2-0.2
		h-1.2c-0.4,0-0.8,0.1-1,0.3C26.3,406.1,26.2,406.4,26.2,406.7z M27,400c0,0.4,0.1,0.8,0.3,1.1c0.2,0.3,0.5,0.4,0.9,0.4
		c0.4,0,0.7-0.1,0.9-0.4s0.3-0.6,0.3-1.1c0-1-0.4-1.5-1.2-1.5C27.4,398.5,27,399,27,400z"/>
	<path d="M37.6,405.7c-1.3,0-2.3-0.4-3.1-1.1c-0.7-0.7-1.1-1.8-1.1-3.1c0-1.4,0.3-2.4,1-3.2c0.7-0.8,1.6-1.1,2.8-1.1
		c1.2,0,2.1,0.3,2.7,1s1,1.6,1,2.7v1.1h-5.3c0,0.6,0.2,1.1,0.6,1.5s0.8,0.5,1.5,0.5c0.5,0,1-0.1,1.4-0.2s0.9-0.3,1.4-0.5v1.7
		c-0.4,0.2-0.8,0.3-1.3,0.4C38.8,405.6,38.2,405.7,37.6,405.7z M37.3,398.8c-0.5,0-0.8,0.2-1.1,0.5c-0.3,0.3-0.4,0.7-0.5,1.3h3.1
		c0-0.6-0.2-1-0.4-1.3C38.1,398.9,37.7,398.8,37.3,398.8z"/>
	<path d="M50.3,405.5h-2.2v-4.8c0-0.6-0.1-1-0.3-1.3c-0.2-0.3-0.5-0.4-1-0.4c-0.6,0-1.1,0.2-1.4,0.6c-0.3,0.4-0.4,1.1-0.4,2.1v3.9
		h-2.2v-8.2h1.7l0.3,1h0.1c0.2-0.4,0.6-0.7,1-0.9c0.4-0.2,0.9-0.3,1.5-0.3c1,0,1.7,0.3,2.2,0.8s0.7,1.3,0.7,2.2V405.5z"/>
	<path d="M55.2,405.7c-1,0-1.7-0.4-2.3-1.1c-0.5-0.7-0.8-1.8-0.8-3.1c0-1.3,0.3-2.4,0.8-3.1c0.6-0.8,1.3-1.1,2.3-1.1
		c1,0,1.8,0.4,2.4,1.2h0.1c-0.1-0.6-0.2-1.2-0.2-1.6v-2.6h2.2v11.4H58l-0.4-1.1h-0.1C57,405.3,56.2,405.7,55.2,405.7z M56,403.9
		c0.6,0,1-0.2,1.3-0.5c0.3-0.3,0.4-0.9,0.4-1.7v-0.2c0-0.9-0.1-1.5-0.4-1.9c-0.3-0.4-0.7-0.6-1.3-0.6c-0.5,0-0.9,0.2-1.2,0.6
		c-0.3,0.4-0.4,1-0.4,1.8c0,0.8,0.1,1.4,0.4,1.8C55.1,403.7,55.5,403.9,56,403.9z"/>
</g>
<g>
	<g>
		<g>
			<g>
				<g>
					<path d="M570.3,39c2.3,1.1,5.2,3,7,5l-1.4-5l1.4-5C575.5,36,572.7,37.9,570.3,39z"/>
				</g>
			</g>
		</g>
	</g>
	<polyline class="st2" points="575.9,39 604.9,39 607.6,268.9 	"/>
</g>
<g>
	<g>
		<g>
			<g>
				<g>
					<path d="M572.1,152.2c2.3,1.1,5.2,3,7,5l-1.4-5l1.4-5C577.3,149.2,574.4,151.1,572.1,152.2z"/>
				</g>
			</g>
		</g>
	</g>
	<polyline class="st2" points="577.7,152.2 606.6,152.2 630,152.2 	"/>
</g>
<g>
	<g>
		<g>
			<g>
				<path d="M573.1,268.9c2.3,1.1,5.2,3,7,5l-1.4-5l1.4-5C578.3,266,575.4,267.8,573.1,268.9z"/>
			</g>
		</g>
	</g>
</g>
<g>
	<g>
		<g>
			<g>
				<path d="M426.5,293.9c2.3,1.1,5.2,3,7,5l-1.4-5l1.4-5C431.7,290.9,428.9,292.8,426.5,293.9z"/>
			</g>
		</g>
	</g>
</g>
<g>
	<g>
		<g>
			<g>
				<path d="M426.5,324.7c2.3,1.1,5.2,3,7,5l-1.4-5l1.4-5C431.7,321.7,428.9,323.6,426.5,324.7z"/>
			</g>
		</g>
	</g>
</g>
<line class="st2" x1="578.7" y1="268.9" x2="607.6" y2="268.9"/>
<path class="st1" d="M564.5,392h-69.3c-1.5,0-2.7-1.2-2.7-2.7V320c0-1.5,1.2-2.7,2.7-2.7h69.3c1.5,0,2.7,1.2,2.7,2.7v69.3
	C567.2,390.8,566,392,564.5,392z"/>
<path class="st1" d="M567.9,504.3h-69.3c-1.5,0-2.7-1.2-2.7-2.7v-69.3c0-1.5,1.2-2.7,2.7-2.7h69.3c1.5,0,2.7,1.2,2.7,2.7v69.3
	C570.5,503.2,569.3,504.3,567.9,504.3z"/>
<rect x="515.9" y="444.8" class="st8" width="34.7" height="44.5"/>
<path class="st1" d="M567.9,616.7h-69.3c-1.5,0-2.7-1.2-2.7-2.7v-69.3c0-1.5,1.2-2.7,2.7-2.7h69.3c1.5,0,2.7,1.2,2.7,2.7v69.3
	C570.5,615.5,569.3,616.7,567.9,616.7z"/>
<rect x="515.9" y="557.1" class="st8" width="34.7" height="44.5"/>
<path class="st1" d="M745.9,492.3H634.1c-1.5,0-2.6-1.2-2.6-2.6v-41.7c0-1.5,1.2-2.6,2.6-2.6h111.7c1.5,0,2.6,1.2,2.6,2.6v41.7
	C748.5,491.1,747.3,492.3,745.9,492.3z"/>
<g>
	<g>
		<g>
			<g>
				<g>
					<path d="M569.6,353.8c2.3,1.1,5.2,3,7,5l-1.4-5l1.4-5C574.8,350.8,571.9,352.7,569.6,353.8z"/>
				</g>
			</g>
		</g>
	</g>
	<polyline class="st2" points="575.1,353.8 604.1,353.8 606.9,583.8 	"/>
</g>
<g>
	<g>
		<g>
			<g>
				<g>
					<path d="M571.4,467c2.3,1.1,5.2,3,7,5l-1.4-5l1.4-5C576.6,464,573.7,465.9,571.4,467z"/>
				</g>
			</g>
		</g>
	</g>
	<polyline class="st2" points="576.9,467 605.9,467 629.2,467 	"/>
</g>
<g>
	<g>
		<g>
			<g>
				<g>
					<path d="M572.4,583.8c2.3,1.1,5.2,3,7,5l-1.4-5l1.4-5C577.6,580.8,574.7,582.7,572.4,583.8z"/>
				</g>
			</g>
		</g>
	</g>
	<line class="st2" x1="577.9" y1="583.8" x2="606.9" y2="583.8"/>
</g>
<rect x="526" y="333.5" class="st7" width="34.7" height="44.5"/>
<rect x="499" y="356.2" class="st3" width="20.4" height="21.8"/>
<g>
	<path class="st1" d="M324.1,166.7h-1.2V156h6v1.1h-4.7v3.9h4.4v1.1h-4.4V166.7z"/>
	<path class="st1" d="M334.4,166.7h-1.2V159c0-0.6,0-1.2,0.1-1.8c-0.1,0.1-0.2,0.2-0.3,0.3s-0.7,0.6-1.7,1.4l-0.6-0.8l2.8-2.2h1
		V166.7z"/>
</g>
<g>
	<path class="st3" d="M373.2,166.7h-1.5l-3.9-5.2l-1.1,1v4.2h-1.2V156h1.2v5.3l4.9-5.3h1.5l-4.3,4.7L373.2,166.7z"/>
	<path class="st3" d="M374.7,156h3c1.4,0,2.4,0.2,3.1,0.6s1,1.1,1,2c0,0.6-0.2,1.2-0.5,1.6c-0.4,0.4-0.9,0.7-1.5,0.8v0.1
		c1.6,0.3,2.4,1.1,2.4,2.6c0,1-0.3,1.7-1,2.2c-0.6,0.5-1.6,0.8-2.7,0.8h-3.7V156z M375.9,160.6h2.1c0.9,0,1.5-0.1,1.9-0.4
		c0.4-0.3,0.6-0.7,0.6-1.4c0-0.6-0.2-1-0.6-1.3c-0.4-0.3-1.1-0.4-2.1-0.4h-1.8V160.6z M375.9,161.6v4h2.2c0.9,0,1.5-0.2,2-0.5
		c0.4-0.3,0.7-0.9,0.7-1.6c0-0.7-0.2-1.2-0.7-1.5s-1.1-0.5-2-0.5H375.9z"/>
</g>
<g>
	<path class="st1" d="M347.1,312.1h-1.2v-10.7h6v1.1h-4.7v3.9h4.4v1.1h-4.4V312.1z"/>
	<path class="st1" d="M357.4,312.1h-1.2v-7.6c0-0.6,0-1.2,0.1-1.8c-0.1,0.1-0.2,0.2-0.3,0.3s-0.7,0.6-1.7,1.4l-0.6-0.8l2.8-2.2h1
		V312.1z"/>
</g>
<g>
	<path class="st3" d="M373.8,200h-1.4l-5.9-9h-0.1c0.1,1.1,0.1,2,0.1,2.9v6.1h-1.1v-10.7h1.4l5.8,9h0.1c0-0.1,0-0.6-0.1-1.3
		c0-0.7,0-1.2,0-1.5v-6.1h1.2V200z"/>
	<path class="st3" d="M380.5,200h-1.2v-7.6c0-0.6,0-1.2,0.1-1.8c-0.1,0.1-0.2,0.2-0.3,0.3s-0.7,0.6-1.7,1.4l-0.6-0.8l2.8-2.2h1V200z
		"/>
</g>
<g>
	<path class="st1" d="M417.4,166.7h-6V156h6v1.1h-4.7v3.4h4.4v1.1h-4.4v3.9h4.7V166.7z"/>
	<path class="st1" d="M425.8,163.8c0,0.9-0.3,1.7-1,2.2s-1.6,0.8-2.8,0.8c-1.3,0-2.2-0.2-2.9-0.5v-1.2c0.4,0.2,0.9,0.3,1.4,0.4
		s1,0.2,1.5,0.2c0.8,0,1.5-0.2,1.9-0.5c0.4-0.3,0.6-0.8,0.6-1.3c0-0.4-0.1-0.7-0.2-0.9c-0.1-0.2-0.4-0.5-0.7-0.7s-0.9-0.4-1.6-0.7
		c-1-0.4-1.7-0.8-2.1-1.3c-0.4-0.5-0.6-1.1-0.6-1.9c0-0.8,0.3-1.5,0.9-2s1.4-0.7,2.5-0.7c1.1,0,2,0.2,2.9,0.6l-0.4,1.1
		c-0.9-0.4-1.7-0.6-2.6-0.6c-0.7,0-1.2,0.1-1.5,0.4s-0.6,0.7-0.6,1.2c0,0.4,0.1,0.7,0.2,0.9c0.1,0.2,0.4,0.5,0.7,0.7
		c0.3,0.2,0.8,0.4,1.5,0.7c1.1,0.4,1.9,0.8,2.3,1.3S425.8,163.1,425.8,163.8z"/>
</g>
<g>
	<path class="st3" d="M371.8,471.5h-1.4l-5.9-9h-0.1c0.1,1.1,0.1,2,0.1,2.9v6.1h-1.1v-10.7h1.4l5.8,9h0.1c0-0.1,0-0.6-0.1-1.3
		s0-1.2,0-1.5v-6.1h1.2V471.5z"/>
	<path class="st3" d="M380.6,463.3c0,0.7-0.2,1.2-0.6,1.7c-0.4,0.4-0.9,0.7-1.6,0.9v0.1c0.9,0.1,1.5,0.4,1.9,0.8s0.6,1,0.6,1.7
		c0,1-0.4,1.8-1.1,2.4c-0.7,0.5-1.7,0.8-3,0.8c-0.6,0-1.1,0-1.6-0.1c-0.5-0.1-0.9-0.2-1.4-0.5v-1.2c0.5,0.2,1,0.4,1.5,0.5
		c0.5,0.1,1,0.2,1.5,0.2c1.9,0,2.8-0.7,2.8-2.2c0-1.3-1-1.9-3.1-1.9h-1.1v-1h1.1c0.8,0,1.5-0.2,2-0.6c0.5-0.4,0.7-0.9,0.7-1.5
		c0-0.5-0.2-0.9-0.5-1.2c-0.4-0.3-0.8-0.4-1.5-0.4c-0.5,0-0.9,0.1-1.3,0.2s-0.9,0.4-1.4,0.7l-0.6-0.8c0.4-0.3,0.9-0.6,1.5-0.8
		c0.6-0.2,1.2-0.3,1.8-0.3c1,0,1.8,0.2,2.4,0.7C380.3,461.8,380.6,462.5,380.6,463.3z"/>
</g>
<g>
	<path class="st1" d="M322.1,438.2h-1.2v-10.7h6v1.1h-4.7v3.9h4.4v1.1h-4.4V438.2z"/>
	<path class="st1" d="M334.5,430c0,0.7-0.2,1.2-0.6,1.7s-0.9,0.7-1.6,0.9v0.1c0.9,0.1,1.5,0.4,1.9,0.8s0.6,1,0.6,1.7
		c0,1-0.4,1.8-1.1,2.4c-0.7,0.6-1.7,0.8-3,0.8c-0.6,0-1.1,0-1.6-0.1c-0.5-0.1-0.9-0.2-1.4-0.5v-1.2c0.5,0.2,1,0.4,1.5,0.5
		c0.5,0.1,1,0.2,1.5,0.2c1.9,0,2.8-0.7,2.8-2.2c0-1.3-1-1.9-3.1-1.9h-1.1v-1h1.1c0.8,0,1.5-0.2,2-0.6s0.7-0.9,0.7-1.5
		c0-0.5-0.2-0.9-0.5-1.2c-0.4-0.3-0.8-0.4-1.5-0.4c-0.5,0-0.9,0.1-1.3,0.2s-0.9,0.4-1.4,0.7l-0.6-0.8c0.4-0.3,0.9-0.6,1.5-0.8
		s1.2-0.3,1.8-0.3c1,0,1.8,0.2,2.4,0.7C334.2,428.5,334.5,429.2,334.5,430z"/>
</g>
<g>
	<path class="st1" d="M366.3,438.2h-1.2v-10.7h6v1.1h-4.7v3.9h4.4v1.1h-4.4V438.2z"/>
	<path class="st1" d="M379.6,438.2l-1.3-3.4h-4.3l-1.3,3.4h-1.3l4.2-10.8h1l4.2,10.8H379.6z M377.8,433.7l-1.2-3.3
		c-0.2-0.4-0.3-0.9-0.5-1.5c-0.1,0.5-0.3,1-0.5,1.5l-1.3,3.3H377.8z"/>
</g>
<g>
	<path class="st1" d="M415.5,438.2h-6v-10.7h6v1.1h-4.7v3.5h4.4v1.1h-4.4v3.9h4.7V438.2z"/>
	<path class="st1" d="M423.9,435.4c0,0.9-0.3,1.7-1,2.2s-1.6,0.8-2.8,0.8c-1.3,0-2.2-0.2-2.9-0.5v-1.2c0.4,0.2,0.9,0.3,1.4,0.4
		s1,0.2,1.5,0.2c0.8,0,1.5-0.2,1.9-0.5c0.4-0.3,0.6-0.8,0.6-1.3c0-0.4-0.1-0.7-0.2-0.9c-0.1-0.2-0.4-0.5-0.7-0.7s-0.9-0.4-1.6-0.7
		c-1-0.4-1.7-0.8-2.1-1.3c-0.4-0.5-0.6-1.1-0.6-1.9c0-0.8,0.3-1.5,0.9-2s1.4-0.7,2.5-0.7c1.1,0,2,0.2,2.9,0.6l-0.4,1.1
		c-0.9-0.4-1.7-0.6-2.6-0.6c-0.7,0-1.2,0.1-1.5,0.4s-0.6,0.7-0.6,1.2c0,0.4,0.1,0.7,0.2,0.9c0.1,0.2,0.4,0.5,0.7,0.7
		c0.3,0.2,0.8,0.4,1.5,0.7c1.1,0.4,1.9,0.8,2.3,1.3S423.9,434.6,423.9,435.4z"/>
</g>
<g>
	<path class="st3" d="M382.8,345.4h-1.4l-5.9-9h-0.1c0.1,1.1,0.1,2,0.1,2.9v6.1h-1.1v-10.7h1.4l5.8,9h0.1c0-0.1,0-0.6-0.1-1.3
		c0-0.7,0-1.2,0-1.5v-6.1h1.2V345.4z"/>
	<path class="st3" d="M392,345.4h-7v-1l2.8-2.8c0.9-0.9,1.4-1.5,1.7-1.9s0.5-0.7,0.6-1.1s0.2-0.7,0.2-1.1c0-0.6-0.2-1-0.5-1.4
		c-0.3-0.3-0.8-0.5-1.4-0.5c-0.4,0-0.9,0.1-1.3,0.2c-0.4,0.1-0.8,0.4-1.3,0.8l-0.6-0.8c1-0.8,2.1-1.2,3.2-1.2c1,0,1.8,0.3,2.4,0.8
		c0.6,0.5,0.9,1.2,0.9,2.1c0,0.7-0.2,1.4-0.6,2s-1.1,1.5-2.1,2.5l-2.3,2.3v0.1h5.5V345.4z"/>
</g>
<g>
	<path class="st1" d="M529.2,44.2H528V33.5h6v1.1h-4.7v3.9h4.4v1.1h-4.4V44.2z"/>
	<path class="st1" d="M539.5,44.2h-1.2v-7.6c0-0.6,0-1.2,0.1-1.8c-0.1,0.1-0.2,0.2-0.3,0.3s-0.7,0.6-1.7,1.4l-0.6-0.8l2.8-2.2h1
		V44.2z"/>
</g>
<g>
	<path class="st1" d="M529.2,156.6H528v-10.7h6v1.1h-4.7v3.9h4.4v1.1h-4.4V156.6z"/>
	<path class="st1" d="M542,156.6h-7v-1l2.8-2.8c0.9-0.9,1.4-1.5,1.7-1.9s0.5-0.7,0.6-1.1s0.2-0.7,0.2-1.1c0-0.6-0.2-1-0.5-1.4
		c-0.3-0.3-0.8-0.5-1.4-0.5c-0.4,0-0.9,0.1-1.3,0.2c-0.4,0.1-0.8,0.4-1.3,0.8l-0.6-0.8c1-0.8,2.1-1.2,3.2-1.2c1,0,1.8,0.3,2.4,0.8
		c0.6,0.5,0.9,1.2,0.9,2.1c0,0.7-0.2,1.3-0.6,2s-1.1,1.5-2.1,2.5l-2.3,2.3v0.1h5.5V156.6z"/>
</g>
<g>
	<path class="st1" d="M539.2,268.9h-1.2v-10.7h6v1.1h-4.7v3.9h4.4v1.1h-4.4V268.9z"/>
	<path class="st1" d="M551.6,260.8c0,0.7-0.2,1.2-0.6,1.7s-0.9,0.7-1.6,0.9v0.1c0.9,0.1,1.5,0.4,1.9,0.8s0.6,1,0.6,1.7
		c0,1-0.4,1.8-1.1,2.4c-0.7,0.5-1.7,0.8-3,0.8c-0.6,0-1.1,0-1.6-0.1s-0.9-0.2-1.4-0.5v-1.2c0.5,0.2,1,0.4,1.5,0.5
		c0.5,0.1,1,0.2,1.5,0.2c1.9,0,2.8-0.7,2.8-2.2c0-1.3-1-1.9-3.1-1.9h-1.1v-1h1.1c0.8,0,1.5-0.2,2-0.6c0.5-0.4,0.7-0.9,0.7-1.5
		c0-0.5-0.2-0.9-0.5-1.2c-0.4-0.3-0.8-0.4-1.5-0.4c-0.5,0-0.9,0.1-1.3,0.2s-0.9,0.4-1.4,0.7l-0.6-0.8c0.4-0.3,0.9-0.6,1.5-0.8
		c0.6-0.2,1.2-0.3,1.8-0.3c1,0,1.8,0.2,2.4,0.7C551.3,259.3,551.6,259.9,551.6,260.8z"/>
</g>
<g>
	<path class="st1" d="M504.6,281.7h-1.2V271h6v1.1h-4.7v3.9h4.4v1.1h-4.4V281.7z"/>
	<path class="st1" d="M517.8,281.7l-1.3-3.4h-4.3l-1.3,3.4h-1.3l4.2-10.8h1l4.2,10.8H517.8z M516.1,277.1l-1.2-3.3
		c-0.2-0.4-0.3-0.9-0.5-1.5c-0.1,0.5-0.3,1-0.5,1.5l-1.3,3.3H516.1z"/>
</g>
<g>
	<path class="st3" d="M166.5,318l-3.6-9.5h-0.1c0.1,0.8,0.1,1.6,0.1,2.7v6.8h-1.1v-10.7h1.9l3.4,8.8h0.1l3.4-8.8h1.9V318h-1.2v-6.9
		c0-0.8,0-1.7,0.1-2.6h-0.1l-3.7,9.5H166.5z"/>
	<path class="st3" d="M180,318l-0.2-1.1h-0.1c-0.4,0.5-0.8,0.8-1.2,1s-0.9,0.3-1.5,0.3c-0.8,0-1.4-0.2-1.9-0.6
		c-0.5-0.4-0.7-1-0.7-1.8c0-1.6,1.3-2.5,3.9-2.5l1.4,0v-0.5c0-0.6-0.1-1.1-0.4-1.4c-0.3-0.3-0.7-0.5-1.3-0.5c-0.7,0-1.4,0.2-2.3,0.6
		l-0.4-0.9c0.4-0.2,0.8-0.4,1.3-0.5c0.5-0.1,0.9-0.2,1.4-0.2c1,0,1.7,0.2,2.1,0.6c0.5,0.4,0.7,1.1,0.7,2v5.5H180z M177.3,317.2
		c0.8,0,1.4-0.2,1.8-0.6c0.4-0.4,0.6-1,0.6-1.7v-0.7l-1.2,0.1c-1,0-1.7,0.2-2.1,0.5c-0.4,0.3-0.6,0.7-0.6,1.2c0,0.4,0.1,0.8,0.4,1
		C176.4,317,176.8,317.2,177.3,317.2z"/>
	<path class="st3" d="M188.6,315.8c0,0.7-0.3,1.3-0.8,1.7s-1.3,0.6-2.3,0.6c-1.1,0-1.9-0.2-2.5-0.5v-1.1c0.4,0.2,0.8,0.3,1.2,0.5
		c0.4,0.1,0.9,0.2,1.3,0.2c0.6,0,1.1-0.1,1.5-0.3c0.3-0.2,0.5-0.5,0.5-0.9c0-0.3-0.1-0.6-0.4-0.8c-0.3-0.2-0.8-0.5-1.6-0.8
		c-0.7-0.3-1.3-0.5-1.6-0.7c-0.3-0.2-0.5-0.4-0.7-0.7c-0.2-0.3-0.2-0.6-0.2-0.9c0-0.7,0.3-1.2,0.8-1.5c0.5-0.4,1.3-0.6,2.2-0.6
		c0.9,0,1.7,0.2,2.5,0.5l-0.4,1c-0.8-0.3-1.5-0.5-2.2-0.5c-0.6,0-1,0.1-1.3,0.3s-0.4,0.4-0.4,0.7c0,0.2,0.1,0.4,0.2,0.5
		c0.1,0.2,0.3,0.3,0.5,0.4s0.7,0.3,1.4,0.6c1,0.3,1.6,0.7,1.9,1C188.4,314.8,188.6,315.3,188.6,315.8z"/>
	<path class="st3" d="M193.2,317.2c0.2,0,0.4,0,0.6,0c0.2,0,0.4-0.1,0.5-0.1v0.9c-0.1,0.1-0.3,0.1-0.6,0.2c-0.3,0-0.5,0.1-0.7,0.1
		c-1.6,0-2.3-0.8-2.3-2.5v-4.8h-1.1v-0.6l1.1-0.5l0.5-1.7h0.7v1.9h2.3v0.9h-2.3v4.7c0,0.5,0.1,0.9,0.3,1.1S192.8,317.2,193.2,317.2z
		"/>
	<path class="st3" d="M199.3,318.2c-1.2,0-2.1-0.4-2.8-1.1s-1-1.7-1-3c0-1.3,0.3-2.3,1-3.1c0.6-0.8,1.5-1.1,2.6-1.1
		c1,0,1.8,0.3,2.4,1c0.6,0.7,0.9,1.5,0.9,2.6v0.8h-5.5c0,0.9,0.3,1.7,0.7,2.1c0.5,0.5,1.1,0.7,1.9,0.7c0.9,0,1.7-0.2,2.6-0.5v1.1
		c-0.4,0.2-0.8,0.3-1.2,0.4C200.3,318.1,199.8,318.2,199.3,318.2z M198.9,310.9c-0.6,0-1.2,0.2-1.5,0.6s-0.6,1-0.7,1.7h4.2
		c0-0.8-0.2-1.4-0.5-1.8C200.1,311.1,199.6,310.9,198.9,310.9z"/>
	<path class="st3" d="M208,309.8c0.4,0,0.7,0,1,0.1l-0.2,1.1c-0.3-0.1-0.6-0.1-0.9-0.1c-0.6,0-1.2,0.3-1.7,0.8
		c-0.5,0.5-0.7,1.2-0.7,2v4.3h-1.2v-8h1l0.1,1.5h0.1c0.3-0.5,0.7-0.9,1.1-1.2S207.5,309.8,208,309.8z"/>
</g>
<g>
	<path class="st3" d="M671.5,158.3l-3.6-9.5h-0.1c0.1,0.8,0.1,1.6,0.1,2.7v6.8h-1.1v-10.7h1.9l3.4,8.8h0.1l3.4-8.8h1.9v10.7h-1.2
		v-6.9c0-0.8,0-1.7,0.1-2.6h-0.1l-3.7,9.5H671.5z"/>
	<path class="st3" d="M685.1,158.3l-0.2-1.1h-0.1c-0.4,0.5-0.8,0.8-1.2,1s-0.9,0.3-1.5,0.3c-0.8,0-1.4-0.2-1.9-0.6
		c-0.5-0.4-0.7-1-0.7-1.8c0-1.6,1.3-2.5,3.9-2.5l1.4,0V153c0-0.6-0.1-1.1-0.4-1.4c-0.3-0.3-0.7-0.5-1.3-0.5c-0.7,0-1.4,0.2-2.3,0.6
		l-0.4-0.9c0.4-0.2,0.8-0.4,1.3-0.5c0.5-0.1,0.9-0.2,1.4-0.2c1,0,1.7,0.2,2.1,0.6c0.5,0.4,0.7,1.1,0.7,2v5.5H685.1z M682.3,157.5
		c0.8,0,1.4-0.2,1.8-0.6c0.4-0.4,0.6-1,0.6-1.7v-0.7l-1.2,0.1c-1,0-1.7,0.2-2.1,0.5c-0.4,0.3-0.6,0.7-0.6,1.2c0,0.4,0.1,0.8,0.4,1
		C681.5,157.4,681.9,157.5,682.3,157.5z"/>
	<path class="st3" d="M693.7,156.2c0,0.7-0.3,1.3-0.8,1.7s-1.3,0.6-2.3,0.6c-1.1,0-1.9-0.2-2.5-0.5v-1.1c0.4,0.2,0.8,0.3,1.2,0.5
		c0.4,0.1,0.9,0.2,1.3,0.2c0.6,0,1.1-0.1,1.5-0.3c0.3-0.2,0.5-0.5,0.5-0.9c0-0.3-0.1-0.6-0.4-0.8c-0.3-0.2-0.8-0.5-1.6-0.8
		c-0.7-0.3-1.3-0.5-1.6-0.7c-0.3-0.2-0.5-0.4-0.7-0.7c-0.2-0.3-0.2-0.6-0.2-0.9c0-0.7,0.3-1.2,0.8-1.5c0.5-0.4,1.3-0.6,2.2-0.6
		c0.9,0,1.7,0.2,2.5,0.5l-0.4,1c-0.8-0.3-1.5-0.5-2.2-0.5c-0.6,0-1,0.1-1.3,0.3s-0.4,0.4-0.4,0.7c0,0.2,0.1,0.4,0.2,0.5
		c0.1,0.2,0.3,0.3,0.5,0.4s0.7,0.3,1.4,0.6c1,0.3,1.6,0.7,1.9,1C693.5,155.2,693.7,155.6,693.7,156.2z"/>
	<path class="st3" d="M698.2,157.5c0.2,0,0.4,0,0.6,0c0.2,0,0.4-0.1,0.5-0.1v0.9c-0.1,0.1-0.3,0.1-0.6,0.2c-0.3,0-0.5,0.1-0.7,0.1
		c-1.6,0-2.3-0.8-2.3-2.5v-4.8h-1.1v-0.6l1.1-0.5l0.5-1.7h0.7v1.9h2.3v0.9H697v4.7c0,0.5,0.1,0.9,0.3,1.1S697.8,157.5,698.2,157.5z"
		/>
	<path class="st3" d="M704.3,158.5c-1.2,0-2.1-0.4-2.8-1.1s-1-1.7-1-3c0-1.3,0.3-2.3,1-3.1c0.6-0.8,1.5-1.1,2.6-1.1
		c1,0,1.8,0.3,2.4,1c0.6,0.7,0.9,1.5,0.9,2.6v0.8h-5.5c0,0.9,0.3,1.7,0.7,2.1c0.5,0.5,1.1,0.7,1.9,0.7c0.9,0,1.7-0.2,2.6-0.5v1.1
		c-0.4,0.2-0.8,0.3-1.2,0.4C705.3,158.5,704.9,158.5,704.3,158.5z M704,151.2c-0.6,0-1.2,0.2-1.5,0.6s-0.6,1-0.7,1.7h4.2
		c0-0.8-0.2-1.4-0.5-1.8C705.1,151.4,704.6,151.2,704,151.2z"/>
	<path class="st3" d="M713,150.2c0.4,0,0.7,0,1,0.1l-0.2,1.1c-0.3-0.1-0.6-0.1-0.9-0.1c-0.6,0-1.2,0.3-1.7,0.8
		c-0.5,0.5-0.7,1.2-0.7,2v4.3h-1.2v-8h1l0.1,1.5h0.1c0.3-0.5,0.7-0.9,1.1-1.2S712.5,150.2,713,150.2z"/>
</g>
<g>
	<path d="M640,206.3h-1.2v-9.6h-3.4v-1.1h8v1.1H640V206.3z"/>
	<path d="M649.7,206.3l-0.2-1.1h-0.1c-0.4,0.5-0.8,0.8-1.2,1s-0.9,0.3-1.5,0.3c-0.8,0-1.4-0.2-1.9-0.6c-0.5-0.4-0.7-1-0.7-1.8
		c0-1.6,1.3-2.5,3.9-2.5l1.4,0V201c0-0.6-0.1-1.1-0.4-1.4c-0.3-0.3-0.7-0.5-1.3-0.5c-0.7,0-1.4,0.2-2.3,0.6l-0.4-0.9
		c0.4-0.2,0.8-0.4,1.3-0.5c0.5-0.1,0.9-0.2,1.4-0.2c1,0,1.7,0.2,2.1,0.6c0.5,0.4,0.7,1.1,0.7,2v5.5H649.7z M647,205.4
		c0.8,0,1.4-0.2,1.8-0.6c0.4-0.4,0.6-1,0.6-1.7v-0.7l-1.2,0.1c-1,0-1.7,0.2-2.1,0.5c-0.4,0.3-0.6,0.7-0.6,1.2c0,0.4,0.1,0.8,0.4,1
		C646.1,205.3,646.5,205.4,647,205.4z"/>
	<path d="M656.8,198.1c0.4,0,0.7,0,1,0.1l-0.2,1.1c-0.3-0.1-0.6-0.1-0.9-0.1c-0.6,0-1.2,0.3-1.7,0.8c-0.5,0.5-0.7,1.2-0.7,2v4.3
		h-1.2v-8h1l0.1,1.5h0.1c0.3-0.5,0.7-0.9,1.1-1.2S656.3,198.1,656.8,198.1z"/>
	<path d="M665.8,198.2v0.8l-1.5,0.2c0.1,0.2,0.3,0.4,0.4,0.7c0.1,0.3,0.2,0.6,0.2,0.9c0,0.8-0.3,1.4-0.8,1.9s-1.3,0.7-2.2,0.7
		c-0.2,0-0.5,0-0.7-0.1c-0.5,0.3-0.8,0.6-0.8,1c0,0.2,0.1,0.4,0.3,0.5c0.2,0.1,0.5,0.2,0.9,0.2h1.4c0.9,0,1.5,0.2,2,0.5
		s0.7,0.9,0.7,1.6c0,0.9-0.4,1.6-1.1,2c-0.7,0.5-1.8,0.7-3.1,0.7c-1,0-1.9-0.2-2.4-0.6s-0.9-0.9-0.9-1.7c0-0.5,0.2-0.9,0.5-1.3
		s0.8-0.6,1.3-0.7c-0.2-0.1-0.4-0.2-0.5-0.4c-0.1-0.2-0.2-0.4-0.2-0.7c0-0.3,0.1-0.5,0.2-0.8s0.4-0.4,0.7-0.6
		c-0.4-0.2-0.8-0.5-1-0.9c-0.3-0.4-0.4-0.9-0.4-1.4c0-0.9,0.3-1.6,0.8-2c0.5-0.5,1.3-0.7,2.2-0.7c0.4,0,0.8,0,1.1,0.1H665.8z
		 M659.4,207.6c0,0.4,0.2,0.8,0.5,1s0.9,0.3,1.6,0.3c1,0,1.8-0.2,2.3-0.5c0.5-0.3,0.7-0.7,0.7-1.2c0-0.4-0.1-0.7-0.4-0.9
		c-0.3-0.2-0.8-0.3-1.5-0.3h-1.5c-0.6,0-1,0.1-1.3,0.4S659.4,207.1,659.4,207.6z M660.1,200.8c0,0.6,0.2,1,0.5,1.3s0.8,0.4,1.3,0.4
		c1.2,0,1.8-0.6,1.8-1.7c0-1.2-0.6-1.8-1.8-1.8c-0.6,0-1,0.2-1.3,0.5S660.1,200.2,660.1,200.8z"/>
	<path d="M670.9,206.4c-1.2,0-2.1-0.4-2.8-1.1s-1-1.7-1-3c0-1.3,0.3-2.3,1-3.1c0.6-0.8,1.5-1.1,2.6-1.1c1,0,1.8,0.3,2.4,1
		c0.6,0.7,0.9,1.5,0.9,2.6v0.8h-5.5c0,0.9,0.3,1.7,0.7,2.1c0.5,0.5,1.1,0.7,1.9,0.7c0.9,0,1.7-0.2,2.6-0.5v1.1
		c-0.4,0.2-0.8,0.3-1.2,0.4C671.9,206.4,671.4,206.4,670.9,206.4z M670.5,199.1c-0.6,0-1.2,0.2-1.5,0.6s-0.6,1-0.7,1.7h4.2
		c0-0.8-0.2-1.4-0.5-1.8C671.7,199.3,671.2,199.1,670.5,199.1z"/>
	<path d="M678.5,205.4c0.2,0,0.4,0,0.6,0c0.2,0,0.4-0.1,0.5-0.1v0.9c-0.1,0.1-0.3,0.1-0.6,0.2c-0.3,0-0.5,0.1-0.7,0.1
		c-1.6,0-2.3-0.8-2.3-2.5v-4.8h-1.1v-0.6l1.1-0.5l0.5-1.7h0.7v1.9h2.3v0.9h-2.3v4.7c0,0.5,0.1,0.9,0.3,1.1S678.1,205.4,678.5,205.4z
		"/>
	<path d="M688.3,206.4c-1.2,0-2.1-0.4-2.7-1.1c-0.6-0.7-1-1.7-1-3c0-1.3,0.3-2.4,1-3.1s1.6-1.1,2.8-1.1c0.4,0,0.8,0,1.2,0.1
		s0.7,0.2,0.9,0.3l-0.4,1c-0.3-0.1-0.6-0.2-0.9-0.3c-0.3-0.1-0.6-0.1-0.8-0.1c-1.6,0-2.4,1-2.4,3.1c0,1,0.2,1.7,0.6,2.3
		c0.4,0.5,1,0.8,1.8,0.8c0.7,0,1.4-0.1,2.1-0.4v1.1C689.8,206.3,689.1,206.4,688.3,206.4z"/>
	<path d="M693.4,206.3h-1.2v-11.4h1.2V206.3z"/>
	<path d="M697.2,198.2v5.2c0,0.7,0.1,1.1,0.4,1.5s0.8,0.5,1.4,0.5c0.8,0,1.5-0.2,1.8-0.7c0.4-0.5,0.6-1.2,0.6-2.2v-4.2h1.2v8h-1
		l-0.2-1.1h-0.1c-0.2,0.4-0.6,0.7-1,0.9s-0.9,0.3-1.5,0.3c-1,0-1.7-0.2-2.2-0.7s-0.7-1.2-0.7-2.2v-5.3H697.2z"/>
	<path d="M710.4,204.1c0,0.7-0.3,1.3-0.8,1.7s-1.3,0.6-2.3,0.6c-1.1,0-1.9-0.2-2.5-0.5v-1.1c0.4,0.2,0.8,0.3,1.2,0.5
		c0.4,0.1,0.9,0.2,1.3,0.2c0.6,0,1.1-0.1,1.5-0.3c0.3-0.2,0.5-0.5,0.5-0.9c0-0.3-0.1-0.6-0.4-0.8c-0.3-0.2-0.8-0.5-1.6-0.8
		c-0.7-0.3-1.3-0.5-1.6-0.7c-0.3-0.2-0.5-0.4-0.7-0.7c-0.2-0.3-0.2-0.6-0.2-0.9c0-0.7,0.3-1.2,0.8-1.5c0.5-0.4,1.3-0.6,2.2-0.6
		c0.9,0,1.7,0.2,2.5,0.5l-0.4,1c-0.8-0.3-1.5-0.5-2.2-0.5c-0.6,0-1,0.1-1.3,0.3s-0.4,0.4-0.4,0.7c0,0.2,0.1,0.4,0.2,0.5
		c0.1,0.2,0.3,0.3,0.5,0.4s0.7,0.3,1.4,0.6c1,0.3,1.6,0.7,1.9,1C710.2,203.1,710.4,203.5,710.4,204.1z"/>
	<path d="M715,205.4c0.2,0,0.4,0,0.6,0c0.2,0,0.4-0.1,0.5-0.1v0.9c-0.1,0.1-0.3,0.1-0.6,0.2c-0.3,0-0.5,0.1-0.7,0.1
		c-1.6,0-2.3-0.8-2.3-2.5v-4.8h-1.1v-0.6l1.1-0.5l0.5-1.7h0.7v1.9h2.3v0.9h-2.3v4.7c0,0.5,0.1,0.9,0.3,1.1S714.6,205.4,715,205.4z"
		/>
	<path d="M721.1,206.4c-1.2,0-2.1-0.4-2.8-1.1s-1-1.7-1-3c0-1.3,0.3-2.3,1-3.1c0.6-0.8,1.5-1.1,2.6-1.1c1,0,1.8,0.3,2.4,1
		c0.6,0.7,0.9,1.5,0.9,2.6v0.8h-5.5c0,0.9,0.3,1.7,0.7,2.1c0.5,0.5,1.1,0.7,1.9,0.7c0.9,0,1.7-0.2,2.6-0.5v1.1
		c-0.4,0.2-0.8,0.3-1.2,0.4C722.1,206.4,721.6,206.4,721.1,206.4z M720.7,199.1c-0.6,0-1.2,0.2-1.5,0.6s-0.6,1-0.7,1.7h4.2
		c0-0.8-0.2-1.4-0.5-1.8C721.9,199.3,721.4,199.1,720.7,199.1z"/>
	<path d="M729.7,198.1c0.4,0,0.7,0,1,0.1l-0.2,1.1c-0.3-0.1-0.6-0.1-0.9-0.1c-0.6,0-1.2,0.3-1.7,0.8c-0.5,0.5-0.7,1.2-0.7,2v4.3
		h-1.2v-8h1l0.1,1.5h0.1c0.3-0.5,0.7-0.9,1.1-1.2S729.2,198.1,729.7,198.1z"/>
	<path d="M731.5,202.8v-1.1h3.6v1.1H731.5z"/>
	<path d="M741,206.3h-1.2v-7.6c0-0.6,0-1.2,0.1-1.8c-0.1,0.1-0.2,0.2-0.3,0.3s-0.7,0.6-1.7,1.4l-0.6-0.8l2.8-2.2h1V206.3z"/>
</g>
<g>
	<path class="st3" d="M527.8,471.4h-1.2v-10.7h6v1.1h-4.7v3.9h4.4v1.1h-4.4V471.4z"/>
	<path class="st3" d="M540.5,471.4h-7v-1l2.8-2.8c0.9-0.9,1.4-1.5,1.7-1.9s0.5-0.7,0.6-1.1s0.2-0.7,0.2-1.1c0-0.6-0.2-1-0.5-1.4
		c-0.3-0.3-0.8-0.5-1.4-0.5c-0.4,0-0.9,0.1-1.3,0.2c-0.4,0.1-0.8,0.4-1.3,0.8l-0.6-0.8c1-0.8,2.1-1.2,3.2-1.2c1,0,1.8,0.3,2.4,0.8
		c0.6,0.5,0.9,1.2,0.9,2.1c0,0.7-0.2,1.4-0.6,2s-1.1,1.5-2.1,2.5l-2.3,2.3v0.1h5.5V471.4z"/>
</g>
<g>
	<path class="st3" d="M527.8,583.8h-1.2v-10.7h6v1.1h-4.7v3.9h4.4v1.1h-4.4V583.8z"/>
	<path class="st3" d="M540.1,575.6c0,0.7-0.2,1.2-0.6,1.7c-0.4,0.4-0.9,0.7-1.6,0.9v0.1c0.9,0.1,1.5,0.4,1.9,0.8s0.6,1,0.6,1.7
		c0,1-0.4,1.8-1.1,2.4c-0.7,0.5-1.7,0.8-3,0.8c-0.6,0-1.1,0-1.6-0.1c-0.5-0.1-0.9-0.2-1.4-0.5v-1.2c0.5,0.2,1,0.4,1.5,0.5
		c0.5,0.1,1,0.2,1.5,0.2c1.9,0,2.8-0.7,2.8-2.2c0-1.3-1-1.9-3.1-1.9h-1.1v-1h1.1c0.8,0,1.5-0.2,2-0.6c0.5-0.4,0.7-0.9,0.7-1.5
		c0-0.5-0.2-0.9-0.5-1.2c-0.4-0.3-0.8-0.4-1.5-0.4c-0.5,0-0.9,0.1-1.3,0.2s-0.9,0.4-1.4,0.7l-0.6-0.8c0.4-0.3,0.9-0.6,1.5-0.8
		c0.6-0.2,1.2-0.3,1.8-0.3c1,0,1.8,0.2,2.4,0.7C539.9,574.1,540.1,574.8,540.1,575.6z"/>
</g>
<g>
	<path class="st3" d="M671.8,473.2l-3.6-9.5h-0.1c0.1,0.8,0.1,1.6,0.1,2.7v6.8H667v-10.7h1.9l3.4,8.8h0.1l3.4-8.8h1.9v10.7h-1.2
		v-6.9c0-0.8,0-1.7,0.1-2.6h-0.1l-3.7,9.5H671.8z"/>
	<path class="st3" d="M685.3,473.2l-0.2-1.1H685c-0.4,0.5-0.8,0.8-1.2,1c-0.4,0.2-0.9,0.3-1.5,0.3c-0.8,0-1.4-0.2-1.9-0.6
		c-0.5-0.4-0.7-1-0.7-1.8c0-1.6,1.3-2.5,3.9-2.5l1.4,0v-0.5c0-0.6-0.1-1.1-0.4-1.4c-0.3-0.3-0.7-0.5-1.3-0.5c-0.7,0-1.4,0.2-2.3,0.6
		l-0.4-0.9c0.4-0.2,0.8-0.4,1.3-0.5c0.5-0.1,0.9-0.2,1.4-0.2c1,0,1.7,0.2,2.1,0.6c0.5,0.4,0.7,1.1,0.7,2v5.5H685.3z M682.6,472.3
		c0.8,0,1.4-0.2,1.8-0.6c0.4-0.4,0.6-1,0.6-1.7v-0.7l-1.2,0.1c-1,0-1.7,0.2-2.1,0.5c-0.4,0.3-0.6,0.7-0.6,1.2c0,0.4,0.1,0.8,0.4,1
		C681.7,472.2,682.1,472.3,682.6,472.3z"/>
	<path class="st3" d="M693.9,471c0,0.7-0.3,1.3-0.8,1.7s-1.3,0.6-2.3,0.6c-1.1,0-1.9-0.2-2.5-0.5v-1.1c0.4,0.2,0.8,0.3,1.2,0.5
		c0.4,0.1,0.9,0.2,1.3,0.2c0.6,0,1.1-0.1,1.5-0.3c0.3-0.2,0.5-0.5,0.5-0.9c0-0.3-0.1-0.6-0.4-0.8c-0.3-0.2-0.8-0.5-1.6-0.8
		c-0.7-0.3-1.3-0.5-1.6-0.7c-0.3-0.2-0.5-0.4-0.7-0.7c-0.2-0.3-0.2-0.6-0.2-0.9c0-0.7,0.3-1.2,0.8-1.5c0.5-0.4,1.3-0.6,2.2-0.6
		c0.9,0,1.7,0.2,2.5,0.5l-0.4,1c-0.8-0.3-1.5-0.5-2.2-0.5c-0.6,0-1,0.1-1.3,0.3s-0.4,0.4-0.4,0.7c0,0.2,0.1,0.4,0.2,0.5
		c0.1,0.2,0.3,0.3,0.5,0.4s0.7,0.3,1.4,0.6c1,0.3,1.6,0.7,1.9,1C693.7,470,693.9,470.5,693.9,471z"/>
	<path class="st3" d="M698.5,472.3c0.2,0,0.4,0,0.6,0c0.2,0,0.4-0.1,0.5-0.1v0.9c-0.1,0.1-0.3,0.1-0.6,0.2c-0.3,0-0.5,0.1-0.7,0.1
		c-1.6,0-2.3-0.8-2.3-2.5v-4.8h-1.1v-0.6l1.1-0.5l0.5-1.7h0.7v1.9h2.3v0.9h-2.3v4.7c0,0.5,0.1,0.9,0.3,1.1S698.1,472.3,698.5,472.3z
		"/>
	<path class="st3" d="M704.6,473.3c-1.2,0-2.1-0.4-2.8-1.1s-1-1.7-1-3c0-1.3,0.3-2.3,1-3.1c0.6-0.8,1.5-1.1,2.6-1.1
		c1,0,1.8,0.3,2.4,1c0.6,0.7,0.9,1.5,0.9,2.6v0.8H702c0,0.9,0.3,1.7,0.7,2.1c0.5,0.5,1.1,0.7,1.9,0.7c0.9,0,1.7-0.2,2.6-0.5v1.1
		c-0.4,0.2-0.8,0.3-1.2,0.4C705.6,473.3,705.1,473.3,704.6,473.3z M704.2,466c-0.6,0-1.2,0.2-1.5,0.6s-0.6,1-0.7,1.7h4.2
		c0-0.8-0.2-1.4-0.5-1.8C705.4,466.2,704.9,466,704.2,466z"/>
	<path class="st3" d="M713.3,465c0.4,0,0.7,0,1,0.1l-0.2,1.1c-0.3-0.1-0.6-0.1-0.9-0.1c-0.6,0-1.2,0.3-1.7,0.8
		c-0.5,0.5-0.7,1.2-0.7,2v4.3h-1.2v-8h1l0.1,1.5h0.1c0.3-0.5,0.7-0.9,1.1-1.2S712.8,465,713.3,465z"/>
</g>
<g>
	<path d="M640.2,521.1H639v-9.6h-3.4v-1.1h8v1.1h-3.4V521.1z"/>
	<path d="M650,521.1l-0.2-1.1h-0.1c-0.4,0.5-0.8,0.8-1.2,1c-0.4,0.2-0.9,0.3-1.5,0.3c-0.8,0-1.4-0.2-1.9-0.6c-0.5-0.4-0.7-1-0.7-1.8
		c0-1.6,1.3-2.5,3.9-2.5l1.4,0v-0.5c0-0.6-0.1-1.1-0.4-1.4c-0.3-0.3-0.7-0.5-1.3-0.5c-0.7,0-1.4,0.2-2.3,0.6l-0.4-0.9
		c0.4-0.2,0.8-0.4,1.3-0.5c0.5-0.1,0.9-0.2,1.4-0.2c1,0,1.7,0.2,2.1,0.6c0.5,0.4,0.7,1.1,0.7,2v5.5H650z M647.2,520.3
		c0.8,0,1.4-0.2,1.8-0.6c0.4-0.4,0.6-1,0.6-1.7v-0.7l-1.2,0.1c-1,0-1.7,0.2-2.1,0.5c-0.4,0.3-0.6,0.7-0.6,1.2c0,0.4,0.1,0.8,0.4,1
		C646.4,520.1,646.7,520.3,647.2,520.3z"/>
	<path d="M657,512.9c0.4,0,0.7,0,1,0.1l-0.2,1.1c-0.3-0.1-0.6-0.1-0.9-0.1c-0.6,0-1.2,0.3-1.7,0.8c-0.5,0.5-0.7,1.2-0.7,2v4.3h-1.2
		v-8h1l0.1,1.5h0.1c0.3-0.5,0.7-0.9,1.1-1.2S656.5,512.9,657,512.9z"/>
	<path d="M666.1,513.1v0.8l-1.5,0.2c0.1,0.2,0.3,0.4,0.4,0.7c0.1,0.3,0.2,0.6,0.2,0.9c0,0.8-0.3,1.4-0.8,1.9s-1.3,0.7-2.2,0.7
		c-0.2,0-0.5,0-0.7-0.1c-0.5,0.3-0.8,0.6-0.8,1c0,0.2,0.1,0.4,0.3,0.5c0.2,0.1,0.5,0.2,0.9,0.2h1.4c0.9,0,1.5,0.2,2,0.5
		s0.7,0.9,0.7,1.6c0,0.9-0.4,1.6-1.1,2c-0.7,0.5-1.8,0.7-3.1,0.7c-1,0-1.9-0.2-2.4-0.6s-0.9-0.9-0.9-1.7c0-0.5,0.2-0.9,0.5-1.3
		s0.8-0.6,1.3-0.7c-0.2-0.1-0.4-0.2-0.5-0.4c-0.1-0.2-0.2-0.4-0.2-0.7c0-0.3,0.1-0.5,0.2-0.8s0.4-0.4,0.7-0.6
		c-0.4-0.2-0.8-0.5-1-0.9c-0.3-0.4-0.4-0.9-0.4-1.4c0-0.9,0.3-1.6,0.8-2c0.5-0.5,1.3-0.7,2.2-0.7c0.4,0,0.8,0,1.1,0.1H666.1z
		 M659.7,522.5c0,0.4,0.2,0.8,0.5,1s0.9,0.3,1.6,0.3c1,0,1.8-0.2,2.3-0.5c0.5-0.3,0.7-0.7,0.7-1.2c0-0.4-0.1-0.7-0.4-0.9
		c-0.3-0.2-0.8-0.3-1.5-0.3h-1.5c-0.6,0-1,0.1-1.3,0.4S659.7,522,659.7,522.5z M660.3,515.7c0,0.6,0.2,1,0.5,1.3s0.8,0.4,1.3,0.4
		c1.2,0,1.8-0.6,1.8-1.7c0-1.2-0.6-1.8-1.8-1.8c-0.6,0-1,0.2-1.3,0.5S660.3,515,660.3,515.7z"/>
	<path d="M671.1,521.3c-1.2,0-2.1-0.4-2.8-1.1s-1-1.7-1-3c0-1.3,0.3-2.3,1-3.1c0.6-0.8,1.5-1.1,2.6-1.1c1,0,1.8,0.3,2.4,1
		c0.6,0.7,0.9,1.5,0.9,2.6v0.8h-5.5c0,0.9,0.3,1.7,0.7,2.1c0.5,0.5,1.1,0.7,1.9,0.7c0.9,0,1.7-0.2,2.6-0.5v1.1
		c-0.4,0.2-0.8,0.3-1.2,0.4C672.1,521.2,671.6,521.3,671.1,521.3z M670.8,514c-0.6,0-1.2,0.2-1.5,0.6s-0.6,1-0.7,1.7h4.2
		c0-0.8-0.2-1.4-0.5-1.8C671.9,514.2,671.4,514,670.8,514z"/>
	<path d="M678.7,520.3c0.2,0,0.4,0,0.6,0c0.2,0,0.4-0.1,0.5-0.1v0.9c-0.1,0.1-0.3,0.1-0.6,0.2c-0.3,0-0.5,0.1-0.7,0.1
		c-1.6,0-2.3-0.8-2.3-2.5V514h-1.1v-0.6l1.1-0.5l0.5-1.7h0.7v1.9h2.3v0.9h-2.3v4.7c0,0.5,0.1,0.9,0.3,1.1S678.3,520.3,678.7,520.3z"
		/>
	<path d="M688.5,521.3c-1.2,0-2.1-0.4-2.7-1.1c-0.6-0.7-1-1.7-1-3c0-1.3,0.3-2.4,1-3.1s1.6-1.1,2.8-1.1c0.4,0,0.8,0,1.2,0.1
		s0.7,0.2,0.9,0.3l-0.4,1c-0.3-0.1-0.6-0.2-0.9-0.3c-0.3-0.1-0.6-0.1-0.8-0.1c-1.6,0-2.4,1-2.4,3.1c0,1,0.2,1.7,0.6,2.3
		c0.4,0.5,1,0.8,1.8,0.8c0.7,0,1.4-0.1,2.1-0.4v1.1C690,521.1,689.3,521.3,688.5,521.3z"/>
	<path d="M693.7,521.1h-1.2v-11.4h1.2V521.1z"/>
	<path d="M697.4,513.1v5.2c0,0.7,0.1,1.1,0.4,1.5s0.8,0.5,1.4,0.5c0.8,0,1.5-0.2,1.8-0.7c0.4-0.5,0.6-1.2,0.6-2.2v-4.2h1.2v8h-1
		l-0.2-1.1h-0.1c-0.2,0.4-0.6,0.7-1,0.9s-0.9,0.3-1.5,0.3c-1,0-1.7-0.2-2.2-0.7s-0.7-1.2-0.7-2.2v-5.3H697.4z"/>
	<path d="M710.6,518.9c0,0.7-0.3,1.3-0.8,1.7s-1.3,0.6-2.3,0.6c-1.1,0-1.9-0.2-2.5-0.5v-1.1c0.4,0.2,0.8,0.3,1.2,0.5
		c0.4,0.1,0.9,0.2,1.3,0.2c0.6,0,1.1-0.1,1.5-0.3c0.3-0.2,0.5-0.5,0.5-0.9c0-0.3-0.1-0.6-0.4-0.8c-0.3-0.2-0.8-0.5-1.6-0.8
		c-0.7-0.3-1.3-0.5-1.6-0.7c-0.3-0.2-0.5-0.4-0.7-0.7c-0.2-0.3-0.2-0.6-0.2-0.9c0-0.7,0.3-1.2,0.8-1.5c0.5-0.4,1.3-0.6,2.2-0.6
		c0.9,0,1.7,0.2,2.5,0.5l-0.4,1c-0.8-0.3-1.5-0.5-2.2-0.5c-0.6,0-1,0.1-1.3,0.3s-0.4,0.4-0.4,0.7c0,0.2,0.1,0.4,0.2,0.5
		c0.1,0.2,0.3,0.3,0.5,0.4s0.7,0.3,1.4,0.6c1,0.3,1.6,0.7,1.9,1C710.5,517.9,710.6,518.4,710.6,518.9z"/>
	<path d="M715.2,520.3c0.2,0,0.4,0,0.6,0c0.2,0,0.4-0.1,0.5-0.1v0.9c-0.1,0.1-0.3,0.1-0.6,0.2c-0.3,0-0.5,0.1-0.7,0.1
		c-1.6,0-2.3-0.8-2.3-2.5V514h-1.1v-0.6l1.1-0.5l0.5-1.7h0.7v1.9h2.3v0.9h-2.3v4.7c0,0.5,0.1,0.9,0.3,1.1S714.8,520.3,715.2,520.3z"
		/>
	<path d="M721.3,521.3c-1.2,0-2.1-0.4-2.8-1.1s-1-1.7-1-3c0-1.3,0.3-2.3,1-3.1c0.6-0.8,1.5-1.1,2.6-1.1c1,0,1.8,0.3,2.4,1
		c0.6,0.7,0.9,1.5,0.9,2.6v0.8h-5.5c0,0.9,0.3,1.7,0.7,2.1c0.5,0.5,1.1,0.7,1.9,0.7c0.9,0,1.7-0.2,2.6-0.5v1.1
		c-0.4,0.2-0.8,0.3-1.2,0.4C722.3,521.2,721.8,521.3,721.3,521.3z M721,514c-0.6,0-1.2,0.2-1.5,0.6s-0.6,1-0.7,1.7h4.2
		c0-0.8-0.2-1.4-0.5-1.8C722.1,514.2,721.6,514,721,514z"/>
	<path d="M730,512.9c0.4,0,0.7,0,1,0.1l-0.2,1.1c-0.3-0.1-0.6-0.1-0.9-0.1c-0.6,0-1.2,0.3-1.7,0.8c-0.5,0.5-0.7,1.2-0.7,2v4.3h-1.2
		v-8h1l0.1,1.5h0.1c0.3-0.5,0.7-0.9,1.1-1.2S729.5,512.9,730,512.9z"/>
	<path d="M731.8,517.6v-1.1h3.6v1.1H731.8z"/>
	<path d="M743.7,521.1h-7v-1l2.8-2.8c0.9-0.9,1.4-1.5,1.7-1.9s0.5-0.7,0.6-1.1s0.2-0.7,0.2-1.1c0-0.6-0.2-1-0.5-1.4
		c-0.3-0.3-0.8-0.5-1.4-0.5c-0.4,0-0.9,0.1-1.3,0.2c-0.4,0.1-0.8,0.4-1.3,0.8l-0.6-0.8c1-0.8,2.1-1.2,3.2-1.2c1,0,1.8,0.3,2.4,0.8
		c0.6,0.5,0.9,1.2,0.9,2.1c0,0.7-0.2,1.4-0.6,2s-1.1,1.5-2.1,2.5l-2.3,2.3v0.1h5.5V521.1z"/>
</g>
<g>
	<path class="st1" d="M537.9,360.2h-1.2v-10.7h6v1.1h-4.7v3.9h4.4v1.1h-4.4V360.2z"/>
	<path class="st1" d="M548.2,360.2H547v-7.6c0-0.6,0-1.2,0.1-1.8c-0.1,0.1-0.2,0.2-0.3,0.3s-0.7,0.6-1.7,1.4l-0.6-0.8l2.8-2.2h1
		V360.2z"/>
</g>
<g>
	<path class="st1" d="M503.3,372.9h-1.2v-10.7h6v1.1h-4.7v3.9h4.4v1.1h-4.4V372.9z"/>
	<path class="st1" d="M516.6,372.9l-1.3-3.4h-4.3l-1.3,3.4h-1.3l4.2-10.8h1l4.2,10.8H516.6z M514.8,368.4l-1.2-3.3
		c-0.2-0.4-0.3-0.9-0.5-1.5c-0.1,0.5-0.3,1-0.5,1.5l-1.3,3.3H514.8z"/>
</g>
<line class="st5" x1="416.3" y1="333.1" x2="416.3" y2="407.9"/>
<line class="st5" x1="417" y1="188.9" x2="417" y2="283.5"/>
<line class="st2" x1="429.1" y1="293.9" x2="492.5" y2="293.9"/>
<line class="st2" x1="427.8" y1="324.7" x2="491.2" y2="324.7"/>
<g>
	<path d="M7.6,452h5.4v1.1H8.9v3.4h3.8v1.1H8.9v4.6H7.6V452z"/>
	<path d="M15.4,459l-1,3.2H13l3.4-10.1H18l3.4,10.1h-1.4L19,459H15.4z M18.7,457.9l-1-2.9c-0.2-0.7-0.4-1.3-0.5-1.8h0
		c-0.1,0.6-0.3,1.2-0.5,1.8l-1,2.9H18.7z"/>
</g>
<g>
	<path d="M327,489.9c0.7-0.1,1.6-0.2,2.5-0.2c1.4,0,2.3,0.3,2.9,0.8c0.5,0.5,0.8,1.1,0.8,1.9c0,1.3-0.8,2.2-1.9,2.6v0
		c0.8,0.3,1.2,1,1.5,2c0.3,1.4,0.6,2.4,0.8,2.8h-1.3c-0.2-0.3-0.4-1.2-0.7-2.4c-0.3-1.4-0.8-1.9-2-2h-1.2v4.4H327V489.9z
		 M328.3,494.5h1.3c1.4,0,2.3-0.8,2.3-1.9c0-1.3-0.9-1.9-2.3-1.9c-0.6,0-1.1,0.1-1.3,0.1V494.5z"/>
	<path d="M335.8,496.4c0,1.8,1.2,2.5,2.5,2.5c0.9,0,1.5-0.2,2-0.4l0.2,0.9c-0.5,0.2-1.3,0.5-2.4,0.5c-2.2,0-3.6-1.5-3.6-3.7
		c0-2.2,1.3-3.9,3.4-3.9c2.4,0,3,2.1,3,3.4c0,0.3,0,0.5,0,0.6H335.8z M339.7,495.5c0-0.8-0.3-2.1-1.8-2.1c-1.3,0-1.9,1.2-2,2.1
		H339.7z"/>
	<path d="M342.6,494.5c0-0.8,0-1.4-0.1-2h1.2l0.1,1.2h0c0.4-0.7,1.1-1.3,2.3-1.3c1,0,1.7,0.6,2.1,1.5h0c0.2-0.4,0.5-0.7,0.8-0.9
		c0.4-0.3,0.9-0.5,1.6-0.5c1,0,2.4,0.6,2.4,3.2v4.3h-1.3v-4.1c0-1.4-0.5-2.2-1.6-2.2c-0.8,0-1.3,0.6-1.6,1.2
		c-0.1,0.2-0.1,0.4-0.1,0.7v4.5h-1.3v-4.3c0-1.2-0.5-2-1.5-2c-0.8,0-1.4,0.7-1.6,1.3c-0.1,0.2-0.1,0.4-0.1,0.6v4.4h-1.3V494.5z"/>
	<path d="M361.7,496.1c0,2.7-1.9,3.9-3.6,3.9c-2,0-3.5-1.4-3.5-3.7c0-2.4,1.6-3.9,3.6-3.9C360.2,492.4,361.7,493.9,361.7,496.1z
		 M355.9,496.2c0,1.6,0.9,2.8,2.2,2.8c1.3,0,2.2-1.2,2.2-2.8c0-1.2-0.6-2.8-2.2-2.8C356.6,493.4,355.9,494.8,355.9,496.2z"/>
	<path d="M364.9,490.5v2.1h1.9v1h-1.9v3.9c0,0.9,0.3,1.4,1,1.4c0.3,0,0.6,0,0.8-0.1l0.1,1c-0.3,0.1-0.7,0.2-1.2,0.2
		c-0.6,0-1.1-0.2-1.4-0.6c-0.4-0.4-0.5-1-0.5-1.9v-4h-1.1v-1h1.1v-1.7L364.9,490.5z"/>
	<path d="M368.9,496.4c0,1.8,1.2,2.5,2.5,2.5c0.9,0,1.5-0.2,2-0.4l0.2,0.9c-0.5,0.2-1.3,0.5-2.4,0.5c-2.2,0-3.6-1.5-3.6-3.7
		c0-2.2,1.3-3.9,3.4-3.9c2.4,0,3,2.1,3,3.4c0,0.3,0,0.5,0,0.6H368.9z M372.8,495.5c0-0.8-0.3-2.1-1.8-2.1c-1.3,0-1.9,1.2-2,2.1
		H372.8z"/>
	<path d="M381.8,489.4c-1.1,1.5-1.9,3.4-1.9,6.1c0,2.7,0.8,4.6,1.9,6.1h-1c-0.9-1.2-2-3.2-2-6.1c0-3,1-4.9,2-6.1H381.8z"/>
	<path d="M391.7,495.4c-0.1-1.4-0.2-3.1-0.2-4.4h0c-0.3,1.2-0.8,2.4-1.3,3.8l-1.8,4.9h-1l-1.6-4.8c-0.5-1.4-0.9-2.7-1.2-3.9h0
		c0,1.3-0.1,3-0.2,4.5l-0.3,4.3h-1.2l0.7-10.1h1.7l1.7,4.9c0.4,1.2,0.8,2.4,1,3.4h0c0.3-1,0.6-2.1,1.1-3.4l1.8-4.9h1.7l0.6,10.1H392
		L391.7,495.4z"/>
	<path d="M399.3,499.8l-0.1-0.9h0c-0.4,0.6-1.2,1.1-2.2,1.1c-1.5,0-2.2-1-2.2-2.1c0-1.8,1.6-2.7,4.4-2.7v-0.1c0-0.6-0.2-1.7-1.6-1.7
		c-0.7,0-1.4,0.2-1.9,0.5l-0.3-0.9c0.6-0.4,1.5-0.6,2.4-0.6c2.2,0,2.8,1.5,2.8,3v2.7c0,0.6,0,1.2,0.1,1.7H399.3z M399.1,496.1
		c-1.4,0-3.1,0.2-3.1,1.6c0,0.9,0.6,1.3,1.2,1.3c0.9,0,1.5-0.6,1.8-1.2c0-0.1,0.1-0.3,0.1-0.4V496.1z"/>
	<path d="M402.3,498.5c0.4,0.3,1.1,0.5,1.7,0.5c1,0,1.4-0.5,1.4-1.1c0-0.6-0.4-1-1.3-1.3c-1.3-0.5-1.9-1.2-1.9-2.1
		c0-1.2,0.9-2.1,2.5-2.1c0.7,0,1.4,0.2,1.8,0.5l-0.3,1c-0.3-0.2-0.8-0.4-1.5-0.4c-0.8,0-1.2,0.5-1.2,1c0,0.6,0.4,0.9,1.4,1.2
		c1.3,0.5,1.9,1.1,1.9,2.2c0,1.3-1,2.2-2.7,2.2c-0.8,0-1.5-0.2-2-0.5L402.3,498.5z"/>
	<path d="M410.1,490.5v2.1h1.9v1h-1.9v3.9c0,0.9,0.3,1.4,1,1.4c0.3,0,0.6,0,0.8-0.1l0.1,1c-0.3,0.1-0.7,0.2-1.2,0.2
		c-0.6,0-1.1-0.2-1.4-0.6c-0.4-0.4-0.5-1-0.5-1.9v-4h-1.1v-1h1.1v-1.7L410.1,490.5z"/>
	<path d="M414.1,496.4c0,1.8,1.2,2.5,2.5,2.5c0.9,0,1.5-0.2,2-0.4l0.2,0.9c-0.5,0.2-1.3,0.5-2.4,0.5c-2.2,0-3.6-1.5-3.6-3.7
		c0-2.2,1.3-3.9,3.4-3.9c2.4,0,3,2.1,3,3.4c0,0.3,0,0.5,0,0.6H414.1z M417.9,495.5c0-0.8-0.3-2.1-1.8-2.1c-1.3,0-1.9,1.2-2,2.1
		H417.9z"/>
	<path d="M420.9,494.8c0-0.9,0-1.6-0.1-2.3h1.2l0,1.4h0.1c0.3-1,1.1-1.6,2-1.6c0.1,0,0.3,0,0.4,0v1.2c-0.1,0-0.3,0-0.5,0
		c-0.9,0-1.6,0.7-1.8,1.7c0,0.2-0.1,0.4-0.1,0.6v3.9h-1.3V494.8z"/>
	<path d="M425,501.7c1.1-1.5,1.9-3.4,1.9-6.1c0-2.7-0.8-4.6-1.9-6.1h1c1,1.2,2,3.1,2,6.1c0,2.9-1,4.8-2,6.1H425z"/>
	<path d="M334,517.5c-0.5,0.2-1.4,0.5-2.7,0.5c-2.8,0-5-1.8-5-5.1c0-3.2,2.1-5.3,5.3-5.3c1.3,0,2.1,0.3,2.4,0.5l-0.3,1.1
		c-0.5-0.2-1.2-0.4-2-0.4c-2.4,0-3.9,1.5-3.9,4.2c0,2.5,1.4,4.1,3.9,4.1c0.8,0,1.6-0.2,2.1-0.4L334,517.5z"/>
	<path d="M335.6,507.2h1.3v10.6h-1.3V507.2z"/>
	<path d="M345.2,515.9c0,0.8,0,1.4,0.1,2h-1.2l-0.1-1.2h0c-0.3,0.6-1.1,1.3-2.4,1.3c-1.1,0-2.5-0.6-2.5-3.2v-4.2h1.3v4
		c0,1.4,0.4,2.3,1.6,2.3c0.9,0,1.5-0.6,1.7-1.2c0.1-0.2,0.1-0.4,0.1-0.7v-4.5h1.3V515.9z"/>
	<path d="M347.3,516.5c0.4,0.3,1.1,0.5,1.7,0.5c1,0,1.4-0.5,1.4-1.1c0-0.6-0.4-1-1.4-1.3c-1.3-0.5-1.9-1.2-1.9-2.1
		c0-1.2,0.9-2.1,2.5-2.1c0.7,0,1.4,0.2,1.8,0.5l-0.3,1c-0.3-0.2-0.8-0.4-1.5-0.4c-0.8,0-1.2,0.5-1.2,1c0,0.6,0.4,0.9,1.4,1.2
		c1.3,0.5,1.9,1.1,1.9,2.2c0,1.3-1,2.2-2.7,2.2c-0.8,0-1.5-0.2-2-0.5L347.3,516.5z"/>
	<path d="M355,508.5v2.1h1.9v1H355v3.9c0,0.9,0.3,1.4,1,1.4c0.3,0,0.6,0,0.8-0.1l0.1,1c-0.3,0.1-0.7,0.2-1.2,0.2
		c-0.6,0-1.1-0.2-1.4-0.6c-0.4-0.4-0.5-1-0.5-1.9v-4h-1.1v-1h1.1v-1.7L355,508.5z"/>
	<path d="M359,514.4c0,1.8,1.2,2.5,2.5,2.5c0.9,0,1.5-0.2,2-0.4l0.2,0.9c-0.5,0.2-1.3,0.5-2.4,0.5c-2.2,0-3.6-1.5-3.6-3.7
		c0-2.2,1.3-3.9,3.4-3.9c2.4,0,3,2.1,3,3.4c0,0.3,0,0.5,0,0.6H359z M362.9,513.5c0-0.8-0.3-2.1-1.8-2.1c-1.3,0-1.9,1.2-2,2.1H362.9z
		"/>
	<path d="M365.8,512.8c0-0.9,0-1.6-0.1-2.3h1.2l0,1.4h0.1c0.3-1,1.1-1.6,2-1.6c0.2,0,0.3,0,0.4,0v1.2c-0.1,0-0.3,0-0.4,0
		c-0.9,0-1.6,0.7-1.8,1.7c0,0.2-0.1,0.4-0.1,0.6v3.9h-1.3V512.8z"/>
</g>
</svg>
