<?xml version="1.0" encoding="UTF-8"?>
<svg xmlns="http://www.w3.org/2000/svg" xmlns:xlink="http://www.w3.org/1999/xlink" width="695pt" height="444pt" viewBox="0 0 695 444" version="1.1">
<g id="surface1">
<path style=" stroke:none;fill-rule:nonzero;fill:rgb(0%,0%,0%);fill-opacity:1;" d="M 336.730469 181.746094 C 338.289062 178.433594 341.125 174.402344 343.957031 171.8125 L 336.871094 173.683594 L 329.929688 171.523438 C 332.621094 174.257812 335.3125 178.433594 336.730469 181.746094 Z M 336.730469 181.746094 "/>
<path style=" stroke:none;fill-rule:nonzero;fill:rgb(0%,0%,0%);fill-opacity:1;" d="M 343.816406 278.671875 C 345.375 281.984375 348.207031 286.015625 351.042969 288.605469 L 343.957031 286.734375 L 337.015625 288.894531 C 339.707031 286.160156 342.257812 281.984375 343.816406 278.671875 Z M 343.816406 278.671875 "/>
<path style="fill:none;stroke-width:1;stroke-linecap:butt;stroke-linejoin:miter;stroke:rgb(0%,0%,0%);stroke-opacity:1;stroke-miterlimit:10;" d="M 242.599647 198.999209 L 242.599647 224.598655 " transform="matrix(1.416987,0,0,1.440156,0.196446,0)"/>
<path style=" stroke:none;fill-rule:nonzero;fill:rgb(0%,0%,0%);fill-opacity:1;" d="M 297.480469 231 C 294.222656 232.585938 290.113281 235.320312 287.5625 238.203125 L 289.546875 231 L 287.5625 223.800781 C 290.113281 226.824219 294.222656 229.417969 297.480469 231 Z M 297.480469 231 "/>
<path style="fill:none;stroke-width:1;stroke-linecap:butt;stroke-linejoin:miter;stroke:rgb(0%,0%,0%);stroke-opacity:1;stroke-miterlimit:10;" d="M 179.801354 160.399324 L 204.201164 160.399324 " transform="matrix(1.416987,0,0,1.440156,0.196446,0)"/>
<path style=" stroke:none;fill-rule:nonzero;fill:rgb(0%,0%,0%);fill-opacity:1;" d="M 432.945312 228.550781 C 429.683594 230.136719 425.574219 232.875 423.027344 235.753906 L 425.007812 228.550781 L 423.027344 221.351562 C 425.574219 224.230469 429.683594 226.96875 432.945312 228.550781 Z M 432.945312 228.550781 "/>
<path style="fill:none;stroke-width:1;stroke-linecap:butt;stroke-linejoin:miter;stroke:rgb(0%,0%,0%);stroke-opacity:1;stroke-miterlimit:10;" d="M 275.50121 158.698662 L 299.799022 158.698662 " transform="matrix(1.416987,0,0,1.440156,0.196446,0)"/>
<path style=" stroke:none;fill-rule:nonzero;fill:rgb(13.72549%,12.156863%,12.54902%);fill-opacity:1;" d="M 132.542969 6.914062 C 100.660156 6.914062 66.652344 13.105469 66.652344 24.484375 C 66.652344 26.355469 67.503906 28.082031 69.0625 29.523438 C 77.421875 37.730469 105.621094 42.050781 132.542969 42.050781 C 159.464844 42.050781 187.664062 37.730469 196.023438 29.523438 C 197.582031 27.9375 198.433594 26.210938 198.433594 24.484375 C 198.433594 13.105469 164.566406 6.914062 132.542969 6.914062 Z M 132.542969 39.605469 C 95.132812 39.605469 69.0625 31.683594 69.0625 24.484375 C 69.0625 17.28125 95.132812 9.359375 132.542969 9.359375 C 169.953125 9.359375 196.023438 17.28125 196.023438 24.484375 C 196.023438 31.683594 169.953125 39.605469 132.542969 39.605469 Z M 132.542969 39.605469 "/>
<path style=" stroke:none;fill-rule:nonzero;fill:rgb(13.72549%,12.156863%,12.54902%);fill-opacity:1;" d="M 196.023438 91.160156 C 197.582031 92.746094 198.433594 94.332031 198.433594 96.203125 C 198.433594 107.578125 164.425781 113.773438 132.542969 113.773438 C 100.660156 113.773438 66.652344 107.578125 66.652344 96.203125 C 66.652344 94.332031 67.503906 92.601562 69.0625 91.160156 L 69.0625 96.203125 C 69.0625 103.257812 95.132812 111.324219 132.542969 111.324219 C 169.953125 111.324219 196.023438 103.402344 196.023438 96.203125 Z M 196.023438 91.160156 "/>
<path style=" stroke:none;fill-rule:nonzero;fill:rgb(13.72549%,12.156863%,12.54902%);fill-opacity:1;" d="M 66.652344 24.484375 L 69.0625 24.484375 L 69.0625 96.203125 L 66.652344 96.203125 Z M 66.652344 24.484375 "/>
<path style=" stroke:none;fill-rule:nonzero;fill:rgb(13.72549%,12.156863%,12.54902%);fill-opacity:1;" d="M 196.023438 24.484375 L 198.433594 24.484375 L 198.433594 96.203125 L 196.023438 96.203125 Z M 196.023438 24.484375 "/>
<path style=" stroke:none;fill-rule:nonzero;fill:rgb(0%,38.823529%,100%);fill-opacity:1;" d="M 343.957031 329.507812 C 311.933594 329.507812 278.066406 335.699219 278.066406 347.078125 C 278.066406 348.949219 278.917969 350.679688 280.476562 352.117188 C 288.835938 360.328125 317.035156 364.648438 343.957031 364.648438 C 370.878906 364.648438 399.078125 360.328125 407.4375 352.117188 C 408.996094 350.535156 409.847656 348.804688 409.847656 347.078125 C 409.847656 335.699219 375.980469 329.507812 343.957031 329.507812 Z M 343.957031 362.199219 C 306.550781 362.199219 280.476562 354.277344 280.476562 347.078125 C 280.476562 339.875 306.550781 331.957031 343.957031 331.957031 C 381.367188 331.957031 407.4375 339.875 407.4375 347.078125 C 407.4375 354.277344 381.367188 362.199219 343.957031 362.199219 Z M 343.957031 362.199219 "/>
<path style=" stroke:none;fill-rule:nonzero;fill:rgb(0%,38.823529%,100%);fill-opacity:1;" d="M 407.4375 413.757812 C 408.996094 415.339844 409.847656 416.925781 409.847656 418.796875 C 409.847656 430.175781 375.839844 436.367188 343.957031 436.367188 C 312.074219 436.367188 278.066406 430.175781 278.066406 418.796875 C 278.066406 416.925781 278.917969 415.195312 280.476562 413.757812 L 280.476562 418.796875 C 280.476562 425.855469 306.550781 433.917969 343.957031 433.917969 C 381.367188 433.917969 407.4375 426 407.4375 418.796875 Z M 407.4375 413.757812 "/>
<path style=" stroke:none;fill-rule:nonzero;fill:rgb(0%,38.823529%,100%);fill-opacity:1;" d="M 278.066406 347.222656 L 280.476562 347.222656 L 280.476562 418.941406 L 278.066406 418.941406 Z M 278.066406 347.222656 "/>
<path style=" stroke:none;fill-rule:nonzero;fill:rgb(0%,38.823529%,100%);fill-opacity:1;" d="M 407.4375 347.222656 L 409.847656 347.222656 L 409.847656 418.941406 L 407.4375 418.941406 Z M 407.4375 347.222656 "/>
<path style="fill:none;stroke-width:1;stroke-linecap:butt;stroke-linejoin:miter;stroke:rgb(0%,38.823529%,100%);stroke-opacity:1;stroke-miterlimit:10;" d="M 105.700471 143.400837 L 164.600748 143.400837 L 164.600748 176.399656 L 105.700471 176.399656 Z M 105.700471 143.400837 " transform="matrix(1.416987,0,0,1.440156,0.196446,0)"/>
<path style="fill:none;stroke-width:1;stroke-linecap:butt;stroke-linejoin:miter;stroke:rgb(13.72549%,12.156863%,12.54902%);stroke-opacity:1;stroke-dasharray:1,1;stroke-miterlimit:10;" d="M 5.201148 130.500756 L 173.700712 130.500756 L 173.700712 189.199379 L 5.201148 189.199379 Z M 5.201148 130.500756 " transform="matrix(1.416987,0,0,1.440156,0.196446,0)"/>
<path style="fill:none;stroke-width:1;stroke-linecap:butt;stroke-linejoin:miter;stroke:rgb(13.72549%,12.156863%,12.54902%);stroke-opacity:1;stroke-miterlimit:10;" d="M 147.101031 46.899769 L 237.59894 46.899769 L 237.59894 125.200765 " transform="matrix(1.416987,0,0,1.440156,0.196446,0)"/>
<path style=" stroke:none;fill-rule:nonzero;fill:rgb(0%,0%,0%);fill-opacity:1;" d="M 143.3125 279.101562 C 141.753906 282.414062 138.917969 286.445312 136.085938 289.039062 L 143.171875 287.167969 L 150.113281 289.328125 C 147.421875 286.734375 144.730469 282.558594 143.3125 279.101562 Z M 143.3125 279.101562 "/>
<path style="fill:none;stroke-width:1;stroke-linecap:butt;stroke-linejoin:miter;stroke:rgb(13.72549%,12.156863%,12.54902%);stroke-opacity:1;stroke-miterlimit:10;" d="M 191.398914 273.199086 L 100.901005 273.199086 L 100.901005 194.800444 " transform="matrix(1.416987,0,0,1.440156,0.196446,0)"/>
<path style="fill:none;stroke-width:1;stroke-linecap:butt;stroke-linejoin:miter;stroke:rgb(13.72549%,12.156863%,12.54902%);stroke-opacity:1;stroke-dasharray:1,1;stroke-miterlimit:10;" d="M 75.698986 160.399324 L 105.700471 160.399324 " transform="matrix(1.416987,0,0,1.440156,0.196446,0)"/>
<path style="fill:none;stroke-width:1;stroke-linecap:butt;stroke-linejoin:miter;stroke:rgb(0%,38.823529%,100%);stroke-opacity:1;stroke-miterlimit:10;" d="M 16.798708 143.400837 L 75.698986 143.400837 L 75.698986 176.399656 L 16.798708 176.399656 Z M 16.798708 143.400837 " transform="matrix(1.416987,0,0,1.440156,0.196446,0)"/>
<path style=" stroke:none;fill-rule:nonzero;fill:rgb(13.72549%,12.156863%,12.54902%);fill-opacity:1;" d="M 92.585938 60.199219 C 92.585938 61.207031 92.300781 61.925781 91.59375 62.503906 C 90.882812 63.078125 90.035156 63.367188 88.757812 63.367188 L 87.199219 63.367188 L 87.199219 67.542969 L 86.492188 67.542969 L 86.492188 57.316406 L 88.898438 57.316406 C 91.308594 57.175781 92.585938 58.183594 92.585938 60.199219 Z M 87.199219 62.648438 L 88.617188 62.648438 C 89.75 62.648438 90.601562 62.503906 91.023438 62.070312 C 91.59375 61.636719 91.734375 61.0625 91.734375 60.199219 C 91.734375 59.335938 91.449219 58.757812 91.023438 58.46875 C 90.601562 58.039062 89.75 57.894531 88.757812 57.894531 L 87.058594 57.894531 L 87.058594 62.648438 Z M 87.199219 62.648438 "/>
<path style=" stroke:none;fill-rule:nonzero;fill:rgb(13.72549%,12.156863%,12.54902%);fill-opacity:1;" d="M 97.542969 59.765625 C 97.828125 59.765625 98.253906 59.765625 98.535156 59.910156 L 98.394531 60.488281 C 98.109375 60.34375 97.683594 60.34375 97.402344 60.34375 C 96.691406 60.34375 96.269531 60.628906 95.84375 61.207031 C 95.417969 61.78125 95.277344 62.503906 95.277344 63.367188 L 95.277344 67.542969 L 94.566406 67.542969 L 94.566406 59.910156 L 95.132812 59.910156 L 95.132812 61.351562 C 95.417969 60.773438 95.84375 60.34375 96.125 60.199219 C 96.691406 59.910156 97.117188 59.765625 97.542969 59.765625 Z M 97.542969 59.765625 "/>
<path style=" stroke:none;fill-rule:nonzero;fill:rgb(13.72549%,12.156863%,12.54902%);fill-opacity:1;" d="M 106.328125 63.65625 C 106.328125 64.949219 106.046875 65.816406 105.480469 66.535156 C 104.910156 67.253906 104.0625 67.542969 103.070312 67.542969 C 102.359375 67.542969 101.792969 67.398438 101.371094 67.109375 C 100.945312 66.824219 100.519531 66.390625 100.234375 65.671875 C 99.953125 64.949219 99.8125 64.375 99.8125 63.511719 C 99.8125 62.214844 100.09375 61.351562 100.660156 60.628906 C 101.226562 59.910156 102.078125 59.621094 103.070312 59.621094 C 104.0625 59.621094 104.910156 59.910156 105.480469 60.628906 C 106.046875 61.496094 106.328125 62.503906 106.328125 63.65625 Z M 100.378906 63.65625 C 100.378906 64.664062 100.660156 65.527344 101.085938 66.101562 C 101.511719 66.679688 102.21875 66.96875 103.070312 66.96875 C 103.917969 66.96875 104.488281 66.679688 105.054688 66.101562 C 105.480469 65.527344 105.761719 64.664062 105.761719 63.65625 C 105.761719 62.648438 105.480469 61.78125 105.054688 61.207031 C 104.628906 60.628906 103.917969 60.34375 103.070312 60.34375 C 102.21875 60.34375 101.652344 60.628906 101.085938 61.207031 C 100.660156 61.78125 100.378906 62.648438 100.378906 63.65625 Z M 100.378906 63.65625 "/>
<path style=" stroke:none;fill-rule:nonzero;fill:rgb(13.72549%,12.156863%,12.54902%);fill-opacity:1;" d="M 111.148438 59.765625 C 111.714844 59.765625 112.136719 59.910156 112.5625 60.054688 C 112.988281 60.199219 113.273438 60.628906 113.695312 61.0625 C 113.695312 60.488281 113.695312 59.910156 113.695312 59.335938 L 113.695312 56.597656 L 114.40625 56.597656 L 114.40625 67.542969 L 113.980469 67.542969 L 113.839844 66.390625 C 113.273438 67.253906 112.421875 67.6875 111.429688 67.6875 C 110.4375 67.6875 109.585938 67.398438 109.019531 66.679688 C 108.453125 65.960938 108.171875 65.09375 108.171875 63.800781 C 108.171875 62.503906 108.453125 61.496094 109.019531 60.773438 C 109.304688 60.054688 110.15625 59.765625 111.148438 59.765625 Z M 111.148438 60.34375 C 110.296875 60.34375 109.730469 60.628906 109.304688 61.207031 C 108.878906 61.78125 108.738281 62.648438 108.738281 63.800781 C 108.738281 65.960938 109.585938 67.109375 111.289062 67.109375 C 112.136719 67.109375 112.707031 66.824219 113.128906 66.390625 C 113.554688 65.960938 113.695312 65.09375 113.695312 63.941406 L 113.695312 63.800781 C 113.695312 62.648438 113.554688 61.78125 113.128906 61.207031 C 112.707031 60.628906 111.996094 60.34375 111.148438 60.34375 Z M 111.148438 60.34375 "/>
<path style=" stroke:none;fill-rule:nonzero;fill:rgb(13.72549%,12.156863%,12.54902%);fill-opacity:1;" d="M 117.382812 59.910156 L 117.382812 64.808594 C 117.382812 65.527344 117.523438 66.101562 117.804688 66.535156 C 118.089844 66.824219 118.65625 67.109375 119.222656 67.109375 C 120.074219 67.109375 120.78125 66.824219 121.207031 66.390625 C 121.632812 65.960938 121.773438 65.238281 121.773438 64.085938 L 121.773438 59.910156 L 122.484375 59.910156 L 122.484375 67.542969 L 122.058594 67.542969 L 121.914062 66.535156 C 121.492188 67.398438 120.5 67.6875 119.363281 67.6875 C 117.664062 67.6875 116.816406 66.824219 116.816406 64.949219 L 116.816406 59.910156 Z M 117.382812 59.910156 "/>
<path style=" stroke:none;fill-rule:nonzero;fill:rgb(13.72549%,12.156863%,12.54902%);fill-opacity:1;" d="M 128.148438 67.6875 C 127.015625 67.6875 126.167969 67.398438 125.601562 66.679688 C 125.03125 65.960938 124.75 65.09375 124.75 63.800781 C 124.75 62.503906 125.03125 61.496094 125.742188 60.773438 C 126.308594 60.054688 127.300781 59.765625 128.292969 59.765625 C 129 59.765625 129.566406 59.910156 130.132812 60.054688 L 129.992188 60.628906 C 129.285156 60.34375 128.71875 60.34375 128.292969 60.34375 C 127.300781 60.34375 126.734375 60.628906 126.167969 61.207031 C 125.742188 61.78125 125.457031 62.648438 125.457031 63.65625 C 125.457031 64.664062 125.742188 65.527344 126.167969 66.101562 C 126.589844 66.679688 127.300781 66.96875 128.148438 66.96875 C 128.859375 66.96875 129.425781 66.824219 129.992188 66.535156 L 129.992188 67.109375 C 129.566406 67.542969 129 67.6875 128.148438 67.6875 Z M 128.148438 67.6875 "/>
<path style=" stroke:none;fill-rule:nonzero;fill:rgb(13.72549%,12.156863%,12.54902%);fill-opacity:1;" d="M 133.960938 67.109375 C 134.386719 67.109375 134.808594 67.109375 135.09375 66.96875 L 135.09375 67.542969 C 134.808594 67.6875 134.386719 67.6875 133.960938 67.6875 C 133.25 67.6875 132.828125 67.542969 132.542969 67.109375 C 132.117188 66.824219 131.976562 66.246094 131.976562 65.382812 L 131.976562 60.488281 L 130.84375 60.488281 L 130.84375 60.054688 L 131.976562 59.765625 L 132.257812 58.039062 L 132.542969 58.039062 L 132.542969 59.910156 L 134.808594 59.910156 L 134.808594 60.488281 L 132.542969 60.488281 L 132.542969 65.382812 C 132.542969 65.960938 132.683594 66.390625 132.828125 66.679688 C 132.96875 66.96875 133.535156 67.109375 133.960938 67.109375 Z M 133.960938 67.109375 "/>
<path style=" stroke:none;fill-rule:nonzero;fill:rgb(13.72549%,12.156863%,12.54902%);fill-opacity:1;" d="M 145.4375 63.941406 L 141.328125 63.941406 L 139.910156 67.542969 L 139.0625 67.542969 L 143.171875 57.175781 L 143.59375 57.175781 L 147.5625 67.542969 L 146.714844 67.542969 Z M 141.613281 63.222656 L 145.296875 63.222656 L 143.878906 59.476562 C 143.738281 59.191406 143.59375 58.757812 143.453125 58.328125 C 143.3125 58.757812 143.171875 59.191406 143.027344 59.476562 Z M 141.613281 63.222656 "/>
<path style=" stroke:none;fill-rule:nonzero;fill:rgb(13.72549%,12.156863%,12.54902%);fill-opacity:1;" d="M 151.8125 59.765625 C 152.097656 59.765625 152.523438 59.765625 152.804688 59.910156 L 152.664062 60.628906 C 152.382812 60.488281 151.957031 60.488281 151.671875 60.488281 C 150.964844 60.488281 150.539062 60.773438 150.113281 61.351562 C 149.6875 61.925781 149.546875 62.648438 149.546875 63.511719 L 149.546875 67.6875 L 148.839844 67.6875 L 148.839844 60.054688 L 149.40625 60.054688 L 149.40625 61.496094 C 149.6875 60.917969 150.113281 60.488281 150.398438 60.34375 C 150.964844 59.910156 151.390625 59.765625 151.8125 59.765625 Z M 151.8125 59.765625 "/>
<path style=" stroke:none;fill-rule:nonzero;fill:rgb(13.72549%,12.156863%,12.54902%);fill-opacity:1;" d="M 156.347656 67.109375 C 156.773438 67.109375 157.199219 67.109375 157.480469 66.96875 L 157.480469 67.542969 C 157.199219 67.6875 156.773438 67.6875 156.347656 67.6875 C 155.640625 67.6875 155.214844 67.542969 154.929688 67.109375 C 154.648438 66.679688 154.507812 66.246094 154.507812 65.382812 L 154.507812 60.488281 L 153.230469 60.488281 L 153.230469 60.054688 L 154.363281 59.765625 L 154.648438 58.039062 L 154.929688 58.039062 L 154.929688 59.910156 L 157.199219 59.910156 L 157.199219 60.488281 L 154.929688 60.488281 L 154.929688 65.382812 C 154.929688 65.960938 155.074219 66.390625 155.214844 66.679688 C 155.355469 66.96875 155.921875 67.109375 156.347656 67.109375 Z M 156.347656 67.109375 "/>
<path style=" stroke:none;fill-rule:nonzero;fill:rgb(13.72549%,12.156863%,12.54902%);fill-opacity:1;" d="M 159.039062 57.75 C 159.039062 57.316406 159.183594 57.03125 159.464844 57.03125 C 159.609375 57.03125 159.75 57.03125 159.75 57.175781 C 159.890625 57.316406 159.890625 57.460938 159.890625 57.605469 C 159.890625 57.75 159.890625 58.039062 159.75 58.039062 C 159.609375 58.183594 159.609375 58.183594 159.464844 58.183594 C 159.183594 58.46875 159.039062 58.183594 159.039062 57.75 Z M 159.75 67.542969 L 159.039062 67.542969 L 159.039062 59.910156 L 159.75 59.910156 Z M 159.75 67.542969 "/>
<path style=" stroke:none;fill-rule:nonzero;fill:rgb(13.72549%,12.156863%,12.54902%);fill-opacity:1;" d="M 165.132812 60.488281 L 163.433594 60.488281 L 163.433594 67.542969 L 162.726562 67.542969 L 162.726562 60.488281 L 161.308594 60.488281 L 161.308594 60.054688 L 162.726562 59.765625 L 162.726562 59.191406 C 162.726562 58.183594 162.867188 57.605469 163.292969 57.175781 C 163.574219 56.742188 164.140625 56.453125 164.992188 56.453125 C 165.417969 56.453125 165.84375 56.453125 166.265625 56.597656 L 166.125 57.175781 C 165.699219 57.03125 165.417969 57.03125 164.992188 57.03125 C 164.425781 57.03125 164.140625 57.175781 163.859375 57.460938 C 163.574219 57.75 163.574219 58.328125 163.574219 59.046875 L 163.574219 59.765625 L 165.277344 59.765625 L 165.277344 60.488281 Z M 165.132812 60.488281 "/>
<path style=" stroke:none;fill-rule:nonzero;fill:rgb(13.72549%,12.156863%,12.54902%);fill-opacity:1;" d="M 171.085938 67.542969 L 170.945312 66.390625 C 170.519531 66.824219 170.234375 67.253906 169.808594 67.398438 C 169.382812 67.542969 168.960938 67.6875 168.394531 67.6875 C 167.683594 67.6875 167.117188 67.542969 166.691406 67.109375 C 166.265625 66.679688 166.125 66.246094 166.125 65.527344 C 166.125 64.808594 166.410156 64.230469 166.976562 63.800781 C 167.542969 63.367188 168.535156 63.222656 169.667969 63.078125 L 171.085938 63.078125 L 171.085938 62.503906 C 171.085938 61.78125 170.945312 61.207031 170.660156 60.917969 C 170.375 60.488281 169.953125 60.34375 169.242188 60.34375 C 168.535156 60.34375 167.824219 60.488281 167.117188 60.917969 L 166.835938 60.34375 C 167.683594 59.910156 168.535156 59.765625 169.242188 59.765625 C 170.09375 59.765625 170.660156 60.054688 171.085938 60.488281 C 171.511719 60.917969 171.652344 61.636719 171.652344 62.503906 L 171.652344 67.542969 Z M 168.394531 66.96875 C 169.242188 66.96875 169.808594 66.679688 170.234375 66.246094 C 170.660156 65.816406 170.945312 65.09375 170.945312 64.375 L 170.945312 63.65625 L 169.667969 63.65625 C 168.675781 63.65625 167.824219 63.941406 167.402344 64.085938 C 166.976562 64.375 166.691406 64.808594 166.691406 65.382812 C 166.691406 65.816406 166.835938 66.246094 167.117188 66.535156 C 167.402344 66.96875 167.824219 66.96875 168.394531 66.96875 Z M 168.394531 66.96875 "/>
<path style=" stroke:none;fill-rule:nonzero;fill:rgb(13.72549%,12.156863%,12.54902%);fill-opacity:1;" d="M 177.035156 67.6875 C 175.902344 67.6875 175.050781 67.398438 174.484375 66.679688 C 173.917969 65.960938 173.636719 65.09375 173.636719 63.800781 C 173.636719 62.503906 173.917969 61.496094 174.628906 60.773438 C 175.195312 60.054688 176.1875 59.765625 177.179688 59.765625 C 177.886719 59.765625 178.453125 59.910156 179.019531 60.054688 L 178.878906 60.628906 C 178.171875 60.34375 177.601562 60.34375 177.179688 60.34375 C 176.1875 60.34375 175.621094 60.628906 175.050781 61.207031 C 174.628906 61.78125 174.34375 62.648438 174.34375 63.65625 C 174.34375 64.664062 174.628906 65.527344 175.050781 66.101562 C 175.476562 66.679688 176.1875 66.96875 177.035156 66.96875 C 177.746094 66.96875 178.3125 66.824219 178.878906 66.535156 L 178.878906 67.109375 C 178.453125 67.542969 177.886719 67.6875 177.035156 67.6875 Z M 177.035156 67.6875 "/>
<path style=" stroke:none;fill-rule:nonzero;fill:rgb(13.72549%,12.156863%,12.54902%);fill-opacity:1;" d="M 182.847656 67.109375 C 183.269531 67.109375 183.695312 67.109375 183.980469 66.96875 L 183.980469 67.542969 C 183.695312 67.6875 183.269531 67.6875 182.847656 67.6875 C 182.136719 67.6875 181.710938 67.542969 181.429688 67.109375 C 181.144531 66.679688 181.003906 66.246094 181.003906 65.382812 L 181.003906 60.488281 L 179.871094 60.488281 L 179.871094 60.054688 L 181.003906 59.765625 L 181.289062 58.039062 L 181.570312 58.039062 L 181.570312 59.910156 L 183.839844 59.910156 L 183.839844 60.488281 L 181.570312 60.488281 L 181.570312 65.382812 C 181.570312 65.960938 181.710938 66.390625 181.855469 66.679688 C 181.996094 66.96875 182.421875 67.109375 182.847656 67.109375 Z M 182.847656 67.109375 "/>
<path style=" stroke:none;fill-rule:nonzero;fill:rgb(13.72549%,12.156863%,12.54902%);fill-opacity:1;" d="M 102.929688 80.359375 L 102.929688 84.824219 L 102.21875 84.824219 L 102.21875 74.601562 L 104.628906 74.601562 C 105.902344 74.601562 106.753906 74.886719 107.460938 75.320312 C 108.171875 75.753906 108.3125 76.472656 108.3125 77.480469 C 108.3125 78.199219 108.171875 78.777344 107.746094 79.207031 C 107.320312 79.640625 106.894531 80.074219 106.046875 80.214844 L 108.738281 84.96875 L 107.886719 84.96875 L 105.335938 80.503906 L 102.929688 80.503906 Z M 102.929688 79.640625 L 104.910156 79.640625 C 105.761719 79.640625 106.46875 79.496094 106.894531 79.066406 C 107.320312 78.632812 107.605469 78.054688 107.605469 77.335938 C 107.605469 76.617188 107.320312 76.039062 106.894531 75.609375 C 106.46875 75.320312 105.621094 75.03125 104.628906 75.03125 L 102.929688 75.03125 Z M 102.929688 79.640625 "/>
<path style=" stroke:none;fill-rule:nonzero;fill:rgb(13.72549%,12.156863%,12.54902%);fill-opacity:1;" d="M 113.554688 84.96875 C 112.421875 84.96875 111.570312 84.679688 111.003906 83.960938 C 110.4375 83.242188 110.15625 82.375 110.15625 81.082031 C 110.15625 79.929688 110.4375 78.921875 111.003906 78.199219 C 111.570312 77.480469 112.421875 77.046875 113.414062 77.046875 C 114.265625 77.046875 114.972656 77.335938 115.539062 78.054688 C 116.105469 78.632812 116.246094 79.496094 116.246094 80.648438 L 116.246094 81.226562 L 110.722656 81.226562 C 110.722656 82.234375 111.003906 83.097656 111.429688 83.671875 C 111.855469 84.25 112.5625 84.539062 113.414062 84.539062 C 113.839844 84.539062 114.265625 84.539062 114.546875 84.394531 C 114.832031 84.394531 115.253906 84.25 115.824219 83.960938 L 115.824219 84.539062 C 115.398438 84.679688 114.972656 84.824219 114.6875 84.96875 C 114.265625 84.96875 113.980469 84.96875 113.554688 84.96875 Z M 113.273438 77.625 C 112.5625 77.625 111.996094 77.914062 111.570312 78.34375 C 111.148438 78.777344 110.863281 79.496094 110.863281 80.503906 L 115.539062 80.503906 C 115.539062 79.640625 115.398438 78.921875 114.972656 78.488281 C 114.546875 78.054688 113.980469 77.625 113.273438 77.625 Z M 113.273438 77.625 "/>
<path style=" stroke:none;fill-rule:nonzero;fill:rgb(13.72549%,12.156863%,12.54902%);fill-opacity:1;" d="M 121.492188 84.96875 C 120.355469 84.96875 119.507812 84.539062 118.941406 83.671875 L 118.941406 84.25 C 118.941406 84.539062 118.941406 84.96875 118.941406 85.402344 L 118.941406 88.28125 L 118.230469 88.28125 L 118.230469 77.191406 L 118.796875 77.191406 L 118.941406 78.34375 C 119.507812 77.480469 120.214844 77.046875 121.347656 77.046875 C 122.339844 77.046875 123.191406 77.335938 123.617188 78.054688 C 124.183594 78.777344 124.464844 79.785156 124.464844 81.082031 C 124.464844 82.375 124.183594 83.242188 123.617188 83.960938 C 123.191406 84.539062 122.484375 84.96875 121.492188 84.96875 Z M 121.492188 84.394531 C 122.199219 84.394531 122.90625 84.105469 123.332031 83.527344 C 123.757812 82.953125 123.898438 82.089844 123.898438 81.082031 C 123.898438 78.777344 123.050781 77.769531 121.492188 77.769531 C 120.640625 77.769531 119.933594 78.054688 119.507812 78.488281 C 119.082031 78.921875 118.941406 79.785156 118.941406 80.9375 L 118.941406 81.226562 C 118.941406 82.375 119.082031 83.242188 119.507812 83.816406 C 119.933594 84.105469 120.5 84.394531 121.492188 84.394531 Z M 121.492188 84.394531 "/>
<path style=" stroke:none;fill-rule:nonzero;fill:rgb(13.72549%,12.156863%,12.54902%);fill-opacity:1;" d="M 132.828125 80.9375 C 132.828125 82.234375 132.542969 83.097656 131.976562 83.816406 C 131.410156 84.539062 130.558594 84.824219 129.566406 84.824219 C 128.859375 84.824219 128.292969 84.679688 127.867188 84.394531 C 127.441406 84.105469 127.015625 83.671875 126.734375 82.953125 C 126.449219 82.234375 126.308594 81.65625 126.308594 80.792969 C 126.308594 79.496094 126.589844 78.632812 127.160156 77.914062 C 127.726562 77.191406 128.574219 76.90625 129.566406 76.90625 C 130.558594 76.90625 131.410156 77.191406 131.976562 77.914062 C 132.542969 78.777344 132.828125 79.785156 132.828125 80.9375 Z M 127.015625 80.9375 C 127.015625 81.945312 127.300781 82.808594 127.726562 83.386719 C 128.148438 83.960938 128.859375 84.25 129.710938 84.25 C 130.558594 84.25 131.125 83.960938 131.691406 83.386719 C 132.117188 82.808594 132.402344 81.945312 132.402344 80.9375 C 132.402344 79.929688 132.117188 79.066406 131.691406 78.488281 C 131.269531 77.914062 130.558594 77.625 129.710938 77.625 C 128.859375 77.625 128.292969 77.914062 127.726562 78.488281 C 127.160156 79.066406 127.015625 79.929688 127.015625 80.9375 Z M 127.015625 80.9375 "/>
<path style=" stroke:none;fill-rule:nonzero;fill:rgb(13.72549%,12.156863%,12.54902%);fill-opacity:1;" d="M 139.628906 82.808594 C 139.628906 83.527344 139.34375 83.960938 138.917969 84.394531 C 138.351562 84.824219 137.644531 84.96875 136.652344 84.96875 C 135.660156 84.96875 134.808594 84.824219 134.242188 84.539062 L 134.242188 83.816406 C 134.953125 84.25 135.800781 84.394531 136.652344 84.394531 C 137.359375 84.394531 137.925781 84.25 138.351562 83.960938 C 138.777344 83.671875 138.917969 83.386719 138.917969 82.953125 C 138.917969 82.519531 138.777344 82.234375 138.496094 81.945312 C 138.210938 81.65625 137.644531 81.367188 136.9375 81.226562 C 136.226562 80.9375 135.660156 80.648438 135.378906 80.503906 C 135.09375 80.359375 134.808594 80.074219 134.667969 79.785156 C 134.527344 79.496094 134.386719 79.207031 134.386719 78.921875 C 134.386719 78.34375 134.667969 77.914062 135.09375 77.625 C 135.519531 77.335938 136.226562 77.191406 137.078125 77.191406 C 137.925781 77.191406 138.636719 77.335938 139.34375 77.625 L 139.0625 78.199219 C 138.351562 77.914062 137.644531 77.769531 136.9375 77.769531 C 136.367188 77.769531 135.800781 77.914062 135.519531 78.054688 C 135.09375 78.199219 134.953125 78.488281 134.953125 78.921875 C 134.953125 79.351562 135.09375 79.640625 135.378906 79.929688 C 135.660156 80.214844 136.226562 80.503906 137.078125 80.792969 C 137.785156 81.082031 138.210938 81.226562 138.496094 81.511719 C 138.777344 81.65625 139.0625 81.945312 139.203125 82.234375 C 139.484375 82.234375 139.628906 82.519531 139.628906 82.808594 Z M 139.628906 82.808594 "/>
<path style=" stroke:none;fill-rule:nonzero;fill:rgb(13.72549%,12.156863%,12.54902%);fill-opacity:1;" d="M 141.46875 75.03125 C 141.46875 74.601562 141.613281 74.3125 141.894531 74.3125 C 142.035156 74.3125 142.179688 74.3125 142.179688 74.457031 C 142.320312 74.601562 142.320312 74.742188 142.320312 74.886719 C 142.320312 75.03125 142.320312 75.320312 142.179688 75.320312 C 142.035156 75.464844 142.035156 75.464844 141.894531 75.464844 C 141.613281 75.753906 141.46875 75.464844 141.46875 75.03125 Z M 142.320312 84.824219 L 141.613281 84.824219 L 141.613281 77.191406 L 142.320312 77.191406 Z M 142.320312 84.824219 "/>
<path style=" stroke:none;fill-rule:nonzero;fill:rgb(13.72549%,12.156863%,12.54902%);fill-opacity:1;" d="M 146.714844 84.394531 C 147.136719 84.394531 147.5625 84.394531 147.847656 84.25 L 147.847656 84.824219 C 147.5625 84.96875 147.136719 84.96875 146.714844 84.96875 C 146.003906 84.96875 145.578125 84.824219 145.296875 84.394531 C 145.011719 83.960938 144.871094 83.527344 144.871094 82.664062 L 144.871094 77.769531 L 143.738281 77.769531 L 143.738281 77.335938 L 144.871094 77.046875 L 145.152344 75.320312 L 145.4375 75.320312 L 145.4375 77.191406 L 147.703125 77.191406 L 147.703125 77.769531 L 145.4375 77.769531 L 145.4375 82.664062 C 145.4375 83.242188 145.578125 83.671875 145.722656 83.960938 C 145.863281 84.25 146.289062 84.394531 146.714844 84.394531 Z M 146.714844 84.394531 "/>
<path style=" stroke:none;fill-rule:nonzero;fill:rgb(13.72549%,12.156863%,12.54902%);fill-opacity:1;" d="M 155.78125 80.9375 C 155.78125 82.234375 155.5 83.097656 154.929688 83.816406 C 154.363281 84.539062 153.515625 84.824219 152.523438 84.824219 C 151.8125 84.824219 151.246094 84.679688 150.820312 84.394531 C 150.398438 84.105469 149.972656 83.671875 149.6875 82.953125 C 149.40625 82.234375 149.261719 81.65625 149.261719 80.792969 C 149.261719 79.496094 149.546875 78.632812 150.113281 77.914062 C 150.679688 77.191406 151.53125 76.90625 152.523438 76.90625 C 153.515625 76.90625 154.363281 77.191406 154.929688 77.914062 C 155.5 78.777344 155.78125 79.785156 155.78125 80.9375 Z M 149.832031 80.9375 C 149.832031 81.945312 150.113281 82.808594 150.539062 83.386719 C 150.964844 83.960938 151.671875 84.25 152.523438 84.25 C 153.371094 84.25 153.941406 83.960938 154.507812 83.386719 C 154.929688 82.808594 155.214844 81.945312 155.214844 80.9375 C 155.214844 79.929688 154.929688 79.066406 154.507812 78.488281 C 154.082031 77.914062 153.371094 77.625 152.523438 77.625 C 151.671875 77.625 151.105469 77.914062 150.539062 78.488281 C 149.972656 79.066406 149.832031 79.929688 149.832031 80.9375 Z M 149.832031 80.9375 "/>
<path style=" stroke:none;fill-rule:nonzero;fill:rgb(13.72549%,12.156863%,12.54902%);fill-opacity:1;" d="M 160.742188 77.046875 C 161.023438 77.046875 161.449219 77.046875 161.734375 77.191406 L 161.734375 77.769531 C 161.449219 77.625 161.023438 77.625 160.742188 77.625 C 160.03125 77.625 159.609375 77.914062 159.183594 78.488281 C 158.757812 79.066406 158.617188 79.785156 158.617188 80.648438 L 158.617188 84.824219 L 157.90625 84.824219 L 157.90625 77.191406 L 158.472656 77.191406 L 158.472656 78.632812 C 158.757812 78.054688 159.183594 77.625 159.464844 77.480469 C 159.890625 77.191406 160.316406 77.046875 160.742188 77.046875 Z M 160.742188 77.046875 "/>
<path style=" stroke:none;fill-rule:nonzero;fill:rgb(13.72549%,12.156863%,12.54902%);fill-opacity:1;" d="M 162.015625 77.191406 L 162.726562 77.191406 L 164.285156 81.511719 C 164.707031 82.808594 165.132812 83.671875 165.132812 84.25 C 165.277344 83.671875 165.699219 82.808594 166.125 81.511719 L 167.683594 77.335938 L 168.394531 77.335938 L 164.992188 86.265625 C 164.707031 86.984375 164.425781 87.417969 164.285156 87.707031 C 164.140625 87.992188 163.859375 88.136719 163.574219 88.28125 C 163.292969 88.425781 163.007812 88.425781 162.726562 88.425781 C 162.441406 88.425781 162.15625 88.425781 161.875 88.28125 L 161.875 87.707031 C 162.15625 87.847656 162.441406 87.847656 162.726562 87.847656 C 163.007812 87.847656 163.148438 87.847656 163.292969 87.707031 C 163.433594 87.5625 163.574219 87.417969 163.714844 87.128906 C 163.859375 86.839844 164 86.554688 164.285156 85.976562 C 164.425781 85.402344 164.566406 85.113281 164.707031 84.96875 Z M 162.015625 77.191406 "/>
<path style=" stroke:none;fill-rule:nonzero;fill:rgb(13.72549%,12.156863%,12.54902%);fill-opacity:1;" d="M 324.121094 225.816406 L 324.121094 215.589844 L 324.828125 215.589844 L 324.828125 225.242188 L 329.644531 225.242188 L 329.644531 225.960938 L 324.121094 225.960938 Z M 324.121094 225.816406 "/>
<path style=" stroke:none;fill-rule:nonzero;fill:rgb(13.72549%,12.156863%,12.54902%);fill-opacity:1;" d="M 331.0625 216.023438 C 331.0625 215.589844 331.203125 215.304688 331.488281 215.304688 C 331.628906 215.304688 331.769531 215.304688 331.769531 215.449219 C 331.914062 215.589844 331.914062 215.734375 331.914062 215.878906 C 331.914062 216.023438 331.914062 216.3125 331.769531 216.3125 C 331.628906 216.457031 331.628906 216.457031 331.488281 216.457031 C 331.203125 216.742188 331.0625 216.597656 331.0625 216.023438 Z M 331.914062 225.816406 L 331.203125 225.816406 L 331.203125 218.183594 L 331.914062 218.183594 Z M 331.914062 225.816406 "/>
<path style=" stroke:none;fill-rule:nonzero;fill:rgb(13.72549%,12.156863%,12.54902%);fill-opacity:1;" d="M 336.304688 225.382812 C 336.730469 225.382812 337.15625 225.382812 337.4375 225.242188 L 337.4375 225.816406 C 337.15625 225.960938 336.730469 225.960938 336.304688 225.960938 C 335.597656 225.960938 335.171875 225.816406 334.890625 225.382812 C 334.605469 225.097656 334.464844 224.519531 334.464844 223.65625 L 334.464844 218.757812 L 333.332031 218.757812 L 333.332031 218.328125 L 334.464844 218.039062 L 334.746094 216.3125 L 335.03125 216.3125 L 335.03125 218.183594 L 337.296875 218.183594 L 337.296875 218.757812 L 335.03125 218.757812 L 335.03125 223.65625 C 335.03125 224.230469 335.171875 224.664062 335.3125 224.953125 C 335.457031 225.242188 335.878906 225.382812 336.304688 225.382812 Z M 336.304688 225.382812 "/>
<path style=" stroke:none;fill-rule:nonzero;fill:rgb(13.72549%,12.156863%,12.54902%);fill-opacity:1;" d="M 348.492188 225.816406 L 348.492188 220.777344 C 348.492188 220.054688 348.351562 219.480469 348.066406 219.191406 C 347.785156 218.902344 347.359375 218.617188 346.792969 218.617188 C 346.082031 218.617188 345.515625 218.902344 345.089844 219.191406 C 344.667969 219.625 344.523438 220.34375 344.523438 221.207031 L 344.523438 225.671875 L 343.816406 225.671875 L 343.816406 220.488281 C 343.816406 219.191406 343.25 218.617188 342.117188 218.617188 C 341.265625 218.617188 340.699219 218.902344 340.414062 219.335938 C 339.988281 219.769531 339.847656 220.488281 339.847656 221.640625 L 339.847656 225.816406 L 339.140625 225.816406 L 339.140625 218.183594 L 339.707031 218.183594 L 339.847656 219.191406 C 339.988281 218.757812 340.414062 218.472656 340.699219 218.328125 C 341.125 218.183594 341.546875 218.039062 341.972656 218.039062 C 343.105469 218.039062 343.957031 218.472656 344.242188 219.335938 C 344.523438 218.902344 344.808594 218.617188 345.234375 218.328125 C 345.65625 218.039062 346.082031 218.039062 346.648438 218.039062 C 347.5 218.039062 348.066406 218.328125 348.492188 218.757812 C 348.917969 219.191406 349.058594 219.910156 349.058594 220.917969 L 349.058594 225.960938 L 348.492188 225.960938 Z M 348.492188 225.816406 "/>
<path style=" stroke:none;fill-rule:nonzero;fill:rgb(13.72549%,12.156863%,12.54902%);fill-opacity:1;" d="M 352.175781 218.183594 L 352.175781 223.082031 C 352.175781 223.800781 352.316406 224.375 352.601562 224.808594 C 352.882812 225.097656 353.453125 225.382812 354.019531 225.382812 C 354.867188 225.382812 355.578125 225.097656 356 224.664062 C 356.425781 224.230469 356.570312 223.511719 356.570312 222.359375 L 356.570312 218.183594 L 357.277344 218.183594 L 357.277344 225.816406 L 356.710938 225.816406 L 356.570312 224.808594 C 356.144531 225.671875 355.152344 225.960938 354.019531 225.960938 C 352.316406 225.960938 351.46875 225.097656 351.46875 223.222656 L 351.46875 218.183594 Z M 352.175781 218.183594 "/>
<path style=" stroke:none;fill-rule:nonzero;fill:rgb(13.72549%,12.156863%,12.54902%);fill-opacity:1;" d="M 364.644531 223.800781 C 364.644531 224.519531 364.363281 224.953125 363.9375 225.382812 C 363.371094 225.816406 362.660156 225.960938 361.8125 225.960938 C 360.820312 225.960938 359.96875 225.816406 359.402344 225.527344 L 359.402344 224.808594 C 360.109375 225.242188 360.960938 225.382812 361.8125 225.382812 C 362.519531 225.382812 363.085938 225.242188 363.511719 224.953125 C 363.9375 224.664062 364.078125 224.375 364.078125 223.945312 C 364.078125 223.511719 363.9375 223.222656 363.652344 222.9375 C 363.371094 222.648438 362.804688 222.359375 362.09375 222.214844 C 361.386719 221.929688 360.820312 221.640625 360.535156 221.496094 C 360.253906 221.351562 359.96875 221.0625 359.828125 220.777344 C 359.6875 220.488281 359.542969 220.199219 359.542969 219.910156 C 359.542969 219.335938 359.828125 218.902344 360.253906 218.617188 C 360.679688 218.328125 361.386719 218.183594 362.238281 218.183594 C 363.085938 218.183594 363.796875 218.328125 364.503906 218.617188 L 364.21875 219.191406 C 363.511719 218.902344 362.804688 218.757812 362.09375 218.757812 C 361.527344 218.757812 360.960938 218.902344 360.679688 219.046875 C 360.253906 219.191406 360.109375 219.480469 360.109375 219.910156 C 360.109375 220.34375 360.253906 220.632812 360.535156 220.917969 C 360.820312 221.207031 361.386719 221.496094 362.238281 221.785156 C 362.945312 222.070312 363.371094 222.214844 363.652344 222.503906 C 363.9375 222.648438 364.21875 222.9375 364.363281 223.222656 C 364.503906 223.222656 364.644531 223.511719 364.644531 223.800781 Z M 364.644531 223.800781 "/>
<path style=" stroke:none;fill-rule:nonzero;fill:rgb(13.72549%,12.156863%,12.54902%);fill-opacity:1;" d="M 328.9375 239.210938 C 328.9375 237.914062 329.078125 236.761719 329.503906 235.753906 C 329.929688 234.601562 330.355469 233.738281 331.0625 232.875 L 331.914062 232.875 C 331.203125 233.738281 330.636719 234.746094 330.355469 235.753906 C 329.929688 236.90625 329.789062 237.914062 329.789062 239.210938 C 329.789062 241.515625 330.496094 243.53125 331.914062 245.402344 L 331.203125 245.402344 C 330.496094 244.539062 330.070312 243.675781 329.644531 242.667969 C 329.078125 241.515625 328.9375 240.363281 328.9375 239.210938 Z M 328.9375 239.210938 "/>
<path style=" stroke:none;fill-rule:nonzero;fill:rgb(13.72549%,12.156863%,12.54902%);fill-opacity:1;" d="M 336.449219 243.242188 C 335.3125 243.242188 334.464844 242.953125 333.898438 242.234375 C 333.332031 241.515625 333.046875 240.648438 333.046875 239.355469 C 333.046875 238.203125 333.332031 237.195312 333.898438 236.472656 C 334.464844 235.753906 335.3125 235.320312 336.304688 235.320312 C 337.15625 235.320312 337.863281 235.609375 338.429688 236.328125 C 339 236.90625 339.140625 237.769531 339.140625 238.921875 L 339.140625 239.496094 L 333.753906 239.496094 C 333.753906 240.507812 334.039062 241.371094 334.464844 241.945312 C 334.890625 242.523438 335.597656 242.808594 336.449219 242.808594 C 336.871094 242.808594 337.296875 242.808594 337.582031 242.667969 C 337.863281 242.667969 338.289062 242.523438 338.855469 242.234375 L 338.855469 242.808594 C 338.429688 242.953125 338.007812 243.097656 337.722656 243.242188 C 337.296875 243.242188 336.871094 243.242188 336.449219 243.242188 Z M 336.304688 235.898438 C 335.597656 235.898438 335.03125 236.183594 334.605469 236.617188 C 334.179688 237.050781 333.898438 237.769531 333.898438 238.777344 L 338.574219 238.777344 C 338.574219 237.914062 338.429688 237.195312 338.007812 236.761719 C 337.582031 236.328125 336.871094 235.898438 336.304688 235.898438 Z M 336.304688 235.898438 "/>
<path style=" stroke:none;fill-rule:nonzero;fill:rgb(13.72549%,12.156863%,12.54902%);fill-opacity:1;" d="M 347.074219 243.097656 L 340.699219 243.097656 L 340.699219 242.523438 L 343.390625 239.640625 C 344.097656 238.777344 344.667969 238.203125 344.949219 237.769531 C 345.234375 237.335938 345.515625 236.90625 345.65625 236.617188 C 345.800781 236.183594 345.941406 235.898438 345.941406 235.464844 C 345.941406 234.890625 345.800781 234.3125 345.375 234.023438 C 344.949219 233.59375 344.523438 233.449219 343.816406 233.449219 C 342.964844 233.449219 342.117188 233.738281 341.40625 234.3125 L 340.980469 233.882812 C 341.832031 233.160156 342.824219 232.730469 343.816406 232.730469 C 344.667969 232.730469 345.375 233.015625 345.941406 233.449219 C 346.507812 233.882812 346.648438 234.601562 346.648438 235.464844 C 346.648438 236.183594 346.507812 236.761719 346.082031 237.480469 C 345.800781 238.058594 345.089844 238.921875 344.242188 239.785156 L 341.691406 242.523438 L 347.074219 242.523438 Z M 347.074219 243.097656 "/>
<path style=" stroke:none;fill-rule:nonzero;fill:rgb(13.72549%,12.156863%,12.54902%);fill-opacity:1;" d="M 352.316406 243.242188 C 351.183594 243.242188 350.332031 242.953125 349.765625 242.234375 C 349.199219 241.515625 348.917969 240.648438 348.917969 239.355469 C 348.917969 238.203125 349.199219 237.195312 349.765625 236.472656 C 350.332031 235.753906 351.183594 235.320312 352.175781 235.320312 C 353.027344 235.320312 353.734375 235.609375 354.300781 236.328125 C 354.867188 236.90625 355.011719 237.769531 355.011719 238.921875 L 355.011719 239.496094 L 349.625 239.496094 C 349.625 240.507812 349.910156 241.371094 350.332031 241.945312 C 350.757812 242.523438 351.46875 242.808594 352.316406 242.808594 C 352.742188 242.808594 353.167969 242.808594 353.453125 242.667969 C 353.734375 242.667969 354.160156 242.523438 354.726562 242.234375 L 354.726562 242.808594 C 354.300781 242.953125 353.875 243.097656 353.59375 243.242188 C 353.167969 243.242188 352.742188 243.242188 352.316406 243.242188 Z M 352.175781 235.898438 C 351.46875 235.898438 350.902344 236.183594 350.476562 236.617188 C 350.050781 237.050781 349.765625 237.769531 349.765625 238.777344 L 354.441406 238.777344 C 354.441406 237.914062 354.300781 237.195312 353.875 236.761719 C 353.453125 236.328125 352.742188 235.898438 352.175781 235.898438 Z M 352.175781 235.898438 "/>
<path style=" stroke:none;fill-rule:nonzero;fill:rgb(13.72549%,12.156863%,12.54902%);fill-opacity:1;" d="M 359.121094 239.210938 C 359.121094 240.507812 358.976562 241.65625 358.550781 242.667969 C 358.128906 243.675781 357.703125 244.683594 356.992188 245.402344 L 356.285156 245.402344 C 357.703125 243.53125 358.410156 241.371094 358.410156 239.210938 C 358.410156 238.058594 358.269531 236.90625 357.84375 235.753906 C 357.417969 234.601562 356.992188 233.738281 356.285156 232.875 L 357.136719 232.875 C 357.84375 233.738281 358.269531 234.601562 358.695312 235.753906 C 358.835938 236.761719 359.121094 237.914062 359.121094 239.210938 Z M 359.121094 239.210938 "/>
<path style=" stroke:none;fill-rule:nonzero;fill:rgb(13.72549%,12.156863%,12.54902%);fill-opacity:1;" d="M 299.605469 392.15625 L 299.605469 381.929688 L 300.3125 381.929688 L 300.3125 391.578125 L 305.132812 391.578125 L 305.132812 392.296875 L 299.605469 392.296875 Z M 299.605469 392.15625 "/>
<path style=" stroke:none;fill-rule:nonzero;fill:rgb(13.72549%,12.156863%,12.54902%);fill-opacity:1;" d="M 306.691406 382.363281 C 306.691406 381.929688 306.832031 381.640625 307.117188 381.640625 C 307.257812 381.640625 307.398438 381.640625 307.398438 381.785156 C 307.539062 381.929688 307.539062 382.074219 307.539062 382.21875 C 307.539062 382.363281 307.539062 382.648438 307.398438 382.648438 C 307.257812 382.792969 307.257812 382.792969 307.117188 382.792969 C 306.832031 383.082031 306.691406 382.792969 306.691406 382.363281 Z M 307.398438 392.15625 L 306.691406 392.15625 L 306.691406 384.523438 L 307.398438 384.523438 Z M 307.398438 392.15625 "/>
<path style=" stroke:none;fill-rule:nonzero;fill:rgb(13.72549%,12.156863%,12.54902%);fill-opacity:1;" d="M 311.933594 391.578125 C 312.359375 391.578125 312.785156 391.578125 313.066406 391.433594 L 313.066406 392.011719 C 312.785156 392.15625 312.359375 392.15625 311.933594 392.15625 C 311.226562 392.15625 310.800781 392.011719 310.515625 391.578125 C 310.234375 391.144531 310.089844 390.714844 310.089844 389.851562 L 310.089844 384.953125 L 308.957031 384.953125 L 308.957031 384.523438 L 310.089844 384.234375 L 310.375 382.503906 L 310.660156 382.503906 L 310.660156 384.378906 L 312.925781 384.378906 L 312.925781 384.953125 L 310.660156 384.953125 L 310.660156 389.851562 C 310.660156 390.425781 310.800781 390.859375 310.941406 391.144531 C 311.082031 391.433594 311.507812 391.578125 311.933594 391.578125 Z M 311.933594 391.578125 "/>
<path style=" stroke:none;fill-rule:nonzero;fill:rgb(13.72549%,12.156863%,12.54902%);fill-opacity:1;" d="M 324.121094 392.15625 L 324.121094 387.113281 C 324.121094 386.394531 323.976562 385.816406 323.695312 385.53125 C 323.410156 385.242188 322.984375 384.953125 322.417969 384.953125 C 321.710938 384.953125 321.144531 385.097656 320.71875 385.53125 C 320.292969 385.960938 320.152344 386.683594 320.152344 387.546875 L 320.152344 392.011719 L 319.445312 392.011719 L 319.445312 386.824219 C 319.445312 385.53125 318.875 384.953125 317.742188 384.953125 C 316.894531 384.953125 316.328125 385.242188 316.042969 385.671875 C 315.617188 386.105469 315.476562 386.824219 315.476562 387.976562 L 315.476562 392.15625 L 314.769531 392.15625 L 314.769531 384.523438 L 315.335938 384.523438 L 315.476562 385.53125 C 315.617188 385.097656 316.042969 384.808594 316.328125 384.664062 C 316.75 384.523438 317.175781 384.378906 317.601562 384.378906 C 318.734375 384.378906 319.585938 384.808594 319.867188 385.671875 C 320.152344 385.242188 320.433594 384.953125 320.859375 384.664062 C 321.285156 384.378906 321.710938 384.378906 322.277344 384.378906 C 323.128906 384.378906 323.695312 384.664062 324.121094 385.097656 C 324.542969 385.53125 324.6875 386.25 324.6875 387.257812 L 324.6875 392.296875 L 324.121094 392.296875 Z M 324.121094 392.15625 "/>
<path style=" stroke:none;fill-rule:nonzero;fill:rgb(13.72549%,12.156863%,12.54902%);fill-opacity:1;" d="M 327.804688 384.523438 L 327.804688 389.417969 C 327.804688 390.136719 327.945312 390.714844 328.230469 391.144531 C 328.511719 391.433594 329.078125 391.722656 329.644531 391.722656 C 330.496094 391.722656 331.203125 391.433594 331.628906 391.003906 C 332.054688 390.570312 332.195312 389.851562 332.195312 388.699219 L 332.195312 384.523438 L 332.90625 384.523438 L 332.90625 392.15625 L 332.339844 392.15625 L 332.195312 391.144531 C 331.769531 392.011719 330.78125 392.296875 329.644531 392.296875 C 327.945312 392.296875 327.09375 391.433594 327.09375 389.5625 L 327.09375 384.523438 Z M 327.804688 384.523438 "/>
<path style=" stroke:none;fill-rule:nonzero;fill:rgb(13.72549%,12.156863%,12.54902%);fill-opacity:1;" d="M 340.132812 390.136719 C 340.132812 390.859375 339.847656 391.289062 339.421875 391.722656 C 338.855469 392.15625 338.148438 392.296875 337.296875 392.296875 C 336.304688 392.296875 335.457031 392.15625 334.890625 391.867188 L 334.890625 391.144531 C 335.597656 391.578125 336.449219 391.722656 337.296875 391.722656 C 338.007812 391.722656 338.574219 391.578125 339 391.289062 C 339.421875 391.003906 339.566406 390.714844 339.566406 390.28125 C 339.566406 389.851562 339.421875 389.5625 339.140625 389.273438 C 338.855469 388.984375 338.289062 388.699219 337.582031 388.554688 C 336.871094 388.265625 336.304688 387.976562 336.023438 387.832031 C 335.738281 387.691406 335.457031 387.402344 335.3125 387.113281 C 335.171875 386.824219 335.03125 386.539062 335.03125 386.25 C 335.03125 385.671875 335.3125 385.242188 335.738281 384.953125 C 336.164062 384.664062 336.871094 384.523438 337.722656 384.523438 C 338.574219 384.523438 339.28125 384.664062 339.988281 384.953125 L 339.707031 385.53125 C 339 385.242188 338.289062 385.097656 337.582031 385.097656 C 337.015625 385.097656 336.449219 385.242188 336.164062 385.386719 C 335.738281 385.53125 335.597656 385.816406 335.597656 386.25 C 335.597656 386.683594 335.738281 386.96875 336.023438 387.257812 C 336.304688 387.546875 336.871094 387.832031 337.722656 388.121094 C 338.429688 388.410156 338.855469 388.554688 339.140625 388.84375 C 339.421875 388.984375 339.707031 389.273438 339.847656 389.5625 C 340.132812 389.417969 340.132812 389.851562 340.132812 390.136719 Z M 340.132812 390.136719 "/>
<path style=" stroke:none;fill-rule:nonzero;fill:rgb(13.72549%,12.156863%,12.54902%);fill-opacity:1;" d="M 350.902344 388.554688 L 346.792969 388.554688 L 345.375 392.15625 L 344.523438 392.15625 L 348.632812 381.785156 L 349.058594 381.785156 L 353.027344 392.15625 L 352.175781 392.15625 Z M 347.074219 387.832031 L 350.757812 387.832031 L 349.34375 384.089844 C 349.199219 383.800781 349.058594 383.371094 348.917969 382.9375 C 348.773438 383.371094 348.632812 383.800781 348.492188 384.089844 Z M 347.074219 387.832031 "/>
<path style=" stroke:none;fill-rule:nonzero;fill:rgb(13.72549%,12.156863%,12.54902%);fill-opacity:1;" d="M 357.277344 384.378906 C 357.5625 384.378906 357.984375 384.378906 358.269531 384.523438 L 358.128906 385.242188 C 357.84375 385.097656 357.417969 385.097656 357.136719 385.097656 C 356.425781 385.097656 356 385.386719 355.578125 385.960938 C 355.152344 386.539062 355.011719 387.257812 355.011719 388.121094 L 355.011719 392.296875 L 354.300781 392.296875 L 354.300781 384.523438 L 354.867188 384.523438 L 354.867188 385.960938 C 355.152344 385.386719 355.578125 384.953125 355.859375 384.808594 C 356.425781 384.378906 356.851562 384.378906 357.277344 384.378906 Z M 357.277344 384.378906 "/>
<path style=" stroke:none;fill-rule:nonzero;fill:rgb(13.72549%,12.156863%,12.54902%);fill-opacity:1;" d="M 361.8125 391.578125 C 362.238281 391.578125 362.660156 391.578125 362.945312 391.433594 L 362.945312 392.011719 C 362.660156 392.15625 362.238281 392.15625 361.8125 392.15625 C 361.101562 392.15625 360.679688 392.011719 360.394531 391.578125 C 360.109375 391.144531 359.96875 390.714844 359.96875 389.851562 L 359.96875 384.953125 L 358.695312 384.953125 L 358.695312 384.523438 L 359.828125 384.234375 L 360.109375 382.503906 L 360.394531 382.503906 L 360.394531 384.378906 L 362.660156 384.378906 L 362.660156 384.953125 L 360.394531 384.953125 L 360.394531 389.851562 C 360.394531 390.425781 360.535156 390.859375 360.679688 391.144531 C 360.820312 391.433594 361.386719 391.578125 361.8125 391.578125 Z M 361.8125 391.578125 "/>
<path style=" stroke:none;fill-rule:nonzero;fill:rgb(13.72549%,12.156863%,12.54902%);fill-opacity:1;" d="M 364.503906 382.363281 C 364.503906 381.929688 364.644531 381.640625 364.929688 381.640625 C 365.070312 381.640625 365.210938 381.640625 365.210938 381.785156 C 365.355469 381.929688 365.355469 382.074219 365.355469 382.21875 C 365.355469 382.363281 365.355469 382.648438 365.210938 382.648438 C 365.070312 382.792969 365.070312 382.792969 364.929688 382.792969 C 364.644531 383.082031 364.503906 382.792969 364.503906 382.363281 Z M 365.210938 392.15625 L 364.503906 392.15625 L 364.503906 384.523438 L 365.210938 384.523438 Z M 365.210938 392.15625 "/>
<path style=" stroke:none;fill-rule:nonzero;fill:rgb(13.72549%,12.156863%,12.54902%);fill-opacity:1;" d="M 370.597656 385.097656 L 368.898438 385.097656 L 368.898438 392.15625 L 368.1875 392.15625 L 368.1875 385.097656 L 366.769531 385.097656 L 366.769531 384.664062 L 368.1875 384.378906 L 368.1875 383.800781 C 368.1875 382.792969 368.328125 382.21875 368.753906 381.785156 C 369.039062 381.351562 369.605469 381.066406 370.457031 381.066406 C 370.878906 381.066406 371.304688 381.066406 371.730469 381.210938 L 371.589844 381.785156 C 371.164062 381.640625 370.878906 381.640625 370.457031 381.640625 C 369.886719 381.640625 369.605469 381.785156 369.320312 382.074219 C 369.039062 382.363281 369.039062 382.9375 369.039062 383.65625 L 369.039062 384.378906 L 370.738281 384.378906 L 370.738281 385.097656 Z M 370.597656 385.097656 "/>
<path style=" stroke:none;fill-rule:nonzero;fill:rgb(13.72549%,12.156863%,12.54902%);fill-opacity:1;" d="M 376.546875 392.15625 L 376.40625 391.003906 C 375.980469 391.433594 375.699219 391.867188 375.273438 392.011719 C 374.847656 392.15625 374.421875 392.296875 373.855469 392.296875 C 373.148438 392.296875 372.582031 392.15625 372.15625 391.722656 C 371.730469 391.289062 371.589844 390.859375 371.589844 390.136719 C 371.589844 389.417969 371.871094 388.84375 372.4375 388.410156 C 373.003906 387.976562 373.996094 387.832031 375.132812 387.691406 L 376.546875 387.691406 L 376.546875 387.113281 C 376.546875 386.394531 376.40625 385.816406 376.125 385.53125 C 375.839844 385.097656 375.414062 384.953125 374.707031 384.953125 C 373.996094 384.953125 373.289062 385.097656 372.582031 385.53125 L 372.296875 384.953125 C 373.148438 384.523438 373.996094 384.378906 374.707031 384.378906 C 375.554688 384.378906 376.125 384.664062 376.546875 385.097656 C 376.972656 385.53125 377.113281 386.25 377.113281 387.113281 L 377.113281 392.15625 Z M 373.855469 391.578125 C 374.707031 391.578125 375.273438 391.289062 375.699219 390.859375 C 376.125 390.425781 376.40625 389.707031 376.40625 388.984375 L 376.40625 388.265625 L 375.132812 388.265625 C 374.140625 388.265625 373.289062 388.554688 372.863281 388.699219 C 372.4375 388.984375 372.15625 389.417969 372.15625 389.996094 C 372.15625 390.425781 372.296875 390.859375 372.582031 391.144531 C 372.863281 391.433594 373.289062 391.578125 373.855469 391.578125 Z M 373.855469 391.578125 "/>
<path style=" stroke:none;fill-rule:nonzero;fill:rgb(13.72549%,12.156863%,12.54902%);fill-opacity:1;" d="M 382.5 392.296875 C 381.367188 392.296875 380.515625 392.011719 379.949219 391.289062 C 379.382812 390.570312 379.097656 389.707031 379.097656 388.410156 C 379.097656 387.113281 379.382812 386.105469 380.089844 385.386719 C 380.65625 384.664062 381.648438 384.378906 382.640625 384.378906 C 383.351562 384.378906 383.917969 384.523438 384.484375 384.664062 L 384.339844 385.242188 C 383.632812 384.953125 383.066406 384.953125 382.640625 384.953125 C 381.648438 384.953125 381.082031 385.242188 380.515625 385.816406 C 380.089844 386.394531 379.808594 387.257812 379.808594 388.265625 C 379.808594 389.273438 380.089844 390.136719 380.515625 390.714844 C 380.941406 391.289062 381.648438 391.578125 382.5 391.578125 C 383.207031 391.578125 383.773438 391.433594 384.339844 391.144531 L 384.339844 391.722656 C 383.917969 392.15625 383.351562 392.296875 382.5 392.296875 Z M 382.5 392.296875 "/>
<path style=" stroke:none;fill-rule:nonzero;fill:rgb(13.72549%,12.156863%,12.54902%);fill-opacity:1;" d="M 388.308594 391.578125 C 388.734375 391.578125 389.160156 391.578125 389.441406 391.433594 L 389.441406 392.011719 C 389.160156 392.15625 388.734375 392.15625 388.308594 392.15625 C 387.601562 392.15625 387.175781 392.011719 386.890625 391.578125 C 386.609375 391.144531 386.46875 390.714844 386.46875 389.851562 L 386.46875 384.953125 L 385.332031 384.953125 L 385.332031 384.523438 L 386.46875 384.234375 L 386.75 382.503906 L 387.035156 382.503906 L 387.035156 384.378906 L 389.300781 384.378906 L 389.300781 384.953125 L 387.035156 384.953125 L 387.035156 389.851562 C 387.035156 390.425781 387.175781 390.859375 387.316406 391.144531 C 387.460938 391.433594 387.882812 391.578125 388.308594 391.578125 Z M 388.308594 391.578125 "/>
<path style=" stroke:none;fill-rule:nonzero;fill:rgb(13.72549%,12.156863%,12.54902%);fill-opacity:1;" d="M 312.21875 404.972656 L 312.21875 409.4375 L 311.507812 409.4375 L 311.507812 399.210938 L 313.917969 399.210938 C 315.191406 399.210938 316.042969 399.5 316.75 399.929688 C 317.460938 400.363281 317.601562 401.082031 317.601562 402.089844 C 317.601562 402.8125 317.460938 403.386719 317.035156 403.820312 C 316.609375 404.25 316.183594 404.683594 315.335938 404.828125 L 318.027344 409.582031 L 317.175781 409.582031 L 314.625 405.117188 L 312.21875 405.117188 Z M 312.21875 404.25 L 314.199219 404.25 C 315.050781 404.25 315.757812 404.109375 316.183594 403.675781 C 316.609375 403.242188 316.894531 402.667969 316.894531 401.949219 C 316.894531 401.226562 316.609375 400.652344 316.183594 400.21875 C 315.757812 399.929688 314.910156 399.644531 313.917969 399.644531 L 312.21875 399.644531 Z M 312.21875 404.25 "/>
<path style=" stroke:none;fill-rule:nonzero;fill:rgb(13.72549%,12.156863%,12.54902%);fill-opacity:1;" d="M 322.84375 409.582031 C 321.710938 409.582031 320.859375 409.292969 320.292969 408.570312 C 319.726562 407.851562 319.445312 406.988281 319.445312 405.691406 C 319.445312 404.539062 319.726562 403.53125 320.292969 402.8125 C 320.859375 402.089844 321.710938 401.660156 322.703125 401.660156 C 323.554688 401.660156 324.261719 401.949219 324.828125 402.667969 C 325.394531 403.242188 325.535156 404.109375 325.535156 405.261719 L 325.535156 405.835938 L 320.152344 405.835938 C 320.152344 406.84375 320.433594 407.707031 320.859375 408.285156 C 321.285156 408.859375 321.996094 409.148438 322.84375 409.148438 C 323.269531 409.148438 323.695312 409.148438 323.976562 409.003906 C 324.261719 409.003906 324.6875 408.859375 325.253906 408.570312 L 325.253906 409.148438 C 324.828125 409.292969 324.402344 409.4375 324.121094 409.582031 C 323.554688 409.582031 323.269531 409.582031 322.84375 409.582031 Z M 322.5625 402.234375 C 321.851562 402.234375 321.285156 402.523438 320.859375 402.957031 C 320.433594 403.386719 320.152344 404.109375 320.152344 405.117188 L 324.828125 405.117188 C 324.828125 404.25 324.6875 403.53125 324.261719 403.097656 C 323.835938 402.667969 323.269531 402.234375 322.5625 402.234375 Z M 322.5625 402.234375 "/>
<path style=" stroke:none;fill-rule:nonzero;fill:rgb(13.72549%,12.156863%,12.54902%);fill-opacity:1;" d="M 330.78125 409.582031 C 329.644531 409.582031 328.796875 409.148438 328.230469 408.285156 L 328.230469 408.859375 C 328.230469 409.148438 328.230469 409.582031 328.230469 410.011719 L 328.230469 412.894531 L 327.519531 412.894531 L 327.519531 401.804688 L 328.085938 401.804688 L 328.230469 402.957031 C 328.796875 402.089844 329.503906 401.660156 330.636719 401.660156 C 331.628906 401.660156 332.480469 401.949219 332.90625 402.667969 C 333.472656 403.386719 333.753906 404.394531 333.753906 405.691406 C 333.753906 406.988281 333.472656 407.851562 332.90625 408.570312 C 332.480469 409.148438 331.769531 409.582031 330.78125 409.582031 Z M 330.78125 408.859375 C 331.488281 408.859375 332.195312 408.570312 332.621094 407.996094 C 333.046875 407.421875 333.1875 406.554688 333.1875 405.546875 C 333.1875 403.242188 332.339844 402.234375 330.78125 402.234375 C 329.929688 402.234375 329.222656 402.523438 328.796875 402.957031 C 328.371094 403.386719 328.230469 404.25 328.230469 405.402344 L 328.230469 405.691406 C 328.230469 406.84375 328.371094 407.707031 328.796875 408.285156 C 329.222656 408.714844 329.789062 408.859375 330.78125 408.859375 Z M 330.78125 408.859375 "/>
<path style=" stroke:none;fill-rule:nonzero;fill:rgb(13.72549%,12.156863%,12.54902%);fill-opacity:1;" d="M 342.117188 405.546875 C 342.117188 406.84375 341.832031 407.707031 341.265625 408.429688 C 340.699219 409.148438 339.847656 409.4375 338.855469 409.4375 C 338.148438 409.4375 337.582031 409.292969 337.15625 409.003906 C 336.730469 408.714844 336.304688 408.285156 336.023438 407.5625 C 335.738281 406.84375 335.597656 406.269531 335.597656 405.402344 C 335.597656 404.109375 335.878906 403.242188 336.449219 402.523438 C 337.015625 401.804688 337.863281 401.515625 338.855469 401.515625 C 339.847656 401.515625 340.699219 401.804688 341.265625 402.523438 C 341.832031 403.386719 342.117188 404.394531 342.117188 405.546875 Z M 336.304688 405.546875 C 336.304688 406.554688 336.589844 407.421875 337.015625 407.996094 C 337.4375 408.570312 338.148438 408.859375 339 408.859375 C 339.847656 408.859375 340.414062 408.570312 340.980469 407.996094 C 341.40625 407.421875 341.691406 406.554688 341.691406 405.546875 C 341.691406 404.539062 341.40625 403.675781 340.980469 403.097656 C 340.558594 402.523438 339.847656 402.234375 339 402.234375 C 338.148438 402.234375 337.582031 402.523438 337.015625 403.097656 C 336.449219 403.675781 336.304688 404.539062 336.304688 405.546875 Z M 336.304688 405.546875 "/>
<path style=" stroke:none;fill-rule:nonzero;fill:rgb(13.72549%,12.156863%,12.54902%);fill-opacity:1;" d="M 348.917969 407.421875 C 348.917969 408.140625 348.632812 408.570312 348.207031 409.003906 C 347.640625 409.4375 346.933594 409.582031 346.082031 409.582031 C 345.089844 409.582031 344.242188 409.4375 343.675781 409.148438 L 343.675781 408.429688 C 344.382812 408.859375 345.234375 409.003906 346.082031 409.003906 C 346.792969 409.003906 347.359375 408.859375 347.785156 408.570312 C 348.207031 408.285156 348.351562 407.996094 348.351562 407.5625 C 348.351562 407.132812 348.207031 406.84375 347.925781 406.554688 C 347.640625 406.269531 347.074219 405.980469 346.367188 405.835938 C 345.65625 405.546875 345.089844 405.261719 344.808594 405.117188 C 344.523438 404.972656 344.242188 404.683594 344.097656 404.394531 C 343.957031 404.109375 343.816406 403.820312 343.816406 403.53125 C 343.816406 402.957031 344.097656 402.523438 344.523438 402.234375 C 344.949219 401.949219 345.65625 401.804688 346.507812 401.804688 C 347.359375 401.804688 348.066406 401.949219 348.773438 402.234375 L 348.492188 402.8125 C 347.785156 402.523438 347.074219 402.378906 346.367188 402.378906 C 345.800781 402.378906 345.234375 402.523438 344.949219 402.667969 C 344.523438 402.8125 344.382812 403.097656 344.382812 403.53125 C 344.382812 403.964844 344.523438 404.25 344.808594 404.539062 C 345.089844 404.828125 345.65625 405.117188 346.507812 405.402344 C 347.214844 405.691406 347.640625 405.835938 347.925781 406.125 C 348.207031 406.269531 348.492188 406.554688 348.632812 406.84375 C 348.917969 406.699219 348.917969 407.132812 348.917969 407.421875 Z M 348.917969 407.421875 "/>
<path style=" stroke:none;fill-rule:nonzero;fill:rgb(13.72549%,12.156863%,12.54902%);fill-opacity:1;" d="M 350.757812 399.644531 C 350.757812 399.210938 350.902344 398.921875 351.183594 398.921875 C 351.324219 398.921875 351.46875 398.921875 351.46875 399.066406 C 351.609375 399.210938 351.609375 399.355469 351.609375 399.5 C 351.609375 399.644531 351.609375 399.929688 351.46875 399.929688 C 351.324219 400.074219 351.324219 400.074219 351.183594 400.074219 C 350.902344 400.363281 350.757812 400.074219 350.757812 399.644531 Z M 351.609375 409.4375 L 350.902344 409.4375 L 350.902344 401.804688 L 351.609375 401.804688 Z M 351.609375 409.4375 "/>
<path style=" stroke:none;fill-rule:nonzero;fill:rgb(13.72549%,12.156863%,12.54902%);fill-opacity:1;" d="M 356 408.859375 C 356.425781 408.859375 356.851562 408.859375 357.136719 408.714844 L 357.136719 409.292969 C 356.851562 409.4375 356.425781 409.4375 356 409.4375 C 355.292969 409.4375 354.867188 409.292969 354.585938 408.859375 C 354.300781 408.429688 354.160156 407.996094 354.160156 407.132812 L 354.160156 402.234375 L 353.027344 402.234375 L 353.027344 401.804688 L 354.160156 401.515625 L 354.441406 399.789062 L 354.726562 399.789062 L 354.726562 401.660156 L 356.992188 401.660156 L 356.992188 402.234375 L 354.726562 402.234375 L 354.726562 407.132812 C 354.726562 407.707031 354.867188 408.140625 355.011719 408.429688 C 355.152344 408.714844 355.578125 408.859375 356 408.859375 Z M 356 408.859375 "/>
<path style=" stroke:none;fill-rule:nonzero;fill:rgb(13.72549%,12.156863%,12.54902%);fill-opacity:1;" d="M 365.070312 405.546875 C 365.070312 406.84375 364.789062 407.707031 364.21875 408.429688 C 363.652344 409.148438 362.804688 409.4375 361.8125 409.4375 C 361.101562 409.4375 360.535156 409.292969 360.109375 409.003906 C 359.6875 408.714844 359.261719 408.285156 358.976562 407.5625 C 358.695312 406.84375 358.550781 406.269531 358.550781 405.402344 C 358.550781 404.109375 358.835938 403.242188 359.402344 402.523438 C 359.96875 401.804688 360.820312 401.515625 361.8125 401.515625 C 362.804688 401.515625 363.652344 401.804688 364.21875 402.523438 C 364.789062 403.386719 365.070312 404.394531 365.070312 405.546875 Z M 359.121094 405.546875 C 359.121094 406.554688 359.402344 407.421875 359.828125 407.996094 C 360.253906 408.570312 360.960938 408.859375 361.8125 408.859375 C 362.660156 408.859375 363.230469 408.570312 363.796875 407.996094 C 364.21875 407.421875 364.503906 406.554688 364.503906 405.546875 C 364.503906 404.539062 364.21875 403.675781 363.796875 403.097656 C 363.371094 402.523438 362.660156 402.234375 361.8125 402.234375 C 360.960938 402.234375 360.394531 402.523438 359.828125 403.097656 C 359.261719 403.675781 359.121094 404.539062 359.121094 405.546875 Z M 359.121094 405.546875 "/>
<path style=" stroke:none;fill-rule:nonzero;fill:rgb(13.72549%,12.156863%,12.54902%);fill-opacity:1;" d="M 370.03125 401.660156 C 370.3125 401.660156 370.738281 401.660156 371.023438 401.804688 L 370.878906 402.523438 C 370.597656 402.378906 370.171875 402.378906 369.886719 402.378906 C 369.179688 402.378906 368.753906 402.667969 368.328125 403.242188 C 367.90625 403.820312 367.761719 404.539062 367.761719 405.402344 L 367.761719 409.582031 L 367.054688 409.582031 L 367.054688 401.804688 L 367.621094 401.804688 L 367.621094 403.242188 C 367.90625 402.667969 368.328125 402.234375 368.613281 402.089844 C 369.179688 401.660156 369.605469 401.660156 370.03125 401.660156 Z M 370.03125 401.660156 "/>
<path style=" stroke:none;fill-rule:nonzero;fill:rgb(13.72549%,12.156863%,12.54902%);fill-opacity:1;" d="M 371.304688 401.804688 L 372.015625 401.804688 L 373.574219 406.125 C 373.996094 407.421875 374.421875 408.285156 374.421875 408.859375 C 374.566406 408.285156 374.988281 407.421875 375.414062 406.125 L 376.972656 401.949219 L 377.683594 401.949219 L 374.28125 410.875 C 373.996094 411.597656 373.714844 412.027344 373.574219 412.316406 C 373.429688 412.605469 373.148438 412.75 372.863281 412.894531 C 372.582031 413.035156 372.296875 413.035156 372.015625 413.035156 C 371.730469 413.035156 371.445312 413.035156 371.164062 412.894531 L 371.164062 412.316406 C 371.445312 412.460938 371.730469 412.460938 372.015625 412.460938 C 372.296875 412.460938 372.4375 412.460938 372.582031 412.316406 C 372.722656 412.171875 372.863281 412.027344 373.003906 411.742188 C 373.148438 411.453125 373.289062 411.164062 373.574219 410.589844 C 373.714844 410.011719 373.855469 409.722656 373.996094 409.582031 Z M 371.304688 401.804688 "/>
<path style=" stroke:none;fill-rule:nonzero;fill:rgb(13.72549%,12.156863%,12.54902%);fill-opacity:1;" d="M 68.070312 171.523438 C 68.070312 172.53125 67.785156 173.25 67.078125 173.828125 C 66.371094 174.402344 65.519531 174.691406 64.246094 174.691406 L 62.6875 174.691406 L 62.6875 178.867188 L 61.976562 178.867188 L 61.976562 168.640625 L 64.386719 168.640625 C 66.9375 168.640625 68.070312 169.648438 68.070312 171.523438 Z M 62.6875 174.113281 L 64.101562 174.113281 C 65.234375 174.113281 66.085938 173.972656 66.511719 173.539062 C 67.078125 173.105469 67.21875 172.53125 67.21875 171.667969 C 67.21875 170.945312 66.9375 170.226562 66.511719 169.9375 C 66.085938 169.507812 65.234375 169.363281 64.246094 169.363281 L 62.542969 169.363281 L 62.542969 174.113281 Z M 62.6875 174.113281 "/>
<path style=" stroke:none;fill-rule:nonzero;fill:rgb(13.72549%,12.156863%,12.54902%);fill-opacity:1;" d="M 73.03125 171.089844 C 73.3125 171.089844 73.738281 171.089844 74.019531 171.234375 L 73.878906 171.953125 C 73.597656 171.8125 73.171875 171.8125 72.886719 171.8125 C 72.179688 171.8125 71.753906 172.097656 71.328125 172.675781 C 70.902344 173.25 70.761719 173.972656 70.761719 174.835938 L 70.761719 179.011719 L 70.054688 179.011719 L 70.054688 171.378906 L 70.621094 171.378906 L 70.621094 172.820312 C 70.902344 172.242188 71.328125 171.8125 71.613281 171.667969 C 72.179688 171.234375 72.605469 171.089844 73.03125 171.089844 Z M 73.03125 171.089844 "/>
<path style=" stroke:none;fill-rule:nonzero;fill:rgb(13.72549%,12.156863%,12.54902%);fill-opacity:1;" d="M 81.816406 175.121094 C 81.816406 176.417969 81.53125 177.28125 80.964844 178.003906 C 80.398438 178.722656 79.546875 179.011719 78.554688 179.011719 C 77.847656 179.011719 77.28125 178.867188 76.855469 178.578125 C 76.429688 178.292969 76.003906 177.859375 75.722656 177.140625 C 75.4375 176.417969 75.296875 175.84375 75.296875 174.980469 C 75.296875 173.683594 75.582031 172.820312 76.148438 172.097656 C 76.714844 171.378906 77.5625 171.089844 78.554688 171.089844 C 79.546875 171.089844 80.398438 171.378906 80.964844 172.097656 C 81.53125 172.820312 81.816406 173.828125 81.816406 175.121094 Z M 75.863281 175.121094 C 75.863281 176.132812 76.148438 176.996094 76.570312 177.570312 C 76.996094 178.148438 77.707031 178.433594 78.554688 178.433594 C 79.40625 178.433594 79.972656 178.148438 80.539062 177.570312 C 80.964844 176.996094 81.25 176.132812 81.25 175.121094 C 81.25 174.113281 80.964844 173.25 80.539062 172.675781 C 80.113281 172.097656 79.40625 171.8125 78.554688 171.8125 C 77.707031 171.8125 77.140625 172.097656 76.570312 172.675781 C 76.148438 173.25 75.863281 173.972656 75.863281 175.121094 Z M 75.863281 175.121094 "/>
<path style=" stroke:none;fill-rule:nonzero;fill:rgb(13.72549%,12.156863%,12.54902%);fill-opacity:1;" d="M 86.632812 171.089844 C 87.199219 171.089844 87.625 171.234375 88.050781 171.378906 C 88.476562 171.523438 88.757812 171.953125 89.183594 172.386719 C 89.183594 171.8125 89.183594 171.234375 89.183594 170.660156 L 89.183594 167.921875 L 89.890625 167.921875 L 89.890625 178.867188 L 89.464844 178.867188 L 89.324219 177.714844 C 88.757812 178.578125 87.90625 179.011719 86.917969 179.011719 C 85.925781 179.011719 85.074219 178.722656 84.507812 178.003906 C 83.941406 177.28125 83.65625 176.417969 83.65625 175.121094 C 83.65625 173.828125 83.941406 172.820312 84.507812 172.097656 C 84.789062 171.523438 85.640625 171.089844 86.632812 171.089844 Z M 86.632812 171.8125 C 85.78125 171.8125 85.214844 172.097656 84.789062 172.675781 C 84.367188 173.25 84.222656 174.113281 84.222656 175.265625 C 84.222656 177.425781 85.074219 178.578125 86.773438 178.578125 C 87.625 178.578125 88.191406 178.292969 88.617188 177.859375 C 89.042969 177.425781 89.183594 176.5625 89.183594 175.410156 L 89.183594 175.265625 C 89.183594 174.113281 89.042969 173.25 88.617188 172.675781 C 88.191406 171.953125 87.484375 171.8125 86.632812 171.8125 Z M 86.632812 171.8125 "/>
<path style=" stroke:none;fill-rule:nonzero;fill:rgb(13.72549%,12.156863%,12.54902%);fill-opacity:1;" d="M 93.007812 171.234375 L 93.007812 176.132812 C 93.007812 176.851562 93.152344 177.425781 93.433594 177.859375 C 93.71875 178.148438 94.285156 178.433594 94.851562 178.433594 C 95.703125 178.433594 96.410156 178.148438 96.835938 177.714844 C 97.261719 177.28125 97.402344 176.5625 97.402344 175.410156 L 97.402344 171.234375 L 98.109375 171.234375 L 98.109375 178.867188 L 97.542969 178.867188 L 97.402344 177.859375 C 96.976562 178.722656 95.984375 179.011719 94.851562 179.011719 C 93.152344 179.011719 92.300781 178.148438 92.300781 176.273438 L 92.300781 171.234375 Z M 93.007812 171.234375 "/>
<path style=" stroke:none;fill-rule:nonzero;fill:rgb(13.72549%,12.156863%,12.54902%);fill-opacity:1;" d="M 103.777344 179.011719 C 102.644531 179.011719 101.792969 178.722656 101.226562 178.003906 C 100.660156 177.28125 100.378906 176.417969 100.378906 175.121094 C 100.378906 173.828125 100.660156 172.820312 101.371094 172.097656 C 101.9375 171.378906 102.929688 171.089844 103.917969 171.089844 C 104.628906 171.089844 105.195312 171.234375 105.761719 171.378906 L 105.621094 171.953125 C 104.910156 171.667969 104.34375 171.667969 103.917969 171.667969 C 102.929688 171.667969 102.359375 171.953125 101.792969 172.53125 C 101.371094 173.105469 101.085938 173.972656 101.085938 174.980469 C 101.085938 175.988281 101.371094 176.851562 101.792969 177.425781 C 102.21875 178.003906 102.929688 178.292969 103.777344 178.292969 C 104.488281 178.292969 105.054688 178.148438 105.621094 177.859375 L 105.621094 178.433594 C 105.195312 178.867188 104.488281 179.011719 103.777344 179.011719 Z M 103.777344 179.011719 "/>
<path style=" stroke:none;fill-rule:nonzero;fill:rgb(13.72549%,12.156863%,12.54902%);fill-opacity:1;" d="M 109.445312 178.433594 C 109.871094 178.433594 110.296875 178.433594 110.578125 178.292969 L 110.578125 178.867188 C 110.296875 179.011719 109.871094 179.011719 109.445312 179.011719 C 108.738281 179.011719 108.3125 178.867188 108.027344 178.433594 C 107.746094 178.148438 107.605469 177.570312 107.605469 176.707031 L 107.605469 171.8125 L 106.46875 171.8125 L 106.46875 171.378906 L 107.605469 171.089844 L 107.886719 169.363281 L 108.171875 169.363281 L 108.171875 171.234375 L 110.4375 171.234375 L 110.4375 171.8125 L 108.171875 171.8125 L 108.171875 176.707031 C 108.171875 177.28125 108.3125 177.714844 108.453125 178.003906 C 108.597656 178.292969 109.019531 178.433594 109.445312 178.433594 Z M 109.445312 178.433594 "/>
<path style=" stroke:none;fill-rule:nonzero;fill:rgb(13.72549%,12.156863%,12.54902%);fill-opacity:1;" d="M 120.355469 169.074219 C 119.082031 169.074219 118.089844 169.507812 117.382812 170.371094 C 116.671875 171.234375 116.246094 172.386719 116.246094 173.828125 C 116.246094 175.265625 116.53125 176.417969 117.238281 177.28125 C 117.949219 178.148438 118.941406 178.433594 120.214844 178.433594 C 121.066406 178.433594 121.773438 178.292969 122.625 178.148438 L 122.625 178.722656 C 121.914062 179.011719 121.066406 179.011719 120.074219 179.011719 C 118.65625 179.011719 117.523438 178.578125 116.671875 177.570312 C 115.824219 176.707031 115.398438 175.265625 115.398438 173.683594 C 115.398438 172.675781 115.539062 171.667969 115.964844 170.945312 C 116.390625 170.082031 116.957031 169.507812 117.664062 169.074219 C 118.375 168.640625 119.222656 168.355469 120.214844 168.355469 C 121.207031 168.355469 122.058594 168.5 122.90625 168.929688 L 122.625 169.507812 C 121.914062 169.363281 121.207031 169.074219 120.355469 169.074219 Z M 120.355469 169.074219 "/>
<path style=" stroke:none;fill-rule:nonzero;fill:rgb(13.72549%,12.156863%,12.54902%);fill-opacity:1;" d="M 124.890625 178.867188 L 124.890625 168.640625 L 125.601562 168.640625 L 125.601562 178.867188 Z M 124.890625 178.867188 "/>
<path style=" stroke:none;fill-rule:nonzero;fill:rgb(13.72549%,12.156863%,12.54902%);fill-opacity:1;" d="M 138.210938 171.523438 C 138.210938 172.53125 137.925781 173.25 137.21875 173.828125 C 136.511719 174.402344 135.660156 174.691406 134.386719 174.691406 L 132.828125 174.691406 L 132.828125 178.867188 L 132.117188 178.867188 L 132.117188 168.640625 L 134.527344 168.640625 C 136.9375 168.640625 138.210938 169.648438 138.210938 171.523438 Z M 132.828125 174.113281 L 134.242188 174.113281 C 135.378906 174.113281 136.226562 173.972656 136.652344 173.539062 C 137.21875 173.105469 137.359375 172.53125 137.359375 171.667969 C 137.359375 170.945312 137.078125 170.226562 136.652344 169.9375 C 136.226562 169.507812 135.378906 169.363281 134.386719 169.363281 L 132.683594 169.363281 L 132.683594 174.113281 Z M 132.828125 174.113281 "/>
<path style=" stroke:none;fill-rule:nonzero;fill:rgb(13.72549%,12.156863%,12.54902%);fill-opacity:1;" d="M 140.054688 169.074219 C 140.054688 168.640625 140.195312 168.355469 140.476562 168.355469 C 140.621094 168.355469 140.761719 168.355469 140.761719 168.5 C 140.902344 168.640625 140.902344 168.785156 140.902344 168.929688 C 140.902344 169.074219 140.902344 169.363281 140.761719 169.363281 C 140.621094 169.507812 140.621094 169.507812 140.476562 169.507812 C 140.195312 169.792969 140.054688 169.648438 140.054688 169.074219 Z M 140.902344 178.867188 L 140.195312 178.867188 L 140.195312 171.234375 L 140.902344 171.234375 Z M 140.902344 178.867188 "/>
<path style=" stroke:none;fill-rule:nonzero;fill:rgb(13.72549%,12.156863%,12.54902%);fill-opacity:1;" d="M 146.570312 179.011719 C 145.4375 179.011719 144.585938 178.578125 144.019531 177.714844 L 144.019531 178.292969 C 144.019531 178.578125 144.019531 179.011719 144.019531 179.445312 L 144.019531 182.324219 L 143.3125 182.324219 L 143.3125 171.234375 L 143.878906 171.234375 L 144.019531 172.386719 C 144.585938 171.523438 145.296875 171.089844 146.429688 171.089844 C 147.421875 171.089844 148.273438 171.378906 148.695312 172.097656 C 149.261719 172.820312 149.546875 173.828125 149.546875 175.121094 C 149.546875 176.417969 149.261719 177.28125 148.695312 178.003906 C 148.414062 178.722656 147.5625 179.011719 146.570312 179.011719 Z M 146.570312 178.433594 C 147.28125 178.433594 147.988281 178.148438 148.414062 177.570312 C 148.839844 176.996094 148.980469 176.132812 148.980469 175.121094 C 148.980469 172.820312 148.128906 171.8125 146.570312 171.8125 C 145.722656 171.8125 145.011719 172.097656 144.585938 172.53125 C 144.164062 172.960938 144.019531 173.828125 144.019531 174.980469 L 144.019531 175.265625 C 144.019531 176.417969 144.164062 177.28125 144.585938 177.859375 C 145.152344 178.148438 145.722656 178.433594 146.570312 178.433594 Z M 146.570312 178.433594 "/>
<path style=" stroke:none;fill-rule:nonzero;fill:rgb(13.72549%,12.156863%,12.54902%);fill-opacity:1;" d="M 154.929688 179.011719 C 153.796875 179.011719 152.949219 178.722656 152.382812 178.003906 C 151.8125 177.28125 151.53125 176.417969 151.53125 175.121094 C 151.53125 173.972656 151.8125 172.960938 152.382812 172.242188 C 152.949219 171.523438 153.796875 171.089844 154.789062 171.089844 C 155.640625 171.089844 156.347656 171.378906 156.914062 172.097656 C 157.480469 172.675781 157.625 173.539062 157.625 174.691406 L 157.625 175.265625 L 152.238281 175.265625 C 152.238281 176.273438 152.523438 177.140625 152.949219 177.714844 C 153.371094 178.292969 154.082031 178.578125 154.929688 178.578125 C 155.355469 178.578125 155.78125 178.578125 156.066406 178.433594 C 156.347656 178.433594 156.773438 178.292969 157.339844 178.003906 L 157.339844 178.578125 C 156.914062 178.722656 156.488281 178.867188 156.207031 179.011719 C 155.78125 179.011719 155.355469 179.011719 154.929688 179.011719 Z M 154.648438 171.667969 C 153.941406 171.667969 153.371094 171.953125 152.949219 172.386719 C 152.523438 172.820312 152.238281 173.539062 152.238281 174.546875 L 156.914062 174.546875 C 156.914062 173.683594 156.773438 172.960938 156.347656 172.53125 C 155.921875 172.097656 155.355469 171.667969 154.648438 171.667969 Z M 154.648438 171.667969 "/>
<path style=" stroke:none;fill-rule:nonzero;fill:rgb(13.72549%,12.156863%,12.54902%);fill-opacity:1;" d="M 160.316406 178.867188 L 159.609375 178.867188 L 159.609375 167.921875 L 160.316406 167.921875 Z M 160.316406 178.867188 "/>
<path style=" stroke:none;fill-rule:nonzero;fill:rgb(13.72549%,12.156863%,12.54902%);fill-opacity:1;" d="M 162.726562 169.074219 C 162.726562 168.640625 162.867188 168.355469 163.148438 168.355469 C 163.292969 168.355469 163.433594 168.355469 163.433594 168.5 C 163.574219 168.640625 163.574219 168.785156 163.574219 168.929688 C 163.574219 169.074219 163.574219 169.363281 163.433594 169.363281 C 163.292969 169.507812 163.292969 169.507812 163.148438 169.507812 C 162.867188 169.792969 162.726562 169.648438 162.726562 169.074219 Z M 163.574219 178.867188 L 162.867188 178.867188 L 162.867188 171.234375 L 163.574219 171.234375 Z M 163.574219 178.867188 "/>
<path style=" stroke:none;fill-rule:nonzero;fill:rgb(13.72549%,12.156863%,12.54902%);fill-opacity:1;" d="M 171.226562 178.867188 L 171.226562 173.972656 C 171.226562 173.25 171.085938 172.675781 170.800781 172.242188 C 170.519531 171.953125 169.953125 171.667969 169.382812 171.667969 C 168.535156 171.667969 167.824219 171.953125 167.402344 172.386719 C 166.976562 172.820312 166.835938 173.539062 166.835938 174.691406 L 166.835938 178.867188 L 165.984375 178.867188 L 165.984375 171.234375 L 166.550781 171.234375 L 166.691406 172.242188 C 167.117188 171.378906 168.109375 171.089844 169.242188 171.089844 C 170.945312 171.089844 171.792969 171.953125 171.792969 173.828125 L 171.792969 178.867188 Z M 171.226562 178.867188 "/>
<path style=" stroke:none;fill-rule:nonzero;fill:rgb(13.72549%,12.156863%,12.54902%);fill-opacity:1;" d="M 177.460938 179.011719 C 176.328125 179.011719 175.476562 178.722656 174.910156 178.003906 C 174.34375 177.28125 174.0625 176.417969 174.0625 175.121094 C 174.0625 173.972656 174.34375 172.960938 174.910156 172.242188 C 175.476562 171.523438 176.328125 171.089844 177.320312 171.089844 C 178.171875 171.089844 178.878906 171.378906 179.445312 172.097656 C 180.011719 172.675781 180.152344 173.539062 180.152344 174.691406 L 180.152344 175.265625 L 174.769531 175.265625 C 174.769531 176.273438 175.050781 177.140625 175.476562 177.714844 C 175.902344 178.292969 176.613281 178.578125 177.460938 178.578125 C 177.886719 178.578125 178.3125 178.578125 178.59375 178.433594 C 178.878906 178.433594 179.304688 178.292969 179.871094 178.003906 L 179.871094 178.578125 C 179.445312 178.722656 179.019531 178.867188 178.738281 179.011719 C 178.3125 179.011719 177.886719 179.011719 177.460938 179.011719 Z M 177.179688 171.667969 C 176.46875 171.667969 175.902344 171.953125 175.476562 172.386719 C 175.050781 172.820312 174.769531 173.539062 174.769531 174.546875 L 179.445312 174.546875 C 179.445312 173.683594 179.304688 172.960938 178.878906 172.53125 C 178.453125 172.097656 177.886719 171.667969 177.179688 171.667969 Z M 177.179688 171.667969 "/>
<path style=" stroke:none;fill-rule:nonzero;fill:rgb(13.72549%,12.156863%,12.54902%);fill-opacity:1;" d="M 502.660156 164.320312 C 502.660156 165.328125 502.375 166.050781 501.667969 166.625 C 500.960938 167.203125 500.109375 167.488281 498.835938 167.488281 L 497.277344 167.488281 L 497.277344 171.667969 L 496.566406 171.667969 L 496.566406 161.296875 L 498.976562 161.296875 C 501.386719 161.296875 502.660156 162.304688 502.660156 164.320312 Z M 497.277344 166.769531 L 498.691406 166.769531 C 499.824219 166.769531 500.675781 166.625 501.101562 166.195312 C 501.667969 165.761719 501.808594 165.1875 501.808594 164.320312 C 501.808594 163.457031 501.527344 162.882812 501.101562 162.59375 C 500.675781 162.160156 499.824219 162.015625 498.835938 162.015625 L 497.132812 162.015625 L 497.132812 166.769531 Z M 497.277344 166.769531 "/>
<path style=" stroke:none;fill-rule:nonzero;fill:rgb(13.72549%,12.156863%,12.54902%);fill-opacity:1;" d="M 507.621094 163.890625 C 507.902344 163.890625 508.328125 163.890625 508.613281 164.035156 L 508.46875 164.753906 C 508.1875 164.609375 507.761719 164.609375 507.476562 164.609375 C 506.769531 164.609375 506.34375 164.898438 505.917969 165.472656 C 505.492188 166.050781 505.351562 166.769531 505.351562 167.632812 L 505.351562 171.8125 L 504.644531 171.8125 L 504.644531 164.179688 L 505.210938 164.179688 L 505.210938 165.617188 C 505.492188 165.042969 505.917969 164.609375 506.203125 164.464844 C 506.628906 163.890625 507.054688 163.890625 507.621094 163.890625 Z M 507.621094 163.890625 "/>
<path style=" stroke:none;fill-rule:nonzero;fill:rgb(13.72549%,12.156863%,12.54902%);fill-opacity:1;" d="M 516.40625 167.777344 C 516.40625 169.074219 516.121094 169.9375 515.554688 170.660156 C 514.988281 171.378906 514.136719 171.667969 513.144531 171.667969 C 512.4375 171.667969 511.871094 171.523438 511.445312 171.234375 C 511.019531 170.945312 510.59375 170.515625 510.3125 169.792969 C 510.027344 169.074219 509.886719 168.5 509.886719 167.632812 C 509.886719 166.339844 510.171875 165.472656 510.738281 164.753906 C 511.304688 164.035156 512.152344 163.746094 513.144531 163.746094 C 514.136719 163.746094 514.988281 164.035156 515.554688 164.753906 C 516.121094 165.617188 516.40625 166.625 516.40625 167.777344 Z M 510.453125 167.777344 C 510.453125 168.785156 510.738281 169.648438 511.160156 170.226562 C 511.585938 170.800781 512.296875 171.089844 513.144531 171.089844 C 513.996094 171.089844 514.5625 170.800781 515.128906 170.226562 C 515.554688 169.648438 515.839844 168.785156 515.839844 167.777344 C 515.839844 166.769531 515.554688 165.90625 515.128906 165.328125 C 514.703125 164.753906 513.996094 164.464844 513.144531 164.464844 C 512.296875 164.464844 511.730469 164.753906 511.160156 165.328125 C 510.59375 165.90625 510.453125 166.769531 510.453125 167.777344 Z M 510.453125 167.777344 "/>
<path style=" stroke:none;fill-rule:nonzero;fill:rgb(13.72549%,12.156863%,12.54902%);fill-opacity:1;" d="M 521.222656 163.890625 C 521.789062 163.890625 522.214844 164.035156 522.640625 164.179688 C 523.066406 164.320312 523.347656 164.753906 523.773438 165.1875 C 523.773438 164.609375 523.773438 164.035156 523.773438 163.457031 L 523.773438 160.722656 L 524.480469 160.722656 L 524.480469 171.667969 L 524.054688 171.667969 L 523.914062 170.515625 C 523.347656 171.378906 522.496094 171.8125 521.507812 171.8125 C 520.515625 171.8125 519.664062 171.523438 519.097656 170.800781 C 518.53125 170.082031 518.246094 169.21875 518.246094 167.921875 C 518.246094 166.625 518.53125 165.617188 519.097656 164.898438 C 519.378906 164.179688 520.089844 163.890625 521.222656 163.890625 Z M 521.222656 164.464844 C 520.371094 164.464844 519.804688 164.753906 519.378906 165.328125 C 518.957031 165.90625 518.8125 166.769531 518.8125 167.921875 C 518.8125 170.082031 519.664062 171.234375 521.363281 171.234375 C 522.214844 171.234375 522.78125 170.945312 523.207031 170.515625 C 523.632812 170.082031 523.773438 169.21875 523.773438 168.066406 L 523.773438 167.921875 C 523.773438 166.769531 523.632812 165.90625 523.207031 165.328125 C 522.640625 164.753906 522.074219 164.464844 521.222656 164.464844 Z M 521.222656 164.464844 "/>
<path style=" stroke:none;fill-rule:nonzero;fill:rgb(13.72549%,12.156863%,12.54902%);fill-opacity:1;" d="M 527.457031 164.035156 L 527.457031 168.929688 C 527.457031 169.648438 527.597656 170.226562 527.882812 170.660156 C 528.164062 170.945312 528.734375 171.234375 529.300781 171.234375 C 530.148438 171.234375 530.859375 170.945312 531.285156 170.515625 C 531.707031 170.082031 531.851562 169.363281 531.851562 168.210938 L 531.851562 164.035156 L 532.558594 164.035156 L 532.558594 171.667969 L 531.992188 171.667969 L 531.851562 170.660156 C 531.425781 171.523438 530.433594 171.8125 529.300781 171.8125 C 527.597656 171.8125 526.75 170.945312 526.75 169.074219 L 526.75 164.035156 Z M 527.457031 164.035156 "/>
<path style=" stroke:none;fill-rule:nonzero;fill:rgb(13.72549%,12.156863%,12.54902%);fill-opacity:1;" d="M 538.226562 171.8125 C 537.09375 171.8125 536.242188 171.523438 535.675781 170.800781 C 535.109375 170.082031 534.824219 169.21875 534.824219 167.921875 C 534.824219 166.625 535.109375 165.617188 535.816406 164.898438 C 536.382812 164.179688 537.375 163.890625 538.367188 163.890625 C 539.078125 163.890625 539.644531 164.035156 540.210938 164.179688 L 540.070312 164.753906 C 539.359375 164.464844 538.792969 164.464844 538.367188 164.464844 C 537.375 164.464844 536.808594 164.753906 536.242188 165.328125 C 535.816406 165.90625 535.535156 166.769531 535.535156 167.777344 C 535.535156 168.785156 535.816406 169.648438 536.242188 170.226562 C 536.667969 170.800781 537.375 171.089844 538.226562 171.089844 C 538.933594 171.089844 539.5 170.945312 540.070312 170.660156 L 540.070312 171.234375 C 539.644531 171.667969 539.078125 171.8125 538.226562 171.8125 Z M 538.226562 171.8125 "/>
<path style=" stroke:none;fill-rule:nonzero;fill:rgb(13.72549%,12.156863%,12.54902%);fill-opacity:1;" d="M 543.894531 171.089844 C 544.320312 171.089844 544.746094 171.089844 545.027344 170.945312 L 545.027344 171.523438 C 544.746094 171.667969 544.320312 171.667969 543.894531 171.667969 C 543.1875 171.667969 542.761719 171.523438 542.476562 171.089844 C 542.195312 170.660156 542.050781 170.226562 542.050781 169.363281 L 542.050781 164.464844 L 540.917969 164.464844 L 540.917969 164.179688 L 542.050781 163.890625 L 542.335938 162.160156 L 542.617188 162.160156 L 542.617188 164.035156 L 544.886719 164.035156 L 544.886719 164.609375 L 542.617188 164.609375 L 542.617188 169.507812 C 542.617188 170.082031 542.761719 170.515625 542.902344 170.800781 C 543.042969 171.089844 543.46875 171.089844 543.894531 171.089844 Z M 543.894531 171.089844 "/>
<path style=" stroke:none;fill-rule:nonzero;fill:rgb(13.72549%,12.156863%,12.54902%);fill-opacity:1;" d="M 554.945312 161.875 C 553.671875 161.875 552.679688 162.304688 551.972656 163.167969 C 551.261719 164.035156 550.835938 165.1875 550.835938 166.625 C 550.835938 168.066406 551.121094 169.21875 551.828125 170.082031 C 552.539062 170.945312 553.53125 171.234375 554.804688 171.234375 C 555.65625 171.234375 556.363281 171.089844 557.214844 170.945312 L 557.214844 171.523438 C 556.503906 171.8125 555.65625 171.8125 554.664062 171.8125 C 553.246094 171.8125 552.113281 171.378906 551.261719 170.371094 C 550.414062 169.507812 549.988281 168.066406 549.988281 166.480469 C 549.988281 165.472656 550.128906 164.464844 550.554688 163.746094 C 550.980469 162.882812 551.546875 162.304688 552.253906 161.875 C 552.964844 161.441406 553.8125 161.152344 554.804688 161.152344 C 555.796875 161.152344 556.648438 161.296875 557.496094 161.730469 L 557.214844 162.304688 C 556.503906 162.015625 555.65625 161.875 554.945312 161.875 Z M 554.945312 161.875 "/>
<path style=" stroke:none;fill-rule:nonzero;fill:rgb(13.72549%,12.156863%,12.54902%);fill-opacity:1;" d="M 566.992188 166.339844 C 566.992188 168.066406 566.566406 169.363281 565.714844 170.226562 C 564.867188 171.089844 563.449219 171.523438 561.75 171.523438 L 559.339844 171.523438 L 559.339844 161.296875 L 562.03125 161.296875 C 563.589844 161.296875 564.867188 161.730469 565.714844 162.59375 C 566.566406 163.457031 566.992188 164.753906 566.992188 166.339844 Z M 566.28125 166.480469 C 566.28125 165.042969 565.859375 163.890625 565.148438 163.167969 C 564.441406 162.449219 563.308594 162.015625 561.890625 162.015625 L 560.046875 162.015625 L 560.046875 171.089844 L 561.75 171.089844 C 564.722656 170.945312 566.28125 169.507812 566.28125 166.480469 Z M 566.28125 166.480469 "/>
<path style=" stroke:none;fill-rule:nonzero;fill:rgb(13.72549%,12.156863%,12.54902%);fill-opacity:1;" d="M 579.175781 164.320312 C 579.175781 165.328125 578.894531 166.050781 578.183594 166.625 C 577.476562 167.203125 576.625 167.488281 575.351562 167.488281 L 573.792969 167.488281 L 573.792969 171.667969 L 573.085938 171.667969 L 573.085938 161.296875 L 575.492188 161.296875 C 577.902344 161.296875 579.175781 162.304688 579.175781 164.320312 Z M 573.792969 166.769531 L 575.210938 166.769531 C 576.34375 166.769531 577.195312 166.625 577.617188 166.195312 C 578.183594 165.761719 578.328125 165.1875 578.328125 164.320312 C 578.328125 163.457031 578.042969 162.882812 577.617188 162.59375 C 577.195312 162.160156 576.34375 162.015625 575.351562 162.015625 L 573.652344 162.015625 L 573.652344 166.769531 Z M 573.792969 166.769531 "/>
<path style=" stroke:none;fill-rule:nonzero;fill:rgb(13.72549%,12.156863%,12.54902%);fill-opacity:1;" d="M 581.019531 161.875 C 581.019531 161.441406 581.160156 161.152344 581.445312 161.152344 C 581.585938 161.152344 581.726562 161.152344 581.726562 161.296875 C 581.871094 161.441406 581.871094 161.585938 581.871094 161.730469 C 581.871094 161.875 581.871094 162.160156 581.726562 162.160156 C 581.585938 162.304688 581.585938 162.304688 581.445312 162.304688 C 581.160156 162.59375 581.019531 162.304688 581.019531 161.875 Z M 581.871094 171.667969 L 581.160156 171.667969 L 581.160156 164.035156 L 581.871094 164.035156 Z M 581.871094 171.667969 "/>
<path style=" stroke:none;fill-rule:nonzero;fill:rgb(13.72549%,12.156863%,12.54902%);fill-opacity:1;" d="M 587.539062 171.8125 C 586.402344 171.8125 585.554688 171.378906 584.988281 170.515625 L 584.988281 171.089844 C 584.988281 171.378906 584.988281 171.8125 584.988281 172.242188 L 584.988281 175.121094 L 584.277344 175.121094 L 584.277344 164.035156 L 584.84375 164.035156 L 584.988281 165.1875 C 585.554688 164.320312 586.261719 163.890625 587.394531 163.890625 C 588.386719 163.890625 589.238281 164.179688 589.664062 164.898438 C 590.230469 165.617188 590.511719 166.625 590.511719 167.921875 C 590.511719 169.21875 590.230469 170.082031 589.664062 170.800781 C 589.378906 171.378906 588.53125 171.8125 587.539062 171.8125 Z M 587.539062 171.089844 C 588.246094 171.089844 588.953125 170.800781 589.378906 170.226562 C 589.804688 169.648438 589.945312 168.785156 589.945312 167.777344 C 589.945312 165.472656 589.097656 164.464844 587.539062 164.464844 C 586.6875 164.464844 585.980469 164.753906 585.554688 165.1875 C 585.128906 165.617188 584.988281 166.480469 584.988281 167.632812 L 584.988281 167.921875 C 584.988281 169.074219 585.128906 169.9375 585.554688 170.515625 C 585.980469 170.945312 586.6875 171.089844 587.539062 171.089844 Z M 587.539062 171.089844 "/>
<path style=" stroke:none;fill-rule:nonzero;fill:rgb(13.72549%,12.156863%,12.54902%);fill-opacity:1;" d="M 595.898438 171.8125 C 594.765625 171.8125 593.914062 171.523438 593.347656 170.800781 C 592.78125 170.082031 592.496094 169.21875 592.496094 167.921875 C 592.496094 166.769531 592.78125 165.761719 593.347656 165.042969 C 593.914062 164.320312 594.765625 163.890625 595.757812 163.890625 C 596.605469 163.890625 597.316406 164.179688 597.882812 164.898438 C 598.449219 165.472656 598.589844 166.339844 598.589844 167.488281 L 598.589844 168.066406 L 593.207031 168.066406 C 593.207031 169.074219 593.488281 169.9375 593.914062 170.515625 C 594.339844 171.089844 595.046875 171.378906 595.898438 171.378906 C 596.324219 171.378906 596.746094 171.378906 597.03125 171.234375 C 597.316406 171.234375 597.738281 171.089844 598.308594 170.800781 L 598.308594 171.378906 C 597.882812 171.523438 597.457031 171.667969 597.171875 171.8125 C 596.605469 171.667969 596.324219 171.8125 595.898438 171.8125 Z M 595.613281 164.464844 C 594.90625 164.464844 594.339844 164.753906 593.914062 165.1875 C 593.488281 165.617188 593.207031 166.339844 593.207031 167.347656 L 597.882812 167.347656 C 597.882812 166.480469 597.738281 165.761719 597.316406 165.328125 C 596.890625 164.898438 596.324219 164.464844 595.613281 164.464844 Z M 595.613281 164.464844 "/>
<path style=" stroke:none;fill-rule:nonzero;fill:rgb(13.72549%,12.156863%,12.54902%);fill-opacity:1;" d="M 601.28125 171.667969 L 600.574219 171.667969 L 600.574219 160.722656 L 601.28125 160.722656 Z M 601.28125 171.667969 "/>
<path style=" stroke:none;fill-rule:nonzero;fill:rgb(13.72549%,12.156863%,12.54902%);fill-opacity:1;" d="M 603.691406 161.875 C 603.691406 161.441406 603.832031 161.152344 604.117188 161.152344 C 604.257812 161.152344 604.398438 161.152344 604.398438 161.296875 C 604.542969 161.441406 604.542969 161.585938 604.542969 161.730469 C 604.542969 161.875 604.542969 162.160156 604.398438 162.160156 C 604.257812 162.304688 604.257812 162.304688 604.117188 162.304688 C 603.832031 162.59375 603.691406 162.304688 603.691406 161.875 Z M 604.398438 171.667969 L 603.832031 171.667969 L 603.832031 164.035156 L 604.542969 164.035156 L 604.542969 171.667969 Z M 604.398438 171.667969 "/>
<path style=" stroke:none;fill-rule:nonzero;fill:rgb(13.72549%,12.156863%,12.54902%);fill-opacity:1;" d="M 612.191406 171.667969 L 612.191406 166.769531 C 612.191406 166.050781 612.050781 165.472656 611.769531 165.042969 C 611.484375 164.753906 610.917969 164.464844 610.351562 164.464844 C 609.5 164.464844 608.792969 164.753906 608.367188 165.1875 C 607.941406 165.617188 607.800781 166.339844 607.800781 167.488281 L 607.800781 171.667969 L 607.09375 171.667969 L 607.09375 164.035156 L 607.660156 164.035156 L 607.800781 165.042969 C 608.226562 164.179688 609.21875 163.890625 610.351562 163.890625 C 612.050781 163.890625 612.902344 164.753906 612.902344 166.625 L 612.902344 171.667969 Z M 612.191406 171.667969 "/>
<path style=" stroke:none;fill-rule:nonzero;fill:rgb(13.72549%,12.156863%,12.54902%);fill-opacity:1;" d="M 618.429688 171.8125 C 617.292969 171.8125 616.445312 171.523438 615.878906 170.800781 C 615.3125 170.082031 615.027344 169.21875 615.027344 167.921875 C 615.027344 166.769531 615.3125 165.761719 615.878906 165.042969 C 616.445312 164.320312 617.292969 163.890625 618.285156 163.890625 C 619.136719 163.890625 619.84375 164.179688 620.410156 164.898438 C 620.980469 165.472656 621.121094 166.339844 621.121094 167.488281 L 621.121094 168.066406 L 615.734375 168.066406 C 615.734375 169.074219 616.019531 169.9375 616.445312 170.515625 C 616.871094 171.089844 617.578125 171.378906 618.429688 171.378906 C 618.851562 171.378906 619.277344 171.378906 619.5625 171.234375 C 619.84375 171.234375 620.269531 171.089844 620.835938 170.800781 L 620.835938 171.378906 C 620.410156 171.523438 619.988281 171.667969 619.703125 171.8125 C 619.277344 171.667969 618.851562 171.8125 618.429688 171.8125 Z M 618.144531 164.464844 C 617.4375 164.464844 616.871094 164.753906 616.445312 165.1875 C 616.019531 165.617188 615.734375 166.339844 615.734375 167.347656 L 620.410156 167.347656 C 620.410156 166.480469 620.269531 165.761719 619.84375 165.328125 C 619.417969 164.898438 618.851562 164.464844 618.144531 164.464844 Z M 618.144531 164.464844 "/>
<path style="fill:none;stroke-width:1;stroke-linecap:butt;stroke-linejoin:miter;stroke:rgb(0%,38.823529%,100%);stroke-opacity:1;stroke-miterlimit:10;" d="M 414.600256 138.298849 L 473.500534 138.298849 L 473.500534 171.300381 L 414.600256 171.300381 Z M 414.600256 138.298849 " transform="matrix(1.416987,0,0,1.440156,0.196446,0)"/>
<path style="fill:none;stroke-width:1;stroke-linecap:butt;stroke-linejoin:miter;stroke:rgb(13.72549%,12.156863%,12.54902%);stroke-opacity:1;stroke-dasharray:1,1;stroke-miterlimit:10;" d="M 314.100934 125.499126 L 482.600497 125.499126 L 482.600497 184.200462 L 314.100934 184.200462 Z M 314.100934 125.499126 " transform="matrix(1.416987,0,0,1.440156,0.196446,0)"/>
<path style="fill:none;stroke-width:1;stroke-linecap:butt;stroke-linejoin:miter;stroke:rgb(13.72549%,12.156863%,12.54902%);stroke-opacity:1;stroke-dasharray:1,1;stroke-miterlimit:10;" d="M 384.598772 155.400407 L 414.600256 155.400407 " transform="matrix(1.416987,0,0,1.440156,0.196446,0)"/>
<path style="fill:none;stroke-width:1;stroke-linecap:butt;stroke-linejoin:miter;stroke:rgb(0%,38.823529%,100%);stroke-opacity:1;stroke-miterlimit:10;" d="M 325.701251 138.298849 L 384.598772 138.298849 L 384.598772 171.300381 L 325.701251 171.300381 Z M 325.701251 138.298849 " transform="matrix(1.416987,0,0,1.440156,0.196446,0)"/>
<path style="fill:none;stroke-width:1;stroke-linecap:butt;stroke-linejoin:miter;stroke:rgb(0%,38.823529%,100%);stroke-opacity:1;stroke-miterlimit:10;" d="M 213.40037 130.500756 L 272.099407 130.500756 L 272.099407 189.199379 L 213.40037 189.199379 Z M 213.40037 130.500756 " transform="matrix(1.416987,0,0,1.440156,0.196446,0)"/>
</g>
</svg>
